<svg width="71" height="20" fill="none" xmlns="http://www.w3.org/2000/svg"><path d="M68.343 11.164c-.387.04-.894-.002-1.279-.06-.12-.018-.06-.097-.143-.113-.163-.03-.315.008-.476-.029-.053-.012.013-.138-.043-.149-.306-.055-.597-.023-.907-.05-1.53-.132-3.035-.18-4.584-.237-.51-.019-1.132-.133-1.66-.083-.061.006-.024.117-.036.126-.184.14-.123-.084-.243-.114-.476-.117-1.006-.127-1.464-.084-.195.018 0 .238-.196.115-.013-.009.036-.126-.017-.139-.122-.028-.352-.007-.446-.016-.18-.019-.21-.018-.382-.019-.234-.003-.513-.061-.764-.034-.054.006.017.126-.069.146-.085.02-.312.01-.388-.018-.076-.028-.044-.123-.057-.144-.112-.183-.374.07-.407.076-.615.107-1.142-.037-1.72-.037-.437 0-.905.049-1.322.042-.497-.008-.918-.073-1.4-.062-.051 0 .009.142-.054.144-.66.016-1.316 0-1.974-.095-.066-.01.02-.134-.047-.15-.403-.103-1.042-.348-1.281.193-.274-.021-.605-.043-.85-.152-.158-.07-.005-.206-.198-.148-.044.013.013.131-.053.142-.275.043-.577.005-.85.066-.055.013-.04.119-.056.138-.132.155-.352-.101-.4-.12-.365-.138-.631-.084-.972-.087-.079-.001.015.142-.061.146-.394.02-.802.008-1.188-.055-.086-.015-.007-.136-.048-.15-.18-.056-.22.174-.394.124-.037-.01-.016-.114-.023-.125-.104-.18-.195.074-.222.08-.34.077-.556-.189-.884-.151-.04.005.049.136-.062.142-.734.036-1.512 0-2.24-.105-.112-.017-.032-.116-.039-.128-.116-.19-.19.065-.228.075-.29.069-.563-.145-.76.159-1.232-.106-2.459.065-3.68-.207-.017-.003.011-.13-.02-.135-.373-.07-.301.125-.548.364-.062.06-.252-.229-.268-.25-.061-.078.002-.265-.019-.28-.169-.118-.141.5-.37.5-.006 0 .024-.115.005-.126-.06-.035-.119.01-.177-.03-.133-.09-.18-.39-.384-.216-.026.023.013.374-.19.357-.081-.007-.44 0-.541-.023-.1-.023-.032-.136-.039-.141-.271-.15-.168-.211-.304-.433-.136-.22-.098.306-.153.364-.056.059-.255-.064-.303-.107-.05-.043.012-.115-.032-.14-.287-.158-.126.262-.22.345-.224.198-.398-.192-.603-.23-.055-.01-.01.078-.06.086-.195.032-.312-.09-.534.022-.037.018-.216.253-.333.08-.016-.024.03-.121-.052-.143a1.196 1.196 0 00-.482-.022c-.1.024.014.184-.11.135-.055-.022.047-.116-.057-.15-.103-.034-.367-.03-.467-.027-.1.004-.045.125-.053.133a.834.834 0 01-.259.106c-.857.014-1.647-.19-2.481-.122-.065.005-.022.133-.032.135-.224.053-.047-.287-.204-.401.023.26-.07.213-.227.241-.077.014-.035.115-.042.125-.113.153-.191-.044-.212-.085-.074-.148-.156.027-.207-.072-.05-.099.067-.245-.085-.243-.042.093.07.336-.045.376-.434.149-1.243-.042-1.592-.062-.348-.02-.46-.002-.663-.036-.367-.06-.232.12-.46.202-.228.083-.117-.361-.15-.457-.032-.095-.067.003-.107-.05-.04-.052.046-.116-.048-.136-.094-.02-.35.15-.384.25-.07.21.046.433-.203.355-.014-.005.032-.122-.023-.133-.434-.09-.886-.096-1.32-.175-.06-.011-.006-.141-.041-.149-.362-.083-.233.136-.431.379.045-.324-.065-.522-.34-.523-.165-.002-.137.14-.243.24-.032.03-.15-.068-.17-.001-.07.217.04.46-.243.363-.013-.004.027-.123-.016-.13-.278-.048-.31.18-.61.207-.236.022-.654-.117-.922-.14.006-.363-.247-.28-.35-.029-.173-.01-.361.004-.529-.03-.058-.013-.02-.118-.027-.13-.112-.178-.187.066-.225.076-.406.093-.737-.092-1.125.089-.014.006-.036.259-.14.074-.007-.012.121-.127-.061-.136-.183-.01-.527-.145-.78-.028-.061.029-.216.234-.34.073-.018-.021 0-.094-.023-.134-.078-.129-.12.127-.21-.09-.092-.217-.281-.38-.537-.23-.008.004-.068.207-.149.204-.128-.006-.31-.048-.444-.047-.064.001-.023.127-.034.13-.431.07-.738-.042-1.2-.091-.085-.01-.328.162-.492.027-.18-.149.005-.766-.409-.619-.167.059-.378.842-.678.436-.581.1-1.12-.107-1.703.037-.026.006-.109.225-.17.222-.092-.005-.142-.107-.207-.114-.274-.03-.525.057-.79.043-.1-.005-.064-.11-.184-.117-.12-.005-.199.134-.361.067-.122-.052-.245-.336-.407-.369-.006.28-.118.275-.316.349-.038.014.003.112-.015.123-.073.05-.141-.03-.21.025-.018.013-.019.109-.032.125-.118.14-.312-.075-.346-.112-.127-.143-.187-.018-.285-.074-.098-.056.049-.126-.066-.16-.236-.07-.54-.055-.781-.06-.096 0-.03.127-.044.13-.199.032-.4-.104-.51.15-.137-.658-.12.065-.403-.067-.022-.01-.05-.322.035-.368.086-.045.216.052.335-.02.028-.016.19-.308.212-.326.172-.138.197.328.206.353.103.276.3-.038.353-.06.237-.1.44-.034.638-.105.13-.046.143-.35.245-.342.339.031.457.456.777.088.069-.079 0-.412.246-.15.016.017.198.256.304.105.013-.02.012-.117.03-.125.117-.052.195.025.322-.012.128-.037.28-.092.426-.06.088.02.2.201.243.245.118.128.245-.081.319.073.074.155-.071.391.123.491.007-.252.024-.51.035-.764.426.009.844.09 1.271.08.053-.003 0-.138.056-.143.24-.022.448.075.697.036.192-.03.402-.174.603-.21.123.289.421.19.638.217.076.01.07.086.125.112.203.093.108-.162.164-.203.24-.17.26.406.542.392.015 0 .198-.308.223-.327.16-.125.026.107.126.13.183.041.31.114.525.024.062-.026.212-.218.334-.07.016.02.007.121.02.127.233.1.239-.22.372-.328.133-.108.338.112.38.176.11.164-.084.07-.09.086-.07.192.08.16.195.175.017.314.177.295.119.016-.007-.03-.096-.001-.119-.016.1-.307.277-.346.471-.06.091.136.005.293.281.235.126-.026.077-.242.188-.3.253-.135.582.067.842.035.095-.012.003-.13.067-.142.172-.032.323.057.496.012.015-.005-.023-.128.03-.13.407-.014.761.065 1.185.067.205.001.572-.067.784-.053.368.023.821.203 1.135.159.206-.028.16-.152.248-.236.17-.163.47.13.51.175.002.001-.175.03-.08.094.054.132.078-.094.08-.095.027.03.38.058.45.034.038-.013.016-.13.036-.134a4.26 4.26 0 011.422-.08c.008.002-.005.133.015.137.277.058.454-.102.682-.197.229-.095.41-.063.545.162.172-.029.42.07.561.131.142.06.162-.195.175-.2.39-.161.616-.015 1.02.008.193.01.574-.026.783-.054.165-.023.264.037.415 0 .021-.006 0-.12.007-.124.169-.136.087.142.122.191.127.18.206.277.422.192.05-.02.196-.42.287-.443.119-.03.074.114.198.08.01-.004.009-.092.085-.088.356.017.744.068 1.113.06.05-.001-.014-.142.059-.145a4.483 4.483 0 011.05.054c.083.017.031.115.049.144.11.176.264-.08.29-.085.61-.123 1.078.109 1.7-.002.034-.006.294-.28.41-.045.009.016.124.257.226.092.006-.01-.066-.135.06-.122.124.013.326-.07.498.066.054.043.183.284.345.092.011-.014.262-.447.351-.148.015.05 0 .366.194.204.037-.032-.03-.103.067-.147.15-.068.347.017.531-.124.032-.025.169-.24.278-.076.017.025-.015.13.043.143.275.056.562-.014.841.059.1.025.049.196.152.242.103.046.31.09.418.012.108-.078-.01-.35.152-.372.702-.095 1.398.065 2.1.088.104.003.017-.094.17-.096.566-.007 1.542-.098 2.032.109.393.165-.102.292.199.36.145.031.301-.285.337-.295.341-.101.579.039.886-.004.064-.01.001-.137.056-.144.184-.022.378.035.555.025.079-.005.064-.103.137-.095.174.017.328.058.498.15.016.008-.089.13.04.134.209.007.468.098.708.004.071-.028.074-.252.227-.097.032.032-.009.301.17.069.03-.039.33-.352.476-.15.04.053.138.273.224.238.011-.005-.035-.125.036-.137.25-.04.512-.027.77-.064.068-.01-.034-.135.068-.146.281-.032.633 0 .908.039.101.014.03.118.038.129.119.182.19-.064.228-.078.245-.086.432.03.658-.001.062-.008.018-.126.03-.136.129-.103.033.108.114.131.229.066.483.057.714.042.084-.006-.011-.142.065-.146a6.27 6.27 0 011.357.065c.083.014.03.12.048.143.119.168.293-.06.333-.083.182-.099.253-.006.414-.023.786-.087 1.756-.025 2.498.013.966.049 1.717.148 2.638.122.059-.001 0-.14.05-.144.652-.033 1.294.021 1.947-.02.054-.002-.023-.134.063-.144.176-.02.4-.013.578.03.087.02-.03.133.058.151a2.1 2.1 0 00.633.031c.089-.01-.046-.144.07-.146.79-.013 1.565-.037 2.363.139.055.012.103.286.219.234.009-.077.008-.166.012-.248 1.15-.044 2.287.052 3.44.066.048 0-.036-.145.058-.144.545.002 1.074-.039 1.63.106.056.014.028.27.19.232.03-.007.275-.041.338-.097.009-.008-.036-.128.043-.132.46-.018.94.01 1.4.083.073.012-.006.14.047.149.374.067.78-.03 1.138.086.24.078.15.298.278.515.018.03.166.035.173.161.02.317-.052.665-.022 1.002.006.073.204-.005.087.17-.008.013-.152.071-.188.13-.024.042.02.17-.03.223-.05.053-.106-.055-.189.007-.083.063-.047.209-.213.226zM22.737 9.138c.132.122.152-.326.01-.219a1.17 1.17 0 00-.01.219zm-15.927.07c.172.199.29-.092.168-.245-.12-.153-.22.186-.168.246zm-1.785.145c.202.156.233-.48.018-.351-.013.007-.03.342-.018.351zm63.11-.046a.347.347 0 00.111.005c.057-.142-.156-.154-.11-.005zm-64.88.203c.062.086.243-.013.165-.12-.063-.086-.244.013-.165.12zm26.35.107c.002.006.078.012.076-.026-.005-.121-.111-.087-.077.026zm-29.36-.1c.444.025.714.55.23.49-.088-.01.189-.167.077-.214-.204-.086-.34.244-.548.067-.038-.033.215-.345.241-.343zm22.568.16a.35.35 0 00.111.005c.057-.142-.156-.154-.11-.005zm11.245.217a.925.925 0 00.259.013c.128-.233-.368-.258-.26-.013zm-18.36.111c-.115.143-.253.16-.345-.02.114.01.23.011.345.02z" fill="#fff"/><path d="M54.334 2.85c-.045-.006-.049-.12-.09-.15-.17-.124-.203-.221-.348-.35-.216-.189-1.003-.496-.665-1.081l.01-.017c.067-.11.2-.197.281-.317.082-.121.545-.94.66-.935.16.013.344.397.417.427.05.02.15-.021.216 0 .215.067.283.179.57.077l.023.437c.118.002.173.22.232.244.048.02.123-.05.171-.026.055.025.083.162.186.203.168.068.322-.135.431-.109.114.027.196.233.364.227l.088-.045.06-.182c.077.01.04.137.096.172.066.041.16-.044.206-.018.037.022.038.136.09.158.073.033.129-.098.18-.099.02 0 .337.093.353.101.122.064.036.238.123.307.24.193.59.214.863.303.123.04.23.116.324.205-.419.33-.232.883.013.13.066.165.256.034.353.13.063.063.06.186.168.245.19.103.549-.042.327.467.269.043.36.326.683-.05.072.007.072.343.117.414.041.067.439.447.51.497.073.05.201.134.287.134.106 0 .415-.405.262.189.19.054.24.103.36.252.022.026-.019.104-.002.114.033.02.123-.004.187.024.105.046.069.238.199-.013l.266-.01-.013.181.193-.094c-.245.33.12.263.158.014l.252.438c-.25.391.25.206.351-.026l.043.026c.064.18.23.159.343.32.113.16.076.19.016.402l.127.031c.483-.396-.057.46.493.26-.08.378.273.36.499.361.026 0 .062-.061.1-.065.09-.009.209.166.318-.037l.07.272c.068-.01.136-.02.203-.028l.107-.187c-.029.266.165.27.209.362.008.018-.038.106-.007.155.037.058.15.09.196.152.08-.08.159-.162.238-.243.141.013.036.287.09.344.01.01.236.117.25.118.12.013.217-.216.466-.012.044.037.04.134.083.162.076.05.408.02.516-.125-.017.249.282.316.325.415.013.03-.054.157 0 .223.044.054.246.039.308.097.066.061.033.18.062.207.029.026.106-.04.15-.015.134.081.18.288.286.352l.005.003 1.054.717-1.054.508c-.153.09-.148.413-.214.597-.042.002-.104-.033-.139-.014-.424.235-.924.463-1.375.653-.21.088-.89.032-.436.519-.012.137-.636.196-.732.247-.096.05-.112.194-.185.239-.22.133-.42.15-.64.395-.057.063-.063.226-.105.248-.051.027-.172-.057-.24-.027-.164.072-.43.276-.59.342-.029.012-.097-.084-.154-.093-.221-.037-.384.07-.167.377-.3-.072-.381.198-.554.312-.366.239-1.098.56-1.349.887-.158.206-.069.348-.447.399-.084.011-.173.013-.274.027-.238.034-.57-.132-.53.276-.263.04-.4.198-.718.013l.059.231-.076.05-.134-.175c-.198.092-.287.49-.448.58-.268.151-1.014.447-1.317.508-.16.033-.09.172-.327-.062l-.057.11.05.216c-.172.102-.431.125-.595.221-.298.175-.651.602-1.016.666-.09.016-.258-.056-.33-.011-.107.063-.013.287-.147.37-.231.142-.809.152-1.02.299-.063.043-.05.139-.09.173-.17.146-.33.23-.445.456-.312-.086-.444-.354-.655-.579-.16-.17-.564-.542-.683-.703-.084-.112-.12-.298-.217-.42.174-.242.34-.182.64-.106l1.047-.634.222.162c.184.006.134-.214.183-.299.466-.81 2.029-1.289 2.826-1.689.172-.086.657-.496.839-.444.047.014.12.121.154.108l.727-.686c.677-.16 1.191-.648 1.757-1.01 1.532-.981 3.039-1.969 4.602-2.836.302-.167.633-.47.958-.585.135-.048.29.102.373-.124l.089.142c.106-.14.132-.301.282-.403.127-.086.473-.295.6-.344.067-.026.097.078.153.045a.22.22 0 00.035-.027v1.582c-.12-.037-.352-.04-.47-.109-.12-.07-.264-.292-.366-.33-.366-.14-.82-.196-1.153-.444-.092-.068-.151-.259-.184-.273-.064-.028-.148.075-.197.066-.248-.044-.49-.365-.69-.487-.647-.397-1.372-.75-2.014-1.148-.406-.252-1.105-.629-1.437-.935-.072-.066.022-.178-.047-.218-.076-.044-.167.016-.206.002-.276-.095-.873-.326-1.057-.547-.035-.042-.01-.159-.038-.174-.013-.008-.082.041-.129.024-.409-.156-.66-.353-1.013-.587-.678-.45-1.564-.796-2.264-1.29-.152-.107-.15-.364-.175-.375-.052-.025-.158.087-.278.061-.395-.087-.765-.486-1.12-.604-.176-.059-.487-.018-.663-.071-.14-.042-.395-.275-.491-.234-.059.024-.155.156-.206.15zm5.425.21c-.152.213.187.16.17-.012-.004-.038-.13-.043-.17.012zm8.441 7.647l.118.189.044-.133-.118-.086-.044.03z" fill="#fff"/></svg>