<svg width="44" height="19" fill="none" xmlns="http://www.w3.org/2000/svg"><path d="M42.056 10.262a3.232 3.232 0 01-.787-.04c-.074-.012-.036-.065-.088-.075-.1-.02-.193.005-.292-.02-.033-.008.008-.092-.027-.099-.189-.037-.367-.015-.558-.033-.942-.088-1.868-.12-2.821-.158-.314-.013-.697-.089-1.021-.055-.038.004-.016.077-.023.083-.113.093-.075-.055-.15-.075a2.592 2.592 0 00-.9-.057c-.12.013 0 .16-.12.077-.01-.006.021-.084-.012-.092-.074-.019-.216-.005-.274-.011-.111-.013-.13-.012-.235-.013-.144-.002-.316-.04-.47-.023-.033.004.01.084-.042.098a.589.589 0 01-.24-.012c-.046-.019-.026-.082-.035-.096-.068-.122-.23.047-.25.05-.378.072-.703-.024-1.058-.024-.27 0-.557.032-.814.028-.305-.006-.564-.05-.861-.042-.032.001.005.095-.033.096-.407.011-.81.001-1.215-.063-.04-.006.012-.089-.029-.1-.248-.068-.641-.232-.789.129-.168-.014-.372-.029-.522-.102-.098-.046-.003-.137-.122-.098-.027.008.008.087-.033.094-.17.03-.355.004-.523.044-.034.009-.024.08-.034.092-.082.104-.217-.067-.246-.08-.225-.092-.39-.055-.598-.058-.05 0 .008.095-.038.098a3.198 3.198 0 01-.731-.037c-.053-.01-.005-.09-.03-.1-.111-.037-.136.116-.243.083-.022-.007-.01-.076-.014-.084-.064-.12-.12.05-.136.054-.209.05-.343-.126-.544-.1-.025.002.03.09-.038.094-.452.024-.93 0-1.378-.07-.07-.011-.02-.077-.024-.085-.072-.127-.118.043-.14.05-.18.045-.347-.097-.469.105-.758-.07-1.513.044-2.265-.138-.01-.002.008-.086-.011-.09-.23-.046-.186.084-.338.243-.038.04-.155-.152-.165-.166-.037-.052.002-.177-.011-.187-.104-.079-.087.333-.227.333-.005 0 .014-.076.002-.084-.037-.023-.073.007-.109-.02-.082-.06-.111-.26-.236-.144-.016.016.008.25-.117.238-.05-.004-.271 0-.333-.015-.062-.016-.02-.09-.024-.094-.167-.1-.104-.141-.187-.289-.084-.147-.06.204-.095.243-.034.04-.156-.043-.186-.072-.03-.028.008-.076-.02-.092-.176-.106-.077.174-.135.23-.138.131-.245-.129-.37-.154-.035-.007-.007.052-.038.057-.12.022-.192-.06-.329.015-.022.012-.133.168-.204.054-.01-.017.019-.082-.033-.096a.681.681 0 00-.296-.015c-.06.016.009.123-.068.09-.034-.015.03-.077-.035-.1a1.13 1.13 0 00-.287-.018c-.062.003-.028.084-.033.09a.482.482 0 01-.159.07c-.527.01-1.013-.127-1.527-.082-.04.003-.013.089-.02.09-.137.036-.028-.191-.125-.267.014.173-.043.142-.14.16-.047.01-.021.077-.026.084-.069.102-.117-.03-.13-.057-.046-.099-.096.018-.127-.048s.04-.163-.053-.162c-.026.062.043.224-.027.25-.267.1-.765-.027-.98-.04-.214-.014-.284-.002-.408-.025-.226-.04-.143.08-.283.135-.14.055-.072-.24-.092-.304-.02-.064-.042.002-.066-.033-.025-.035.028-.078-.03-.092-.057-.013-.215.1-.236.167-.043.14.028.289-.125.237-.009-.003.02-.081-.014-.089-.268-.06-.545-.064-.813-.117-.036-.007-.004-.094-.025-.099-.223-.055-.143.09-.265.253.027-.216-.04-.348-.21-.35-.1 0-.083.094-.149.16-.02.02-.091-.044-.105 0-.042.145.025.307-.15.243-.007-.003.018-.083-.009-.087-.17-.032-.191.12-.376.138-.144.014-.402-.078-.566-.093.003-.243-.152-.187-.216-.02-.106-.007-.222.003-.325-.02-.036-.008-.013-.078-.017-.086-.069-.12-.115.044-.138.05-.25.062-.454-.061-.693.06-.008.004-.022.172-.086.049-.004-.008.075-.085-.038-.091-.112-.006-.324-.096-.48-.018-.037.019-.133.155-.21.048-.01-.014.002-.062-.013-.09-.048-.085-.074.085-.13-.06-.056-.144-.172-.252-.33-.153-.004.003-.041.138-.09.136-.08-.003-.192-.031-.274-.03-.04 0-.014.084-.021.085-.266.047-.455-.027-.739-.06-.052-.006-.202.108-.302.018-.111-.099.003-.51-.252-.412-.103.039-.233.56-.417.29-.358.067-.69-.071-1.048.025-.016.004-.067.15-.105.148-.057-.004-.087-.072-.128-.076-.168-.02-.322.038-.485.028-.062-.003-.04-.073-.114-.077-.073-.004-.122.089-.222.044-.075-.034-.15-.224-.25-.246-.004.187-.073.183-.195.233-.023.01.002.074-.01.082-.044.034-.086-.02-.129.016-.01.009-.01.073-.02.084-.072.094-.191-.05-.212-.075-.078-.095-.115-.012-.175-.05-.06-.037.03-.083-.04-.106-.146-.047-.334-.037-.482-.04-.059 0-.018.085-.027.087-.122.021-.245-.07-.313.1-.085-.439-.074.043-.248-.045C.675 9.317.658 9.11.71 9.08c.053-.03.133.034.206-.013.018-.011.117-.206.13-.218.107-.092.122.219.127.236.064.183.186-.026.217-.04.147-.067.271-.023.393-.07.08-.031.088-.234.15-.228.21.02.283.304.48.058.042-.052 0-.274.15-.1.01.011.123.17.187.07.009-.013.008-.078.019-.083.072-.035.12.016.198-.008.079-.025.173-.062.263-.04.054.013.123.134.149.163.073.085.15-.054.196.049.046.103-.043.26.076.327.004-.168.015-.34.022-.51.262.007.52.061.782.054.032-.002 0-.092.034-.095.147-.015.276.05.429.024.118-.02.248-.116.371-.14.076.192.26.127.393.145.046.006.043.057.076.074.126.062.067-.108.101-.135.148-.114.16.27.334.261.01 0 .122-.205.137-.218.099-.083.017.071.078.086.113.028.19.077.323.017.038-.018.13-.146.205-.047.01.013.005.081.013.085.143.066.147-.147.229-.219.081-.072.208.075.234.117.067.11-.052.047-.056.058-.042.128.05.106.12.117.01.209.109.196.073.01-.004-.02-.059 0-.073-.01.062-.205.17-.231.29-.04.056.09.003.195.173.156.077-.017.047-.16.116-.2.155-.09.357.045.518.024.058-.008.001-.087.041-.095.106-.021.199.038.305.008.01-.003-.014-.086.02-.087.25-.01.467.043.728.045.126 0 .352-.045.482-.036.227.016.506.136.699.106.126-.018.098-.1.153-.157.104-.109.289.086.314.117 0 0-.108.02-.05.062.033.088.048-.062.05-.063.016.02.233.039.276.023.023-.009.01-.087.022-.09.29-.07.581-.09.875-.053.005.002-.002.089.01.092.17.038.28-.068.42-.132.14-.063.251-.042.335.108.105-.019.258.047.345.088.087.04.1-.13.107-.134.24-.107.38-.01.628.005a2.97 2.97 0 00.482-.036c.101-.015.162.025.256 0 .012-.004 0-.08.003-.082.105-.09.055.094.076.127.078.12.126.185.26.128.03-.013.12-.28.176-.295.073-.02.046.076.122.053.007-.002.005-.061.052-.059.22.012.458.046.685.04.031 0-.009-.094.036-.096a2.55 2.55 0 01.647.036c.05.01.019.076.03.096.067.117.162-.054.178-.057.376-.082.663.073 1.046 0 .021-.005.181-.188.253-.031.005.01.076.17.138.061.004-.007-.04-.09.037-.081.077.008.201-.047.307.044.034.029.113.189.213.061.006-.009.16-.298.216-.098.009.032 0 .243.119.135.022-.02-.02-.068.04-.097.093-.046.215.011.328-.083.02-.017.104-.16.171-.051.01.017-.01.087.026.095.17.038.346-.01.518.04.06.017.03.13.093.161.064.03.191.06.258.008.066-.052-.006-.234.093-.248.432-.063.86.043 1.292.059.064.002.011-.063.105-.064.348-.005.949-.066 1.25.072.242.11-.062.195.123.24.089.021.186-.19.207-.196.21-.068.356.026.546-.003.039-.006 0-.091.034-.096.113-.014.233.024.341.017.049-.004.04-.069.085-.064a.727.727 0 01.306.1c.01.006-.054.087.025.09.128.005.288.065.436.003.043-.02.045-.168.14-.065.02.021-.006.2.104.046.018-.026.203-.235.293-.1.024.035.085.182.138.159.007-.004-.022-.084.022-.092.154-.026.315-.018.473-.043.043-.007-.02-.09.043-.097.173-.021.389 0 .558.026.062.01.02.079.024.086.073.122.116-.043.14-.052.151-.057.266.02.405 0 .038-.006.01-.084.018-.091.08-.069.02.072.07.087.141.044.298.038.44.028.052-.004-.007-.095.04-.097.277-.016.565-.007.835.043.05.01.019.08.03.096.073.111.18-.041.204-.056.113-.066.156-.004.255-.015.484-.058 1.08-.017 1.537.008.595.033 1.057.1 1.624.082.036 0 0-.094.03-.096.402-.022.797.014 1.199-.013.033-.002-.015-.09.038-.096a1.03 1.03 0 01.356.02c.054.013-.018.088.036.1.125.029.26.035.389.021.055-.006-.028-.096.043-.097.486-.01.963-.025 1.454.092.034.008.064.191.135.156.006-.05.005-.11.008-.165.707-.03 1.407.034 2.116.044.03 0-.022-.097.036-.096.336.001.66-.026 1.004.07.034.01.016.18.116.155.018-.005.17-.027.208-.065.005-.005-.022-.085.027-.087.282-.012.578.006.86.055.046.008-.002.093.03.099.23.045.48-.02.7.058.148.052.093.198.171.343.011.02.102.023.107.107.012.212-.032.443-.014.669.004.048.126-.004.054.113-.005.008-.094.047-.116.087-.015.027.013.113-.018.148-.031.035-.065-.037-.117.005-.05.041-.028.139-.13.15zm-28.064-1.35c.081.081.093-.218.005-.147a.847.847 0 00-.005.146zm-9.801.047c.106.132.178-.062.103-.164-.074-.102-.136.124-.103.164zm-1.098.096c.123.104.143-.32.01-.234a1.227 1.227 0 00-.01.234zm38.836-.031a.198.198 0 00.068.004c.035-.095-.096-.103-.069-.004zM2.002 9.16c.038.057.15-.01.102-.08-.039-.058-.15.008-.102.08zm16.215.07c.001.005.048.009.047-.016-.003-.081-.069-.058-.047.017zM.15 9.166c.273.016.44.366.141.326-.054-.007.116-.111.048-.143-.126-.057-.21.163-.338.045-.023-.022.133-.23.149-.229zm13.888.106a.2.2 0 00.068.003c.035-.095-.096-.102-.068-.003zm6.92.144a.525.525 0 00.159.009c.078-.155-.227-.172-.16-.009zM9.66 9.49c-.07.096-.156.107-.212-.013.07.007.141.008.212.013z" fill="#fff"/><path d="M28.221 2.149c-.042-.01-.061-.097-.102-.124-.172-.116-.216-.193-.366-.309-.221-.17-.978-.507-.753-.898a.362.362 0 01.007-.012c.045-.073.152-.119.21-.198.057-.079.363-.626.466-.607.149.031.369.343.439.375.048.022.133.005.196.03.204.08.282.172.528.135l.081.33c.108.018.188.188.245.214.046.02.104-.02.152.003.053.027.097.133.196.177.162.074.274-.056.376-.022.107.036.21.2.361.22l.074-.022.03-.128c.07.018.054.108.11.142.066.04.14-.012.184.014.037.022.054.107.104.13.072.035.103-.055.15-.049.018.003.318.116.334.124.12.064.066.182.154.246.245.176.565.24.825.344.117.047.225.118.323.197-.334.19-.088.627.03.099.082.132.237.06.338.146.066.055.08.146.186.205.188.103.492.043.362.393.25.069.372.293.613.057.066.015.113.265.163.324.047.056.46.394.533.441.072.048.2.127.278.139.097.015.32-.245.264.177.18.066.233.11.362.237.024.023-.002.075.014.085.033.019.111.014.173.043.102.049.096.187.179.018l.24.03.013.132.162-.043c-.176.212.146.212.145.032l.29.36c-.172.259.255.189.314.03l.043.024c.084.143.231.15.356.286.125.135.095.153.07.303l.12.04c.382-.23.013.336.483.262-.02.271.298.305.503.337.024.004.048-.037.081-.035.081.006.213.153.284.016l.102.213.18.006.07-.125c.012.195.188.224.24.3.01.014-.02.073.016.114.041.049.148.087.2.14l.18-.148c.13.029.073.218.13.269.011.009.231.12.245.122.11.026.165-.132.42.055.044.033.055.105.098.132.075.048.372.07.45-.023.02.183.3.274.353.354.015.025-.027.11.031.167.048.046.229.062.293.114.068.055.054.14.085.164.03.022.09-.017.133.008.134.08.204.24.31.302l.005.003.709.456-.71.362c-.15.088-.192.328-.277.474-.038.008-.09-.01-.124.01-.418.232-.903.47-1.339.674-.202.095-.811.146-.468.447-.029.104-.603.234-.698.285-.094.05-.128.16-.2.203-.22.13-.402.17-.636.383-.06.055-.089.177-.13.2-.05.027-.148-.02-.214.012-.159.076-.428.265-.582.336-.028.012-.077-.05-.127-.05-.196.004-.358.107-.205.306-.26-.013-.373.2-.545.308-.366.228-1.074.569-1.348.846-.172.175-.11.27-.46.36-.078.02-.16.033-.253.057-.22.058-.498-.02-.52.278-.243.066-.389.203-.652.109l.02.164-.075.048-.097-.113c-.192.096-.329.405-.487.494-.265.15-.983.473-1.265.56-.15.046-.106.14-.288-.002l-.067.09.014.154c-.17.1-.408.152-.57.247-.294.17-.674.538-1.013.635-.085.024-.227-.006-.299.037-.105.062-.051.216-.184.296-.23.138-.755.225-.967.363-.063.041-.064.11-.106.142-.175.132-.332.216-.467.4-.27-.021-.353-.203-.513-.342-.12-.105-.435-.328-.521-.431-.06-.073-.068-.206-.139-.284.192-.204.335-.183.596-.167l1.038-.616.179.09c.166-.02.151-.178.207-.248.536-.668 2.02-1.239 2.8-1.646.167-.088.664-.46.821-.446.041.003.092.073.125.059l.755-.611c.637-.212 1.171-.646 1.735-.995 1.526-.941 3.03-1.884 4.57-2.745.297-.166.64-.437.95-.568.128-.054.248.037.355-.143l.06.094c.117-.119.163-.243.313-.34.128-.081.47-.285.593-.339.063-.028.076.045.131.013a.314.314 0 00.036-.025v1.056c-.114-.044-.324-.078-.44-.145-.12-.069-.282-.254-.38-.297-.35-.154-.77-.258-1.107-.488-.093-.064-.173-.214-.205-.23-.062-.03-.123.036-.169.023-.231-.067-.496-.34-.694-.458-.642-.385-1.349-.747-1.987-1.132-.403-.244-1.09-.62-1.433-.894-.075-.06-.005-.13-.073-.17-.076-.043-.15-.01-.187-.026-.263-.109-.837-.362-1.035-.553-.037-.036-.032-.12-.058-.135-.014-.007-.07.02-.114 0-.393-.172-.648-.353-1.001-.577-.678-.427-1.53-.807-2.233-1.27-.153-.102-.188-.294-.21-.305-.051-.026-.133.043-.244.008-.37-.12-.762-.468-1.101-.605-.168-.068-.444-.08-.61-.143-.134-.05-.397-.26-.479-.242-.05.01-.119.095-.165.085zm4.948.898c-.108.138.192.144.153.014-.01-.029-.125-.05-.153-.014zm8.408 7.076l.08.125.06-.105-.096-.048-.044.028z" fill="#fff"/></svg>