<svg width="32" height="14" fill="none" xmlns="http://www.w3.org/2000/svg"><path d="M30.705 7.926a1.735 1.735 0 01-.575-.04c-.054-.012-.026-.065-.064-.075-.073-.02-.141.005-.214-.02-.024-.008.006-.092-.02-.099-.137-.037-.267-.015-.407-.033-.687-.088-1.363-.12-2.06-.158-.229-.013-.508-.089-.745-.055-.027.004-.01.077-.016.083-.083.093-.055-.056-.11-.075a1.398 1.398 0 00-.657-.057c-.088.013 0 .159-.088.077-.006-.006.016-.084-.008-.092-.054-.02-.158-.005-.2-.011-.081-.013-.095-.012-.172-.013-.105-.002-.23-.04-.343-.023-.024.004.008.084-.03.098a.317.317 0 01-.175-.012c-.035-.019-.02-.082-.026-.096-.05-.122-.168.047-.183.05-.276.072-.513-.024-.772-.024-.197 0-.407.032-.595.028-.223-.006-.412-.05-.629-.042-.022.001.004.095-.023.096a3.53 3.53 0 01-.887-.063c-.03-.006.008-.089-.022-.1-.18-.068-.468-.232-.575.129-.123-.014-.272-.029-.382-.102-.07-.046-.002-.137-.09-.098-.019.008.007.087-.023.094-.124.03-.259.004-.381.044-.026.009-.019.08-.026.092-.06.104-.158-.067-.18-.08-.164-.092-.283-.055-.436-.058-.036 0 .006.095-.028.098-.177.013-.36.005-.534-.037-.038-.01-.003-.09-.021-.1-.081-.037-.1.116-.177.083-.017-.007-.007-.076-.01-.084-.047-.12-.088.05-.1.054-.153.05-.25-.126-.398-.1-.017.002.023.09-.027.094-.33.024-.68 0-1.006-.07-.051-.011-.015-.077-.018-.085-.052-.127-.086.043-.102.05-.131.045-.253-.097-.342.105-.554-.07-1.105.044-1.654-.138-.007-.002.006-.086-.008-.09-.168-.047-.136.084-.247.243-.027.04-.113-.152-.12-.166-.027-.052.001-.177-.008-.187-.076-.08-.064.333-.166.333-.003 0 .01-.076.001-.084-.026-.023-.053.007-.079-.02-.06-.06-.081-.26-.173-.144-.011.016.007.25-.085.238-.036-.004-.198 0-.243-.015-.045-.016-.014-.09-.017-.094-.122-.1-.076-.141-.137-.289-.06-.147-.044.204-.069.243-.025.039-.114-.043-.136-.072-.022-.028.005-.076-.014-.092-.13-.106-.057.174-.1.23-.1.13-.178-.129-.27-.154-.025-.007-.005.052-.027.057-.087.022-.14-.06-.24.015-.016.012-.097.168-.15.053-.007-.016.014-.08-.023-.095a.368.368 0 00-.216-.015c-.045.016.006.123-.05.09-.025-.015.021-.077-.025-.1a.606.606 0 00-.21-.018c-.045.003-.02.084-.024.09a.312.312 0 01-.116.07c-.385.01-.74-.127-1.115-.082-.03.003-.01.089-.014.09-.101.036-.022-.191-.092-.267.01.173-.031.142-.102.16-.034.01-.016.077-.019.084-.05.102-.086-.03-.095-.057-.034-.099-.07.018-.093-.048-.023-.066.03-.163-.038-.162-.02.062.031.224-.02.25-.195.1-.56-.027-.716-.04-.156-.014-.207-.002-.298-.025-.164-.04-.104.08-.206.135-.103.055-.053-.24-.068-.304-.014-.064-.03.002-.048-.033-.018-.035.02-.079-.021-.092-.042-.013-.158.1-.173.167-.031.14.02.289-.091.237-.006-.003.014-.081-.01-.09-.196-.059-.398-.063-.594-.116-.026-.007-.002-.094-.018-.099-.163-.055-.104.09-.194.253.02-.216-.029-.348-.152-.35-.074 0-.062.094-.11.16-.014.02-.066-.044-.076 0-.031.145.018.307-.11.243-.005-.003.013-.083-.006-.088-.125-.03-.14.12-.275.139-.105.014-.293-.078-.413-.093.002-.243-.111-.187-.158-.02-.078-.007-.162.003-.237-.02-.026-.008-.01-.078-.013-.086-.05-.12-.084.044-.1.05-.183.062-.332-.061-.506.06-.006.004-.016.172-.063.049-.003-.008.055-.085-.027-.091-.082-.006-.237-.096-.35-.018-.028.019-.098.155-.154.048-.007-.014 0-.062-.01-.09-.035-.085-.054.085-.095-.06-.04-.144-.125-.252-.24-.153-.004.003-.031.138-.067.136-.058-.003-.14-.031-.2-.03-.029 0-.01.084-.015.085-.194.047-.332-.027-.54-.06-.037-.006-.147.108-.22.018-.081-.099.002-.51-.184-.412-.075.039-.17.56-.305.29-.26.067-.503-.071-.765.025-.011.004-.049.15-.076.148-.041-.004-.064-.072-.093-.076-.123-.02-.236.037-.355.028-.045-.003-.029-.073-.083-.077-.053-.004-.09.089-.162.044-.055-.034-.11-.224-.183-.246-.003.187-.053.183-.142.233-.017.01.002.074-.007.082-.033.034-.063-.02-.094.016-.008.009-.008.073-.014.084-.053.094-.14-.05-.156-.075-.057-.095-.084-.012-.128-.05-.044-.037.022-.083-.03-.106-.106-.047-.242-.037-.35-.04-.043 0-.014.085-.02.087-.09.021-.18-.07-.229.1-.062-.439-.054.043-.181-.045-.01-.007-.023-.215.016-.245.038-.03.097.034.15-.013.013-.011.085-.206.095-.218.078-.092.089.219.093.236.046.183.135-.026.158-.04.107-.067.198-.023.287-.07.058-.031.064-.234.11-.228.152.02.206.304.35.058.03-.052 0-.274.11-.1.007.011.089.17.136.07.006-.013.006-.078.014-.083.052-.035.087.016.145-.008.057-.025.126-.062.191-.04.04.013.09.134.109.163.053.085.11-.054.143.049.033.103-.032.26.056.327.003-.168.01-.34.015-.51.192.007.38.061.571.054.024-.002 0-.092.025-.095.108-.015.202.05.313.024.087-.02.181-.116.272-.14.055.192.189.127.286.145.034.006.032.057.056.074.092.062.049-.108.074-.135.107-.114.117.27.243.261.007 0 .09-.205.1-.218.072-.083.013.071.057.086.083.028.14.077.236.017.028-.018.096-.146.15-.047.007.013.003.081.01.085.104.066.106-.147.166-.219.06-.072.152.075.171.117.05.11-.038.047-.04.058-.032.128.036.106.087.117.008.209.08.196.054.01-.003-.02-.043 0-.054-.01.045-.205.125-.231.212-.04.04.09.002.195.126.156.057-.017.035-.16.085-.2.113-.09.26.045.378.023.042-.007.001-.086.03-.094.077-.021.145.038.223.008.007-.003-.01-.086.014-.087.182-.01.341.043.532.045.092 0 .257-.045.352-.036.165.016.369.135.51.106.092-.018.072-.1.111-.157.077-.109.211.086.23.116 0 .001-.08.02-.037.063.025.088.036-.062.037-.063.012.02.17.039.201.023.017-.009.008-.087.017-.09a1.3 1.3 0 01.638-.053c.004.002-.001.089.007.092.125.038.204-.068.307-.132.103-.063.184-.042.245.108.077-.019.188.047.252.088.064.04.072-.13.078-.134.175-.107.277-.01.459.005.086.008.258-.017.351-.036.074-.015.119.025.187 0 .01-.004 0-.08.003-.082.076-.09.04.094.055.127.057.12.092.185.19.128.022-.013.087-.28.128-.295.054-.02.034.076.09.053.004-.002.003-.061.038-.059.16.012.333.046.5.04.022 0-.007-.094.026-.096a1.37 1.37 0 01.472.036c.037.01.014.076.022.096.049.117.119-.054.13-.057.274-.082.484.073.764 0 .015-.005.132-.188.184-.031.004.01.056.17.101.061.003-.007-.03-.09.027-.081.056.008.147-.047.224.044.025.029.082.189.155.061.005-.009.118-.298.158-.098.007.032 0 .243.087.135.016-.02-.014-.068.03-.097.067-.046.156.01.239-.083.014-.017.075-.16.125-.051.007.017-.007.087.019.095.123.038.253-.01.378.04.044.017.022.13.068.161.046.03.14.06.188.008.048-.052-.005-.234.068-.248.316-.063.628.043.943.059.047.002.008-.063.077-.064.254-.005.693-.066.913.072.176.11-.046.195.09.24.064.021.135-.19.15-.196.154-.068.26.026.399-.003.028-.006 0-.091.025-.096.083-.014.17.024.25.017.035-.004.028-.069.06-.064a.44.44 0 01.225.1c.007.006-.04.087.018.09.093.005.21.065.318.003.032-.02.033-.168.102-.065.014.021-.004.2.076.046.013-.026.148-.235.214-.1.017.035.062.182.1.159.006-.004-.015-.084.017-.092.112-.026.23-.018.345-.043.031-.007-.015-.09.031-.097.127-.021.284 0 .408.026.046.01.014.078.017.086.054.122.085-.043.103-.052.11-.057.194.02.295 0 .028-.006.008-.084.014-.091.058-.069.015.072.051.087a.65.65 0 00.32.028c.039-.004-.004-.095.03-.097.202-.016.412-.007.61.043.037.01.014.08.021.096.054.111.132-.041.15-.056.082-.066.113-.004.186-.016.353-.057.789-.016 1.122.01.434.032.771.098 1.185.081.027-.001 0-.094.023-.096.293-.022.581.014.875-.013.024-.002-.011-.09.028-.096a.555.555 0 01.26.02c.039.013-.014.088.026.1.091.029.19.035.284.021.04-.006-.02-.096.031-.097.355-.01.703-.025 1.062.092.025.008.046.191.098.156.004-.05.004-.11.006-.165.516-.03 1.027.034 1.545.044.022 0-.016-.097.027-.096.244.001.482-.026.732.07.025.01.012.18.085.155.013-.005.123-.027.152-.065.004-.005-.016-.085.02-.087.206-.012.422.006.628.055.033.008-.002.093.021.099.168.045.351-.02.512.058.107.051.067.198.124.343.008.02.075.023.078.107.01.212-.023.443-.01.668.003.049.092-.003.04.114-.004.008-.069.047-.085.087-.01.027.009.113-.014.148-.022.035-.047-.037-.085.005-.037.042-.02.139-.095.15zm-20.49-1.35c.06.081.068-.218.004-.147a1.145 1.145 0 00-.004.146zm-7.155.047c.077.131.13-.063.075-.164-.054-.102-.099.124-.075.164zm-.802.096c.09.104.104-.32.008-.235a1.677 1.677 0 00-.008.235zm28.354-.031c0 .004.048.008.05.004.025-.095-.07-.103-.05-.004zm-29.15.136c.028.057.11-.01.075-.08-.029-.058-.11.008-.075.08zm11.838.07c.002.005.036.009.035-.016-.002-.081-.05-.058-.035.017zM.11 6.83c.2.016.32.366.103.326-.04-.007.085-.111.035-.143-.092-.057-.153.163-.246.045-.017-.022.097-.23.108-.229zm10.14.106c0 .004.048.007.05.003.025-.095-.07-.102-.05-.003zm5.051.144a.283.283 0 00.117.009c.057-.155-.166-.172-.117-.009zm-8.248.074c-.052.096-.114.107-.155-.013.051.007.103.008.155.013z" fill="#fff"/><path d="M20.468 1.942c-.033-.005-.038-.083-.067-.104-.123-.088-.15-.155-.255-.246-.157-.134-.72-.36-.496-.751a.388.388 0 01.007-.012c.045-.073.136-.128.191-.209.055-.08.364-.626.445-.62.114.013.253.278.305.3.036.015.105-.01.153.005.153.051.204.129.405.066l.027.298c.083.004.127.154.17.171.034.015.085-.03.12-.013.04.018.062.112.136.142.12.05.225-.084.303-.064.08.021.143.163.262.163l.061-.028.039-.123c.054.009.03.094.071.12.048.03.113-.027.146-.008.026.016.03.093.067.11.053.024.089-.064.125-.063.014 0 .24.07.252.077.088.046.031.162.094.211.175.137.422.16.618.227.088.03.166.084.234.147-.288.214-.144.595.012.088.05.114.182.03.253.098.046.044.047.127.124.17.138.074.388-.016.243.325.191.035.262.23.482-.018.05.007.06.235.092.284.031.047.321.315.373.35.052.037.145.096.206.098.075.003.284-.265.19.135.135.042.172.076.26.18.017.019-.01.07.001.077.024.014.087 0 .133.021.076.034.055.164.14-.004h.189l-.005.122.134-.059c-.165.219.091.182.112.013l.189.304c-.168.26.181.146.247-.01l.031.019c.05.124.167.114.25.226.084.111.059.131.021.274l.091.024c.332-.258-.03.312.355.189-.048.255.201.25.36.257.02 0 .043-.04.07-.042.064-.004.152.117.224-.018.02.062.038.124.057.187l.142-.015.072-.124c-.014.18.123.187.156.25.006.014-.024.072-.001.106.027.04.107.065.142.108l.162-.16c.1.013.032.196.072.237.008.007.17.085.18.086.085.011.148-.142.329.003.032.026.032.091.063.112.054.036.289.022.362-.073-.006.169.207.221.24.29.01.02-.035.105.005.152.032.037.175.032.22.072.048.044.027.124.049.143.02.018.074-.025.105-.007.097.059.134.2.211.247l.004.002.703.472-.703.345c-.11.065-.115.284-.166.41-.03.003-.073-.02-.098-.006-.305.17-.664.337-.988.476-.15.066-.63.044-.32.364-.012.094-.455.148-.524.185-.07.037-.084.135-.137.167-.159.095-.3.112-.461.284-.042.044-.05.155-.08.171-.037.02-.12-.035-.17-.013-.118.053-.31.198-.425.247-.02.008-.067-.055-.107-.06-.156-.02-.273.057-.127.26-.21-.042-.274.144-.399.226-.264.17-.79.407-.975.635-.117.143-.057.238-.326.282-.06.01-.122.013-.194.025-.17.028-.4-.077-.382.2-.187.033-.287.143-.508.026l.036.155-.055.037-.09-.117c-.143.067-.215.34-.33.405-.194.11-.729.328-.944.377-.114.026-.068.119-.23-.035l-.043.077.03.145c-.124.073-.308.096-.426.165-.215.126-.475.424-.734.476-.065.013-.18-.031-.234 0-.076.046-.015.196-.112.255-.167.102-.575.123-.729.228-.045.031-.037.096-.067.12-.124.103-.24.164-.326.32-.218-.05-.305-.23-.45-.378-.108-.111-.385-.356-.466-.462-.057-.075-.078-.2-.144-.28.13-.17.245-.133.455-.088l.756-.456.154.105c.13 0 .1-.149.136-.207.349-.563 1.465-.925 2.039-1.215.123-.063.476-.353.603-.322.033.008.082.079.107.07l.53-.484c.483-.125.858-.469 1.267-.729 1.106-.703 2.196-1.41 3.322-2.037.217-.12.459-.335.69-.42.098-.036.204.062.268-.094l.06.095c.078-.097.1-.208.209-.281.092-.061.341-.212.433-.248.047-.02.065.05.106.027a.17.17 0 00.025-.02v1.056c-.085-.029-.25-.036-.334-.086-.088-.05-.194-.204-.267-.233-.262-.104-.585-.152-.826-.329-.067-.048-.113-.18-.137-.19-.046-.02-.103.048-.137.04-.177-.036-.356-.26-.5-.347-.467-.285-.988-.542-1.452-.828-.293-.181-.796-.454-1.038-.67-.052-.046.011-.12-.038-.15-.056-.031-.118.008-.146-.003-.198-.071-.625-.242-.76-.397-.026-.03-.012-.108-.031-.119-.01-.006-.058.026-.091.013-.293-.116-.475-.255-.731-.423-.49-.322-1.125-.578-1.631-.93-.11-.077-.116-.252-.133-.26-.037-.018-.11.056-.195.035-.282-.068-.553-.348-.807-.437-.126-.044-.345-.024-.47-.064-.1-.032-.286-.196-.353-.17-.041.015-.107.102-.142.097zm3.842.27c-.103.142.136.113.12-.003-.004-.027-.093-.033-.12.004zm6.098 5.438l.078.125.035-.09-.081-.057-.032.022z" fill="#fff"/></svg>