<svg width="39" height="221" fill="none" xmlns="http://www.w3.org/2000/svg"><path d="M17.288 215.924c-.063-1.222.004-2.823.095-4.04.029-.382.156-.189.181-.452.05-.515-.013-.995.046-1.504.02-.168.221.042.238-.135.089-.969.038-1.886.08-2.867.211-4.836.287-9.589.378-14.483.03-1.614.213-3.575.133-5.242-.01-.195-.186-.079-.2-.116-.223-.581.133-.387.18-.767.188-1.504.204-3.178.136-4.626-.03-.616-.38.002-.184-.619.014-.043.201.114.221-.055.045-.383.012-1.11.026-1.407.03-.573.028-.667.03-1.209.005-.74.098-1.62.055-2.414-.01-.169-.201.055-.234-.215-.033-.271-.016-.986.029-1.228.045-.241.196-.138.23-.181.293-.351-.112-1.179-.122-1.286-.17-1.942.06-3.607.06-5.43-.001-1.384-.077-2.864-.067-4.18.013-1.569.117-2.899.1-4.423-.002-.161-.228.028-.23-.169-.027-2.087-.002-4.16.15-6.238.016-.208.214.061.241-.148.164-1.275.555-3.292-.309-4.049.034-.863.069-1.912.243-2.684.112-.498.328-.015.236-.626-.02-.138-.21.041-.226-.166-.07-.871-.008-1.823-.106-2.685-.02-.175-.19-.128-.22-.177-.248-.418.161-1.113.191-1.264.221-1.154.134-1.997.14-3.071.001-.25-.227.045-.234-.195a34.984 34.984 0 01.088-3.753c.023-.271.218-.022.238-.151.09-.572-.276-.698-.197-1.246.016-.116.182-.051.2-.072.287-.329-.119-.616-.128-.701-.122-1.073.302-1.758.241-2.795-.007-.124-.217.156-.226-.193-.058-2.322 0-4.777.168-7.076.026-.357.184-.102.203-.125.305-.366-.103-.603-.118-.72-.11-.919.23-1.778-.255-2.402.169-3.893-.104-7.769.331-11.629.005-.05.206.038.215-.059.113-1.18-.2-.953-.58-1.734-.096-.196.364-.794.398-.847.124-.193.423.007.447-.057.19-.534-.798-.447-.799-1.168.002-.022.184.072.202.012.057-.188-.016-.374.047-.558.145-.421.625-.571.345-1.214-.036-.081-.596.043-.57-.6.011-.256.002-1.392.038-1.71.036-.318.217-.1.225-.122.238-.856.337-.532.69-.96.353-.43-.487-.31-.58-.485-.094-.175.103-.803.171-.957.069-.155.183.038.222-.1.253-.908-.417-.398-.55-.698-.315-.706.307-1.256.368-1.903.017-.175-.125-.032-.138-.188-.05-.617.143-.988-.035-1.69-.029-.114-.403-.682-.128-1.049.04-.052.194.096.23-.167.051-.393.085-1.1.033-1.523-.038-.312-.294.046-.214-.347.035-.174.185.15.239-.178.054-.326.047-1.16.042-1.477-.005-.316-.199-.143-.212-.168-.075-.155-.168-.762-.168-.816-.024-2.707.303-5.204.195-7.84-.008-.207-.213-.069-.216-.1-.086-.708.458-.15.64-.645-.415.072-.34-.22-.386-.72-.022-.24-.182-.109-.199-.13-.244-.357.071-.605.136-.67.237-.235-.043-.492.115-.653.158-.16.391.21.388-.27-.149-.133-.537.222-.6-.141-.238-1.37.067-3.929.099-5.03.031-1.1.004-1.456.057-2.096.098-1.158-.19-.734-.322-1.452-.132-.721.577-.37.729-.474.152-.102-.005-.213.08-.34.083-.126.186.147.218-.15.031-.296-.24-1.108-.399-1.213-.337-.222-.692.144-.567-.642.007-.045.194.102.212-.071.144-1.374.153-2.8.28-4.172.017-.189.225-.02.237-.13.133-1.144-.217-.735-.605-1.361.517.14.833-.206.836-1.074.002-.522-.224-.432-.383-.77-.048-.1.107-.47.001-.536-.347-.221-.735.127-.58-.768.007-.04.197.086.208-.05.076-.877-.287-.982-.331-1.93-.035-.742.186-2.063.222-2.91.581.019.448-.78.048-1.104.016-.55-.006-1.142.049-1.673.019-.182.187-.062.205-.085.285-.353-.104-.592-.12-.71-.148-1.285.147-2.33-.142-3.556-.01-.044-.414-.114-.119-.442.02-.021.204.383.218-.193.014-.577.23-1.663.044-2.464-.045-.194-.373-.684-.117-1.077.035-.052.15.005.215-.07.205-.245-.203-.379.144-.666.347-.287.606-.885.367-1.692-.007-.026-.33-.217-.325-.471.008-.405.076-.98.073-1.404 0-.202-.201-.073-.205-.108-.113-1.362.066-2.332.144-3.791.015-.268-.26-1.036-.043-1.554.237-.57 1.223.015.988-1.292-.094-.527-1.344-1.195-.696-2.142-.16-1.838.17-3.537-.058-5.38-.01-.083-.36-.345-.355-.54.008-.289.17-.447.182-.654.049-.865-.09-1.657-.07-2.491.009-.317.177-.206.187-.584.01-.378-.213-.63-.106-1.141.082-.386.536-.773.589-1.286-.448-.02-.439-.372-.557-.998-.023-.12-.179.009-.198-.048-.08-.232.05-.446-.038-.666-.021-.054-.174-.056-.2-.1-.225-.372.119-.985.179-1.09.227-.404.028-.592.118-.902.09-.309.202.153.256-.207.112-.749.088-1.71.095-2.47.002-.303-.203-.096-.207-.14-.052-.626.165-1.26-.241-1.608 1.051-.434-.102-.378.108-1.274.017-.07.514-.16.587.111.073.271-.082.682.032 1.058.026.089.492.599.52.668.221.545-.522.623-.563.652-.44.327.062.95.096 1.114.16.75.055 1.389.168 2.017.074.41.56.45.545.773-.049 1.072-.728 1.446-.14 2.457.126.216.658 0 .24.777-.026.049-.409.625-.167.958.03.042.186.04.199.096.084.37-.04.616.02 1.018.059.403.147.887.094 1.347-.031.277-.32.632-.39.765-.204.374.13.776-.117 1.008-.248.234-.624-.224-.785.39.403.023.817.075 1.222.111-.015 1.345-.145 2.667-.127 4.016.002.167.22-.004.227.176.035.756-.12 1.417-.058 2.2.048.608.278 1.274.335 1.909-.46.387-.304 1.33-.346 2.014-.015.24-.138.223-.178.394-.149.643.259.342.323.518.273.756-.648.821-.626 1.713.001.047.493.625.523.704.2.506-.17.084-.207.4-.066.578-.184.98-.04 1.657.043.198.349.672.112 1.055-.03.05-.193.023-.203.063-.158.736.352.755.525 1.176.173.42-.18 1.07-.281 1.201-.263.346-.113-.265-.138-.283-.307-.22-.254.253-.28.615-.5.052-.47.558-.025.375.049-.02.002-.302.025-.375.49.318.554.874.095 1.488-.215.287-.466.016-.374.889.041.396.386.243.48.593.214.799-.107 1.837-.057 2.66.019.3.207.008.226.213.052.542-.09 1.02-.017 1.565.006.05.204-.071.206.098.023 1.284-.103 2.402-.107 3.742-.001.648.108 1.806.086 2.477-.037 1.163-.324 2.593-.254 3.587.044.648.242.505.376.783.261.536-.206 1.484-.279 1.612-.002.003-.048-.554-.15-.257-.211.173.15.25.15.257-.046.083-.091 1.197-.053 1.418.02.12.207.053.215.116.167 1.49.215 2.981.127 4.491-.004.027-.213-.013-.22.05-.092.874.164 1.434.316 2.155.152.721.1 1.293-.258 1.72.045.544-.114 1.324-.21 1.774-.097.449.31.511.319.55.257 1.234.024 1.946-.012 3.225-.018.608.041 1.814.086 2.472.036.52-.06.834.001 1.314.008.064.19-.001.197.019.217.535-.227.278-.306.388-.288.4-.441.648-.306 1.333.031.158.67.618.707.906.047.375-.181.234-.126.626.004.033.146.026.14.269-.028 1.123-.11 2.348-.096 3.516.002.159.226-.045.231.185.027 1.081.019 2.266-.086 3.32-.027.259-.184.096-.23.153-.282.345.128.835.135.916.197 1.929-.173 3.405.003 5.37.01.108.45.931.073 1.299-.025.025-.41.389-.147.71.017.02.215-.206.195.189-.02.395.112 1.031-.106 1.575-.069.172-.453.579-.147 1.092.022.033.714.825.236 1.108-.078.046-.584-.002-.325.611.05.117.164-.096.234.213.108.472-.027 1.098.198 1.679.04.101.383.532.123.878-.041.054-.21-.049-.229.134-.09.868.023 1.777-.094 2.659-.041.312-.314.153-.387.478-.073.326-.143.982-.019 1.323.125.34.56-.032.594.479.151 2.219-.104 4.417-.14 6.633-.006.329.15.056.152.541.012 1.786.157 4.869-.173 6.418-.265 1.242-.466-.321-.574.628-.051.458.454.953.47 1.064.162 1.079-.062 1.83.006 2.801.015.201.22.004.23.175.035.583-.057 1.196-.04 1.754.008.25.165.204.152.434a7.05 7.05 0 01-.239 1.574c-.013.049-.208-.281-.215.127-.011.659-.156 1.477-.007 2.236.045.225.403.234.156.717-.052.102-.481-.028-.11.536.062.095.562 1.041.24 1.506-.085.123-.437.435-.382.706.01.037.201-.11.22.114.063.79.042 1.619.102 2.431.017.217.216-.106.234.217.05.889 0 1.998-.063 2.867-.023.321-.188.099-.206.122-.291.375.102.597.125.721.138.774-.047 1.364.002 2.077.013.197.2.057.217.096.163.407-.174.104-.21.361-.106.721-.09 1.524-.067 2.253.01.268.227-.033.232.207a38.8 38.8 0 01-.103 4.288c-.023.261-.19.097-.229.151-.267.376.098.926.133 1.052.159.576.01.799.038 1.308.138 2.482.04 5.548-.021 7.892-.078 3.054-.237 5.423-.196 8.336.002.185.225-.002.23.158.054 2.06-.033 4.088.031 6.152.005.169.216-.075.231.197.032.558.02 1.264-.047 1.828-.032.275-.213-.094-.242.183a13.032 13.032 0 00-.05 1.997c.015.282.231-.143.234.223.021 2.495.059 4.945-.221 7.465-.02.173-.458.325-.374.692.122.028.265.026.395.039.07 3.631-.082 7.225-.105 10.867-.001.154.231-.112.23.185-.003 1.721.062 3.392-.17 5.151-.022.175-.431.085-.37.6.012.091.066.866.155 1.066.014.027.205-.114.21.136a44.755 44.755 0 01-.131 4.42c-.02.234-.223-.015-.238.152-.108 1.181.047 2.466-.138 3.595-.125.755-.476.476-.822.877-.05.057-.057.525-.258.549-.506.062-1.06-.164-1.6-.071-.117.019.008.646-.273.275-.018-.026-.112-.48-.207-.592-.066-.078-.27.062-.355-.097-.084-.159.087-.333-.012-.597-.1-.263-.333-.147-.36-.673zm3.236-144.087c-.196.416.52.477.35.028-.01-.022-.34-.05-.35-.028zm-.113-50.321c-.316.544.148.916.392.532.244-.384-.297-.698-.392-.532zm-.231-5.638c-.25.635.767.735.561.054-.011-.04-.547-.092-.561-.055zm.074 199.39c-.01.006-.019.342-.01.35.228.179.247-.493.01-.35zM19.93 10.282c-.138.199.021.77.192.524.137-.199-.021-.77-.192-.524zm-.17 83.25c-.01.007-.02.249.04.244.195-.017.14-.352-.04-.243zM19.917.774c-.038 1.405-.878 2.257-.783.727.017-.277.268.597.343.244.138-.645-.389-1.073-.106-1.732.052-.12.55.68.547.763V.773zm-.254 71.303a2.17 2.17 0 00-.009.35c.228.181.246-.491.01-.35zm-.347 35.527c-.02.018-.039.793-.02.818.372.404.41-1.162.02-.818zm-.177-58.006c-.229-.365-.256-.8.032-1.09-.016.361-.018.726-.032 1.09z" fill="#fff"/><path d="M33.173 188.713c.018-.088.213-.115.27-.199.243-.348.415-.43.659-.732.363-.446 1.028-2.008 1.963-1.468l.028.017c.175.108.298.344.488.479.191.134 1.5.871 1.471 1.09-.051.311-.739.732-.803.877-.043.099.009.282-.04.413-.153.424-.356.575-.235 1.107l-.747.122c-.026.226-.407.371-.458.488-.042.096.06.226.013.323-.053.11-.29.188-.38.392-.146.334.17.592.106.806-.066.222-.431.416-.453.736l.062.16.299.084c-.032.149-.241.1-.311.213-.082.134.046.3-.007.391-.044.075-.238.098-.285.2-.07.148.143.23.135.327-.003.039-.22.662-.236.695-.131.245-.411.112-.545.29-.372.496-.471 1.168-.674 1.708a2.2 2.2 0 01-.408.657c-.485-.741-1.46-.284-.223.048-.294.157-.104.497-.287.7-.118.131-.326.149-.446.365-.211.384-.028 1.042-.854.711-.123.523-.622.748-.041 1.298-.026.138-.597.201-.726.298-.121.092-.842.922-.94 1.069-.098.147-.264.408-.28.571-.02.204.614.72-.37.537-.126.373-.218.479-.493.735-.05.047-.175-.017-.194.016-.04.068-.016.235-.075.362-.097.21-.418.176-.015.379l-.032.507-.305.008.124.352c-.516-.408-.469.279-.053.305l-.79.562c-.62-.406-.397.516-.02.667l-.052.086c-.317.157-.313.472-.607.716-.294.245-.34.18-.688.104l-.076.249c.586.85-.774-.026-.533.989-.63-.083-.662.589-.706 1.021-.005.05.094.107.093.178-.002.172-.32.431.005.603l-.475.185.01.382.3.171c-.448-.007-.49.365-.655.465-.034.02-.174-.053-.264.016-.105.08-.179.301-.294.403l.37.41c-.048.273-.494.121-.602.236-.02.02-.242.472-.247.501-.043.231.33.373-.064.887-.07.091-.235.103-.291.189-.1.153-.107.784.119.964-.42.013-.59.598-.766.698-.054.029-.257-.074-.38.042-.1.093-.11.477-.22.606-.117.136-.314.095-.366.157-.048.058.051.195 0 .283-.164.272-.523.397-.652.612l-.006.01-1.11 1.687-.847-1.687c-.182-.309-.73-.359-1.054-.519-.012-.08.036-.193-.003-.262a37.808 37.808 0 01-1.362-2.752c-.188-.417-.217-1.708-.963-.928-.236-.047-.45-1.253-.554-1.445-.104-.193-.352-.25-.44-.398-.267-.446-.334-.829-.79-1.296-.118-.12-.396-.161-.442-.246-.055-.103.066-.318.003-.455-.154-.327-.55-.872-.69-1.19-.025-.058.125-.17.13-.277.023-.418-.19-.749-.672-.39.068-.559-.407-.765-.632-1.116-.474-.744-1.156-2.203-1.757-2.743-.379-.34-.604-.195-.76-.928-.035-.162-.054-.333-.097-.53-.1-.461.121-1.066-.566-1.065-.116-.509-.41-.799-.154-1.375l-.383.07-.1-.154.275-.225c-.193-.395-.885-.638-1.068-.961-.307-.542-.947-2.024-1.106-2.613-.085-.313-.31-.203.045-.615L4.724 196l-.358.055c-.205-.346-.292-.846-.485-1.177-.352-.603-1.144-1.356-1.319-2.064-.043-.178.047-.484-.04-.632-.13-.215-.492-.076-.658-.347-.284-.469-.407-1.576-.696-2.007-.085-.128-.245-.119-.311-.203-.28-.353-.452-.675-.857-.935.09-.581.521-.784.866-1.147.26-.274.82-.98 1.072-1.179.176-.14.486-.177.675-.339.444.378.373.685.297 1.244l1.272 2.119-.236.396c.024.351.39.295.542.404 1.466 1.04 2.565 4.116 3.391 5.716.178.344.965 1.346.91 1.684-.015.088-.185.208-.156.276l1.3 1.516c.396 1.325 1.32 2.397 2.04 3.547 1.95 3.109 3.907 6.172 5.668 9.321.34.609.916 1.298 1.171 1.939.107.267-.12.535.28.736l-.226.144c.257.229.537.308.738.615.169.259.588.958.695 1.211.056.131-.115.169-.048.283a.667.667 0 00.052.072h-2.528c.086-.236.134-.68.272-.918.14-.244.545-.56.63-.762.304-.725.482-1.604.964-2.286.134-.189.47-.336.5-.402.06-.128-.102-.269-.078-.364.122-.484.712-1.007.956-1.409.794-1.311 1.526-2.762 2.322-4.064.503-.822 1.271-2.228 1.853-2.92.126-.149.3.011.38-.129.09-.154.003-.316.034-.395.213-.544.714-1.727 1.125-2.12.078-.075.272-.05.303-.105.015-.027-.056-.15-.017-.242.34-.812.72-1.327 1.185-2.047.888-1.378 1.639-3.137 2.607-4.565.21-.312.648-.356.671-.403.052-.104-.119-.288-.053-.521.22-.772.967-1.553 1.234-2.255.131-.346.119-.935.24-1.28.098-.276.541-.805.49-.983-.032-.107-.239-.268-.22-.365zm-1.349 10.416c-.334-.251-.304.388-.01.324.066-.014.097-.258.01-.324zm-14.846 17.134l-.3.191.234.11.126-.21a6.244 6.244 0 00-.06-.091z" fill="#fff"/></svg>