<svg width="71" height="20" fill="none" xmlns="http://www.w3.org/2000/svg"><path d="M68.343 11.164c-.387.04-.894-.002-1.279-.06-.12-.017-.06-.097-.143-.113-.163-.03-.315.008-.476-.028-.053-.013.013-.14-.043-.15-.306-.055-.597-.023-.907-.05-1.53-.132-3.035-.18-4.584-.236-.51-.02-1.132-.134-1.66-.084-.061.006-.024.117-.036.126-.184.14-.123-.084-.243-.113-.476-.117-1.006-.128-1.464-.085-.195.018 0 .238-.196.115-.013-.009.036-.126-.017-.138-.122-.029-.352-.008-.446-.017-.18-.018-.21-.017-.382-.018-.234-.003-.513-.062-.764-.035-.054.006.017.126-.069.147-.085.02-.312.01-.388-.018-.076-.029-.044-.123-.057-.145-.112-.183-.374.07-.407.077-.615.106-1.142-.038-1.72-.037-.437 0-.905.048-1.322.041-.497-.008-.918-.073-1.4-.062-.051.001.009.143-.054.144a11.66 11.66 0 01-1.974-.094c-.066-.01.02-.134-.047-.151-.403-.103-1.042-.348-1.281.193-.274-.021-.605-.043-.85-.152-.158-.07-.005-.205-.198-.148-.044.013.013.132-.053.142-.275.043-.577.005-.85.066-.055.013-.04.12-.056.138-.132.155-.352-.1-.4-.12-.365-.138-.631-.084-.972-.087-.079 0 .015.142-.061.146a5.62 5.62 0 01-1.188-.055c-.086-.014-.007-.136-.048-.15-.18-.055-.22.174-.394.124-.037-.01-.016-.114-.023-.125-.104-.18-.195.075-.222.08-.34.077-.556-.188-.884-.15-.04.004.049.136-.062.14a11.82 11.82 0 01-2.24-.104c-.112-.016-.032-.115-.039-.127-.116-.19-.19.064-.228.074-.29.07-.563-.145-.76.159-1.232-.106-2.459.065-3.68-.207-.017-.003.011-.129-.02-.135-.373-.07-.301.125-.548.364-.062.06-.252-.228-.268-.25-.061-.078.002-.264-.019-.28-.169-.118-.141.5-.37.5-.006 0 .024-.114.005-.126-.06-.035-.119.01-.177-.03-.133-.09-.18-.39-.384-.215-.026.022.013.373-.19.356-.081-.006-.44 0-.541-.023-.1-.023-.032-.136-.039-.14-.271-.15-.168-.212-.304-.433-.136-.22-.098.305-.153.364-.056.058-.255-.065-.303-.108-.05-.043.012-.115-.032-.14-.287-.158-.126.262-.22.345-.224.198-.398-.192-.603-.23-.055-.01-.01.078-.06.087-.195.031-.312-.09-.534.021-.037.018-.216.253-.333.08-.016-.024.03-.121-.052-.143a1.197 1.197 0 00-.482-.021c-.1.024.014.184-.11.134-.055-.022.047-.116-.057-.15-.103-.034-.367-.03-.467-.026-.1.003-.045.124-.053.133a.853.853 0 01-.259.105c-.857.015-1.647-.19-2.481-.122-.065.005-.022.133-.032.135-.224.054-.047-.287-.204-.4.023.26-.07.212-.227.24-.077.015-.035.115-.042.125-.113.153-.191-.044-.212-.084-.074-.149-.156.027-.207-.073-.05-.098.067-.244-.085-.243-.042.093.07.337-.045.376-.434.149-1.243-.042-1.592-.062-.348-.02-.46-.002-.663-.036-.367-.06-.232.12-.46.202-.228.083-.117-.36-.15-.456-.032-.096-.067.002-.107-.05-.04-.052.046-.117-.048-.137-.094-.02-.35.15-.384.25-.07.211.046.433-.203.355-.014-.005.032-.121-.023-.133-.434-.09-.886-.095-1.32-.175-.06-.011-.006-.14-.041-.149-.362-.083-.233.136-.431.38.045-.324-.065-.522-.34-.524-.165-.002-.137.14-.243.24-.032.03-.15-.068-.17-.001-.07.217.04.46-.243.364-.013-.005.027-.124-.016-.131-.278-.047-.31.18-.61.207-.236.022-.654-.117-.922-.14.006-.363-.247-.28-.35-.029-.173-.01-.361.004-.529-.03-.058-.012-.02-.118-.027-.13-.112-.178-.187.066-.225.076-.406.093-.737-.092-1.125.089-.014.006-.036.26-.14.075-.007-.013.121-.128-.061-.137-.183-.009-.527-.144-.78-.027-.061.028-.216.233-.34.073-.018-.022 0-.095-.023-.135-.078-.128-.12.127-.21-.09-.092-.217-.281-.38-.537-.23-.008.005-.068.207-.149.204-.128-.005-.31-.048-.444-.046-.064 0-.023.126-.034.128-.431.07-.738-.041-1.2-.09-.085-.009-.328.162-.492.027-.18-.148.005-.766-.409-.619-.167.06-.378.842-.678.437-.581.1-1.12-.108-1.703.036-.026.006-.109.225-.17.222-.092-.005-.142-.107-.207-.114-.274-.03-.525.057-.79.043-.1-.005-.064-.11-.184-.116-.12-.006-.199.133-.361.066-.122-.051-.245-.336-.407-.369-.006.28-.118.275-.316.349-.038.014.003.112-.015.124-.073.05-.141-.03-.21.024-.018.013-.019.109-.032.125-.118.14-.312-.074-.346-.112-.127-.142-.187-.018-.285-.074-.098-.056.049-.126-.066-.16-.236-.07-.54-.055-.781-.06-.096 0-.03.127-.044.13-.199.032-.4-.104-.51.151-.137-.658-.12.064-.403-.068-.022-.01-.05-.322.035-.368.086-.045.216.052.335-.02.028-.016.19-.308.212-.325.172-.138.197.327.206.352.103.276.3-.038.353-.06.237-.1.44-.034.638-.105.13-.046.143-.35.245-.341.339.03.457.456.777.087.069-.079 0-.412.246-.15.016.017.198.256.304.105.013-.02.012-.116.03-.124.117-.053.195.024.322-.013.128-.037.28-.092.426-.06.088.02.2.201.243.246.118.127.245-.082.319.072.074.156-.071.391.123.492.007-.252.024-.511.035-.765.426.009.844.09 1.271.08.053-.002 0-.138.056-.143.24-.022.448.075.697.036.192-.03.402-.173.603-.21.123.289.421.191.638.217.076.01.07.087.125.112.203.093.108-.162.164-.202.24-.172.26.406.542.391.015 0 .198-.308.223-.327.16-.125.026.107.126.13.183.041.31.115.525.025.062-.027.212-.219.334-.07.016.019.007.12.02.127.233.099.239-.22.372-.329.133-.108.338.112.38.176.11.165-.084.07-.09.086-.07.193.08.16.195.176.017.313.177.294.119.015-.007-.03-.096-.001-.119-.015.1-.308.277-.347.471-.06.091.135.005.292.281.234.126-.026.077-.241.188-.3.253-.134.582.067.842.035.095-.011.003-.13.067-.141.172-.032.323.056.496.01.015-.003-.023-.127.03-.129.407-.014.761.065 1.185.067.205.001.572-.067.784-.053.368.023.821.203 1.135.16.206-.029.16-.153.248-.237.17-.163.47.13.51.175.002.001-.175.03-.08.094.054.132.078-.094.08-.094.027.029.38.057.45.033.038-.012.016-.13.036-.134a4.26 4.26 0 011.422-.08c.008.002-.005.133.015.137.277.059.454-.102.682-.197.229-.095.41-.063.545.162.172-.028.42.071.561.131.142.06.162-.194.175-.2.39-.16.616-.015 1.02.008.193.011.574-.026.783-.054.165-.022.264.038.415 0 .021-.006 0-.12.007-.124.169-.136.087.142.122.192.127.18.206.276.422.191.05-.02.196-.42.287-.442.119-.03.074.113.198.078.01-.002.009-.09.085-.087.356.017.744.069 1.113.06.05-.001-.014-.141.059-.145a4.482 4.482 0 011.05.054c.083.017.031.115.049.144.11.176.264-.08.29-.085.61-.123 1.078.11 1.7-.001.034-.007.294-.282.41-.046.009.016.124.257.226.092.006-.01-.066-.134.06-.122.124.013.326-.07.498.066.054.043.183.284.345.092.011-.013.262-.447.351-.148.015.05 0 .366.194.204.037-.032-.03-.102.067-.146.15-.068.347.016.531-.125.032-.024.169-.24.278-.076.017.025-.015.13.043.143.275.056.562-.014.841.059.1.026.049.196.152.242.103.046.31.09.418.012.108-.078-.01-.35.152-.372.702-.095 1.398.065 2.1.088.104.004.017-.094.17-.096.566-.007 1.542-.098 2.032.109.393.166-.102.292.199.36.145.031.301-.285.337-.295.341-.101.579.04.886-.004.064-.009.001-.137.056-.143.184-.023.378.035.555.024.079-.005.064-.103.137-.095.174.017.328.058.498.15.016.008-.089.13.04.135.209.007.468.097.708.004.071-.029.074-.252.227-.098.032.032-.009.301.17.069.03-.039.33-.352.476-.15.04.053.138.273.224.239.011-.006-.035-.126.036-.138.25-.04.512-.026.77-.064.068-.01-.034-.135.068-.146.281-.032.633 0 .908.04.101.014.03.117.038.128.119.182.19-.064.228-.078.245-.086.432.03.658-.001.062-.008.018-.126.03-.136.129-.102.033.108.114.132.229.066.483.056.714.041.084-.006-.01-.142.065-.145a6.27 6.27 0 011.357.064c.083.015.03.12.048.143.119.168.293-.06.333-.082.182-.1.253-.007.414-.024.786-.086 1.756-.025 2.498.013.966.049 1.717.149 2.638.123.059-.002 0-.141.05-.144.652-.034 1.294.02 1.947-.02.054-.003-.023-.135.063-.145.176-.02.4-.012.578.03.087.02-.03.134.058.152a2.1 2.1 0 00.633.03c.089-.009-.046-.144.07-.146.79-.013 1.565-.036 2.363.139.055.012.103.287.219.234.009-.076.008-.166.012-.248 1.15-.043 2.287.052 3.44.067.048 0-.036-.146.058-.145.545.002 1.074-.038 1.63.106.056.015.028.27.19.232.03-.007.275-.041.338-.097.009-.008-.036-.128.043-.131.46-.018.94.009 1.4.082.073.012-.006.14.047.149.374.068.78-.03 1.138.086.24.078.15.298.278.515.018.03.166.036.173.162.02.317-.052.664-.022 1.002.006.073.204-.006.087.17-.008.012-.152.07-.188.13-.024.041.02.17-.03.222-.05.053-.106-.055-.189.008-.083.062-.047.208-.213.225zM22.737 9.138c.132.123.152-.326.01-.219a1.17 1.17 0 00-.01.219zm-15.927.07c.172.199.29-.092.168-.245-.12-.153-.22.186-.168.246zm-1.785.145c.202.156.233-.48.018-.351-.013.007-.03.342-.018.351zm63.11-.046a.347.347 0 00.111.006c.057-.143-.156-.154-.11-.006zm-64.88.204c.062.086.243-.014.165-.12-.063-.087-.244.013-.165.12zm26.35.106c.002.007.078.013.076-.025-.005-.122-.111-.088-.077.025zm-29.36-.1c.444.025.714.55.23.491-.088-.01.189-.167.077-.215-.204-.086-.34.244-.548.067-.038-.032.215-.345.241-.343v.001zm22.568.16a.35.35 0 00.111.006c.057-.143-.156-.154-.11-.006zm11.245.217a.925.925 0 00.259.013c.128-.233-.368-.257-.26-.013zm-18.36.111c-.115.143-.253.16-.345-.02.114.01.23.011.345.02z" fill="#0F5779"/><path d="M54.334 2.85c-.045-.005-.049-.12-.09-.149-.17-.124-.203-.222-.349-.35-.215-.19-1.002-.496-.664-1.081l.01-.018c.067-.11.2-.196.281-.317.082-.12.545-.94.66-.935.16.013.344.397.417.427.05.02.15-.02.216 0 .215.068.283.18.57.077l.023.437c.118.003.173.22.232.245.048.019.123-.05.171-.027.055.025.083.162.186.203.168.068.322-.134.431-.108.114.027.196.233.364.227l.088-.045.06-.183c.077.01.04.138.096.173.066.041.16-.045.206-.018.037.022.038.135.09.158.073.033.129-.098.18-.1.02 0 .337.093.353.102.122.064.036.237.123.307.24.192.59.213.863.303a.86.86 0 01.324.205c-.419.33-.232.882.013.13.066.165.256.033.353.13.063.063.06.185.168.244.19.104.549-.042.327.467.269.043.36.327.683-.05.072.008.072.343.117.414.041.067.439.448.51.498.073.05.201.133.287.133.106 0 .415-.404.262.19.19.054.24.103.36.251.022.027-.019.105-.002.114.033.02.123-.004.187.024.105.046.069.238.199-.012l.266-.01-.013.18.193-.093c-.245.33.12.262.158.014l.252.437c-.25.392.25.207.351-.026l.043.026c.064.18.23.16.343.32.113.16.076.191.016.403l.127.03c.483-.396-.057.461.493.26-.08.379.273.36.499.362.026 0 .062-.062.1-.066.09-.008.209.166.318-.036l.07.271.203-.028.107-.187c-.029.266.165.27.209.362.008.019-.038.106-.007.156.037.058.15.089.196.152l.238-.243c.141.013.036.286.09.344.01.01.236.116.25.118.12.012.217-.217.465-.012.045.036.042.133.084.162.075.05.408.019.516-.126-.017.25.282.316.325.416.013.03-.054.156 0 .223.044.054.246.038.308.096.066.062.033.181.062.208.028.025.106-.041.15-.016.134.082.18.288.286.353a.097.097 0 00.005.003l1.054.716-1.054.509c-.153.09-.148.413-.214.596-.042.003-.104-.032-.139-.013-.424.235-.924.462-1.376.652-.209.089-.89.033-.435.52-.012.137-.636.196-.732.246-.096.051-.112.195-.185.24-.22.132-.42.15-.64.394-.057.064-.063.226-.105.249-.051.027-.172-.057-.24-.027-.164.072-.43.276-.59.341-.029.012-.097-.084-.154-.093-.221-.037-.384.071-.167.378-.3-.073-.381.198-.554.311-.366.24-1.098.561-1.349.887-.158.206-.069.348-.447.4-.084.01-.173.012-.274.027-.238.033-.57-.133-.53.275-.263.04-.4.198-.718.014l.059.23-.076.051-.134-.175c-.198.092-.287.49-.448.58-.268.15-1.014.447-1.317.508-.16.032-.09.172-.327-.062l-.057.11.05.215c-.172.102-.431.126-.595.222-.298.175-.651.602-1.016.665-.09.016-.258-.055-.33-.011-.107.064-.013.287-.147.37-.231.142-.809.153-1.02.3-.063.043-.05.138-.09.173-.17.146-.33.23-.445.456-.312-.087-.444-.354-.655-.58-.16-.169-.564-.542-.683-.702-.084-.113-.12-.299-.217-.42.174-.242.34-.183.64-.106l1.047-.635.222.162c.184.006.134-.214.183-.299.466-.81 2.029-1.289 2.826-1.688.172-.086.657-.496.839-.444.047.013.12.12.154.107l.727-.686c.677-.159 1.191-.647 1.757-1.01 1.532-.98 3.039-1.968 4.602-2.835.302-.168.633-.47.958-.586.135-.048.29.103.373-.124l.089.142c.106-.139.132-.3.282-.403a5.11 5.11 0 01.6-.344c.067-.025.097.078.153.045a.216.216 0 00.035-.027v1.583c-.12-.038-.352-.041-.47-.11-.12-.07-.264-.291-.366-.33-.366-.14-.82-.196-1.153-.443-.092-.069-.151-.26-.184-.274-.064-.028-.148.076-.197.067-.248-.045-.49-.366-.69-.487-.647-.397-1.372-.75-2.014-1.149-.406-.251-1.105-.628-1.437-.934-.072-.066.022-.178-.047-.218-.076-.045-.167.016-.206.002-.276-.096-.873-.326-1.057-.548-.035-.042-.01-.158-.038-.173-.013-.008-.082.04-.129.023-.409-.156-.66-.352-1.013-.587-.678-.45-1.564-.795-2.264-1.289-.152-.107-.15-.364-.175-.375-.052-.025-.158.087-.278.06-.395-.087-.765-.485-1.12-.604-.176-.058-.488-.018-.663-.07-.14-.043-.395-.276-.491-.235-.059.025-.155.157-.206.151zm5.425.21c-.152.213.187.16.17-.011-.004-.039-.13-.043-.17.012zm8.441 7.647l.118.19.044-.133c-.039-.03-.078-.058-.118-.087l-.044.03z" fill="#0F5779"/></svg>