<svg width="24" height="24" fill="none" xmlns="http://www.w3.org/2000/svg"><path fill-rule="evenodd" clip-rule="evenodd" d="M16.5 2.25h-9A5.25 5.25 0 002.25 7.5v9c0 2.9 2.35 5.25 5.25 5.25h9c2.9 0 5.25-2.35 5.25-5.25v-9c0-2.9-2.35-5.25-5.25-5.25zM7.5 0A7.5 7.5 0 000 7.5v9A7.5 7.5 0 007.5 24h9a7.5 7.5 0 007.5-7.5v-9A7.5 7.5 0 0016.5 0h-9z" fill="#fff"/><path fill-rule="evenodd" clip-rule="evenodd" d="M12.375 15.75a4.125 4.125 0 100-8.25 4.125 4.125 0 000 8.25zm0 2.25a6.375 6.375 0 100-12.75 6.375 6.375 0 000 12.75z" fill="#fff"/><path d="M19.875 5.813a1.312 1.312 0 11-2.625 0 1.312 1.312 0 012.625 0z" fill="#fff"/></svg>