<svg width="41" height="41" fill="none" xmlns="http://www.w3.org/2000/svg"><g filter="url(#filter0_g_493_1604)"><circle cx="18" cy="18" r="18" transform="matrix(0 -1 -1 0 38.25 38.25)" stroke="#fff" stroke-width="2.5"/></g><path d="M19.465 11.844c.003-.04-.136.05-.163.036-.113-.06-.225-.013-.349-.046-.183-.05-.377-.546-1.174.25a2.67 2.67 0 00-.024.024c-.15.153-.286.348-.454.524-.167.176-1.278 1.281-1.3 1.385-.02.143.409.004.428.049.014.03-.06.159-.05.205.034.148.155.122-.037.478l.531-.335c-.024.11.231-.015.246.021.013.03-.088.156-.071.184.018.031.18-.053.206.01.044.105-.24.415-.233.498.007.085.24-.005.195.159l-.076.12-.238.206c-.005.065.16-.074.19-.05.035.029-.092.19-.07.21.019.017.158-.074.174-.044.023.043-.15.203-.164.252-.005.02.036.244.042.253.05.063.284-.16.349-.134.18.072.126.385.173.571.02.083.088.125.177.14.501-.665 1.136-.938.156-.093.187-.072-.018.215.078.228.063.009.214-.093.261-.04.083.097-.178.555.498-.07-.01.22.317.076-.219.688-.008.062.404-.21.48-.226.073-.015.449.052.494.08.044.027.117.08.097.161-.024.101-.592.723.172.095.023.136.07.144.225.137.028-.002.133-.103.141-.096.016.016-.033.12-.014.158.032.062.277-.128-.06.199l-.075.26.225-.16-.16.26c.462-.5.295-.1-.019.138l.48-.118c.537-.554.195.07-.114.355l.022.02c.205-.086.142.088.313.064.17-.023.217-.084.49-.312l.01.095c-.598.78.578-.43.205.255.483-.384.378-.034.328.179-.006.024-.09.108-.103.147-.032.093.155.064-.12.332l.318-.154-.082.215-.254.253c.333-.244.293-.062.396-.097.021-.007.14-.122.193-.132.063-.013.075.068.141.062l-.353.422c-.016.124.343-.199.401-.194.01.001.089.129.087.142-.012.103-.316.38-.122.45.035.012.154-.07.18-.053.044.03-.071.371-.273.59.309-.218.322.011.434-.03.035-.012.205-.177.274-.18.056-.002-.01.201.047.213.06.011.215-.117.241-.11.025.006-.075.134-.054.154.07.061.312-.064.367-.015l.002.002v-1.668c-.075.072-.472-.195-.682-.282.006.038.064.125.048.142-.19.211-.354.5-.483.773-.06.127.166.817-.536-.01-.166-.1-.094.443-.134.493-.04.05-.213-.052-.25-.019-.113.1-.09.274-.338.284-.065.003-.263-.124-.28-.102-.022.026.11.209.088.25-.05.096-.24.182-.283.28-.008.018.125.16.15.222.097.24.001.306-.424-.148.157.342-.156.199-.255.27-.21.152-.435.584-.778.556-.215-.017-.41-.217-.386.1.005.07.024.153.03.237.014.198.294.647-.216.278.012.216-.15.217.15.669l-.298-.244-.044.031.246.27c-.067.113-.534-.126-.608-.048-.123.132-.314.598-.32.835-.002.125-.19-.055.152.36l-.122-.036-.276-.222c-.085.08-.054.306-.134.383-.146.14-.589.127-.582.42.001.075.127.29.09.324-.054.048-.35-.223-.42-.163-.121.104-.001.642-.132.723-.04.024-.16-.066-.192-.056-.14.043-.206.126-.457.05.178.367.537.71.862 1.092.245.29.796.976 1.02 1.22.158.17.395.357.566.547.257.032.145-.174-.018-.52.18-.158.358-.317.537-.476l-.25-.342c-.05-.18.232.047.325.07.887.218 1.113-.873 1.42-1.304.065-.093.457-.218.35-.433-.027-.055-.175-.212-.167-.233l.674-.13c.04-.513.52-.603.834-.844.85-.653 1.714-1.277 2.417-2.053.136-.15.431-.217.497-.43.028-.09-.192-.358.067-.253l-.195-.2c.146.013.339.12.43.06.075-.05.252-.208.283-.289.016-.041-.118-.154-.09-.18a.055.055 0 01.025-.011l.96-.588-.96-1.566c-.019-.083.03-.3-.026-.356-.058-.057-.297-.013-.32-.078-.088-.233-.052-.617-.279-.732-.063-.03-.283.068-.293.05-.02-.039.127-.202.127-.242.003-.199-.335-.168-.438-.257-.338-.29-.603-.69-.944-.974-.216-.18-.516-.535-.815-.601-.065-.014-.224.166-.257.133-.037-.037.058-.171.05-.197-.053-.184-.199-.561-.428-.556-.044.002-.192.12-.204.106-.007-.007.07-.112.058-.141-.096-.262-.28-.34-.486-.483-.395-.277-.615-.835-1.059-1.096-.097-.057-.413.153-.42.14-.02-.029.143-.221.138-.313-.015-.303-.42-.33-.483-.57-.03-.119.09-.447.067-.57-.02-.1-.247-.15-.174-.275.043-.076.227-.274.233-.317zm-.995 4.968c.296-.317.151.048-.054.17-.047.028-.023-.088.054-.17zm4.671 3.269l-.26-.265c.052.021.102.043.153.065l.134.182-.027.018z" fill="#fff"/><defs><filter id="filter0_g_493_1604" x="0" y="0" width="40.5" height="40.5" filterUnits="userSpaceOnUse" color-interpolation-filters="sRGB"><feFlood flood-opacity="0" result="BackgroundImageFix"/><feBlend in="SourceGraphic" in2="BackgroundImageFix" result="shape"/><feTurbulence type="fractalNoise" baseFrequency="0.1666666716337204 0.1666666716337204" numOctaves="3" seed="4011"/><feDisplacementMap in="shape" scale="2" xChannelSelector="R" yChannelSelector="G" result="displacedImage"/><feMerge result="effect1_texture_493_1604"><feMergeNode in="displacedImage"/></feMerge></filter></defs></svg>