<svg width="49" height="49" fill="none" xmlns="http://www.w3.org/2000/svg"><g filter="url(#filter0_g_354_1018)"><circle cx="24.25" cy="24.25" r="22" stroke="#fff" stroke-width="2.5"/></g><path d="M34.133 25.602c.042 0-.042.145-.023.177.08.132.04.251.09.392.076.21.648.48-.148 1.277l-.024.024c-.153.15-.355.28-.532.446-.177.166-1.281 1.279-1.394 1.29-.156.008-.05-.453-.101-.48-.036-.019-.17.049-.222.032-.17-.053-.154-.185-.527-.011l.312-.553c-.12.014-.008-.255-.05-.276-.035-.018-.164.081-.197.06-.037-.025.04-.195-.034-.231-.121-.061-.435.22-.527.203-.096-.017-.022-.267-.198-.234l-.126.071-.202.242c-.071-.002.065-.17.034-.206-.036-.042-.2.082-.225.055-.021-.023.065-.168.03-.188-.051-.031-.209.144-.262.153a2.174 2.174 0 01-.286-.075c-.076-.063.146-.297.11-.372-.1-.209-.442-.183-.654-.256-.095-.032-.148-.112-.175-.212.683-.483.916-1.158.086-.163.06-.2-.237-.004-.262-.112-.016-.07.08-.227.015-.286-.116-.103-.596.137.023-.545-.244-.014-.12-.361-.74.166-.068.002.189-.425.198-.509.008-.079-.107-.503-.143-.556-.036-.053-.104-.14-.191-.126-.11.015-.737.578-.125-.201-.153-.041-.167-.095-.177-.266-.001-.031.1-.137.09-.146-.019-.02-.128.023-.173-.002-.073-.043.112-.293-.214.045l-.28.053.152-.232-.27.149c.504-.457.077-.316-.152.006l.077-.519c.557-.536-.098-.225-.38.087a6.387 6.387 0 00-.025-.027c.072-.219-.115-.168-.107-.355.007-.187.069-.232.293-.51a39.958 39.958 0 01-.107-.02c-.8.577.412-.596-.306-.258.372-.493-.005-.416-.235-.384-.027.004-.111.088-.152.098-.1.025-.088-.179-.356.096l.136-.335-.23.066-.253.254c.233-.343.037-.318.063-.43.006-.021.12-.14.126-.198.008-.068-.084-.091-.084-.164l-.43.345c-.136.005.182-.359.17-.424a.818.818 0 00-.166-.112c-.113.002-.388.308-.487.085-.017-.04.06-.163.038-.193-.038-.053-.404.038-.625.237.208-.319-.048-.36-.015-.479.01-.037.175-.208.17-.284-.003-.062-.222-.012-.242-.076-.02-.069.106-.226.096-.255-.01-.028-.14.068-.165.042-.076-.084.036-.339-.024-.405l-.003-.003h1.668c-.088.091.164.503.237.726-.04-.003-.132-.056-.152-.037a4.768 4.768 0 01-.912.622c-.148.08-.89-.093-.05.595.095.173-.502.154-.561.204-.06.05.034.23-.007.276-.124.136-.314.129-.354.406-.01.072.11.278.083.3-.032.027-.22-.098-.268-.07-.112.067-.229.286-.342.346-.021.01-.165-.122-.23-.143-.256-.08-.34.033.117.456-.362-.138-.238.194-.329.313-.192.249-.697.548-.704.925-.005.238.196.432-.153.44-.077.002-.168-.01-.26-.006-.22.006-.687-.255-.334.27-.239.011-.258.192-.726-.091l.237.303-.039.053-.272-.244c-.133.087.08.58-.015.67-.16.152-.699.416-.962.448-.14.017.04.205-.384-.128l.026.131.216.282c-.097.104-.346.095-.44.192-.172.177-.207.668-.532.694-.082.006-.308-.11-.349-.065-.06.066.208.364.134.45-.129.145-.714.071-.818.226-.031.046.056.17.04.207-.062.16-.162.243-.106.513-.387-.157-.728-.517-1.117-.836-.294-.24-.996-.776-1.242-.999-.172-.156-.353-.398-.546-.567-.006-.282.21-.181.577-.038l.588-.65.353.24v.001c.194.035-.027-.253-.042-.354-.144-.961 1.094-1.334 1.606-1.722.11-.084.293-.532.52-.439.06.025.216.172.241.16l.22-.762c.574-.1.727-.645 1.03-1.02.82-1.018 1.609-2.047 2.549-2.914.182-.168.29-.503.534-.6.102-.042.376.173.287-.103l.201.195c.002-.162-.095-.364-.019-.47.065-.09.26-.305.353-.348.048-.022.158.114.19.08a.077.077 0 00.015-.029l.67-.997 1.484.997c.094.03.33 0 .398.068.07.07.048.332.123.365.268.123.692.126.844.39.041.074-.044.308-.022.321.044.026.21-.119.254-.115.22.02.224.391.334.516.36.408.834.747 1.188 1.157.223.26.651.633.758.973.023.073-.16.23-.12.27.045.045.184-.045.214-.034.21.08.645.284.665.538.003.048-.111.2-.095.215.008.008.117-.065.15-.05.302.137.408.35.591.595.351.469.996.775 1.335 1.298.074.114-.124.441-.109.452.035.024.23-.135.333-.12.339.051.413.503.687.6.135.048.486-.05.626-.01.112.032.194.29.325.224.079-.04.28-.223.327-.224zm-5.41.553c.319-.293-.07-.173-.184.042-.026.048.101.035.184-.042zm-4.418-5.59l.266.258-.056-.162-.188-.128-.022.031z" fill="#fff"/><defs><filter id="filter0_g_354_1018" x="0" y="0" width="48.5" height="48.5" filterUnits="userSpaceOnUse" color-interpolation-filters="sRGB"><feFlood flood-opacity="0" result="BackgroundImageFix"/><feBlend in="SourceGraphic" in2="BackgroundImageFix" result="shape"/><feTurbulence type="fractalNoise" baseFrequency="0.1666666716337204 0.1666666716337204" numOctaves="3" seed="4011"/><feDisplacementMap in="shape" scale="2" xChannelSelector="R" yChannelSelector="G" result="displacedImage"/><feMerge result="effect1_texture_354_1018"><feMergeNode in="displacedImage"/></feMerge></filter></defs></svg>