<svg width="27" height="22" viewBox="0 0 27 22" fill="none" xmlns="http://www.w3.org/2000/svg">
<path d="M22.7812 0C25.1112 0 27 1.8888 27 4.21875V17.7188C27 20.0487 25.1112 21.9375 22.7812 21.9375H4.21875C1.8888 21.9375 0 20.0487 0 17.7188V4.21875C2.17436e-07 1.8888 1.8888 0 4.21875 0H22.7812ZM15.5879 13.2021C14.4347 14.355 12.5653 14.355 11.4121 13.2021L2.53125 4.32129V17.7188C2.53125 18.6507 3.28677 19.4062 4.21875 19.4062H22.7812C23.7132 19.4062 24.4688 18.6507 24.4688 17.7188V4.32129L15.5879 13.2021ZM13.2021 11.4121C13.3669 11.5766 13.6342 11.5768 13.7988 11.4121L22.6797 2.53125H4.32129L13.2021 11.4121Z" fill="#4D4D4D"/>
</svg>
