<svg width="44" height="19" viewBox="0 0 44 19" fill="none" xmlns="http://www.w3.org/2000/svg">
<path d="M42.0562 10.2623C41.8182 10.2883 41.5063 10.2605 41.2693 10.2222C41.195 10.2104 41.2326 10.1574 41.1813 10.1468C41.081 10.1262 40.9876 10.1522 40.8885 10.1276C40.8556 10.1192 40.8965 10.0353 40.8621 10.0284C40.6733 9.9913 40.4948 10.0127 40.3036 9.99483C39.3618 9.90677 38.4361 9.87525 37.4828 9.837C37.1685 9.82445 36.7864 9.74825 36.4617 9.78158C36.4238 9.78554 36.4464 9.85924 36.4392 9.86532C36.3261 9.95831 36.3637 9.80952 36.2899 9.78976C35.9968 9.7117 35.6709 9.70492 35.3888 9.73336C35.2688 9.74568 35.3891 9.89206 35.2683 9.8099C35.2599 9.80435 35.2903 9.72608 35.2574 9.71773C35.1828 9.69896 35.0412 9.71295 34.9834 9.70675C34.8719 9.6944 34.8535 9.69519 34.748 9.6943C34.6039 9.6924 34.4325 9.65349 34.2778 9.67123C34.2448 9.67524 34.2885 9.75547 34.2359 9.76913C34.1832 9.78276 34.0438 9.77595 33.9968 9.75704C33.9498 9.73812 33.9698 9.67506 33.9615 9.66061C33.893 9.53861 33.7318 9.70757 33.7111 9.71175C33.3328 9.78295 33.0084 9.6867 32.6534 9.68697C32.3838 9.68739 32.0956 9.71916 31.8391 9.71481C31.5336 9.7093 31.2746 9.66583 30.9777 9.6733C30.9464 9.674 30.9831 9.76833 30.9449 9.76937C30.5383 9.78035 30.1347 9.77006 29.7299 9.70638C29.6893 9.69991 29.7416 9.61709 29.7011 9.60568C29.4528 9.53761 29.0599 9.3741 28.9124 9.7347C28.7442 9.72062 28.54 9.70607 28.3896 9.63339C28.2925 9.5866 28.3868 9.49637 28.2676 9.53487C28.2407 9.54345 28.2757 9.62247 28.2354 9.62936C28.0656 9.65828 27.8802 9.6326 27.7123 9.67342C27.6782 9.68191 27.6875 9.75272 27.6778 9.76546C27.5965 9.86872 27.4611 9.69803 27.4316 9.68563C27.2069 9.59314 27.0428 9.62954 26.8335 9.62728C26.7849 9.62672 26.8423 9.72182 26.7956 9.72469C26.5531 9.73832 26.302 9.73015 26.0646 9.68795C26.0118 9.67834 26.0603 9.59733 26.0351 9.58859C25.9238 9.55104 25.8992 9.70404 25.7924 9.67098C25.7699 9.66421 25.7826 9.59486 25.7785 9.58724C25.7143 9.46768 25.6585 9.63709 25.642 9.64083C25.433 9.69194 25.2994 9.51508 25.0976 9.54012C25.0734 9.5433 25.1279 9.63105 25.06 9.63461C24.6077 9.65883 24.1294 9.63472 23.6818 9.56454C23.6122 9.55374 23.6618 9.48783 23.6575 9.4797C23.5861 9.35273 23.5399 9.52285 23.5172 9.52926C23.3381 9.57538 23.1709 9.43271 23.0492 9.63534C22.291 9.56502 21.5362 9.67881 20.7842 9.49728C20.7746 9.49517 20.7918 9.41139 20.7727 9.40756C20.543 9.36051 20.5871 9.49073 20.4351 9.64999C20.3969 9.68998 20.2804 9.4977 20.2701 9.48361C20.2325 9.43167 20.2715 9.30702 20.2589 9.29696C20.1549 9.21798 20.1718 9.6302 20.0315 9.63033C20.0271 9.62965 20.0455 9.55377 20.0338 9.54623C19.9972 9.52254 19.9609 9.55269 19.9251 9.52657C19.8431 9.46614 19.8139 9.26583 19.6888 9.38241C19.6729 9.39754 19.6971 9.63137 19.5718 9.62032C19.5219 9.61572 19.3008 9.61973 19.2388 9.60458C19.1769 9.58944 19.2194 9.51409 19.215 9.51083C19.0482 9.41119 19.1115 9.36989 19.0279 9.22238C18.9444 9.07542 18.9675 9.42593 18.9335 9.46505C18.8994 9.50406 18.7771 9.42185 18.747 9.39327C18.717 9.36468 18.7545 9.3168 18.7278 9.30062C18.5507 9.19491 18.65 9.4746 18.5917 9.53024C18.4542 9.66196 18.347 9.40202 18.2211 9.37655C18.187 9.36967 18.2148 9.42887 18.1845 9.43441C18.0643 9.45556 17.9921 9.37445 17.8554 9.44882C17.833 9.46093 17.7225 9.61722 17.651 9.50253C17.6408 9.48599 17.6696 9.42121 17.6184 9.4067C17.5419 9.38493 17.4041 9.37077 17.3218 9.39242C17.2611 9.40844 17.3307 9.51518 17.2543 9.48202C17.2203 9.46721 17.2833 9.40477 17.2195 9.38217C17.156 9.35957 16.9937 9.36231 16.9319 9.36447C16.8703 9.36667 16.904 9.44763 16.8991 9.45309C16.8689 9.48433 16.7506 9.52338 16.7402 9.52328C16.2129 9.53316 15.7266 9.39669 15.2132 9.44186C15.1729 9.44529 15.1998 9.53066 15.1936 9.53207C15.0557 9.56784 15.1645 9.34084 15.0681 9.26486C15.082 9.43811 15.0252 9.40674 14.928 9.42574C14.8812 9.43504 14.9067 9.50213 14.9024 9.509C14.833 9.61089 14.7846 9.47928 14.7722 9.45236C14.7262 9.35332 14.6762 9.47034 14.6449 9.40414C14.6136 9.33843 14.6856 9.24103 14.5924 9.24227C14.5663 9.30429 14.6354 9.46637 14.5647 9.49264C14.2978 9.592 13.7995 9.46483 13.5849 9.45162C13.3707 9.43843 13.3015 9.44987 13.1767 9.42745C12.9513 9.38693 13.0339 9.50718 12.8939 9.56222C12.7535 9.61725 12.8218 9.32138 12.8016 9.25778C12.7818 9.1942 12.7601 9.25965 12.7355 9.2247C12.7109 9.18975 12.7641 9.14651 12.7064 9.13339C12.6486 9.12028 12.4905 9.23339 12.47 9.29989C12.4267 9.44079 12.4979 9.58867 12.345 9.53671C12.3362 9.53362 12.3647 9.45582 12.3311 9.44796C12.0635 9.38807 11.7856 9.38436 11.5184 9.33139C11.4817 9.32398 11.5145 9.23743 11.4932 9.23214C11.2705 9.17678 11.3501 9.32272 11.228 9.48483C11.2554 9.26909 11.1879 9.1371 11.0189 9.13583C10.9173 9.13499 10.9348 9.22921 10.8691 9.29562C10.8494 9.31564 10.7775 9.25094 10.7644 9.29525C10.7215 9.4401 10.7892 9.60225 10.6149 9.53768C10.6073 9.53461 10.6316 9.45533 10.6052 9.45053C10.4345 9.4191 10.414 9.5706 10.2294 9.58895C10.0847 9.60335 9.82743 9.51096 9.66269 9.49594C9.66615 9.25339 9.51054 9.30893 9.44742 9.47616C9.3405 9.46931 9.22503 9.47877 9.12169 9.45565C9.08613 9.44777 9.10949 9.37755 9.10501 9.36996C9.03623 9.25093 8.98976 9.41363 8.96668 9.42001C8.71656 9.48201 8.51279 9.3587 8.27408 9.47921C8.26561 9.48355 8.25187 9.65203 8.18807 9.52902C8.18394 9.52054 8.26278 9.44388 8.15049 9.43795C8.03818 9.43201 7.82648 9.34169 7.67056 9.41976C7.63282 9.43856 7.5374 9.57533 7.4608 9.46847C7.4506 9.45396 7.46176 9.40564 7.44703 9.37875C7.39941 9.29307 7.37342 9.46336 7.31746 9.31869C7.26149 9.17402 7.14507 9.06568 6.98783 9.16549C6.98283 9.16839 6.9456 9.30337 6.89616 9.30123C6.81722 9.29771 6.70516 9.26959 6.62275 9.27047C6.58328 9.27094 6.60854 9.35475 6.60169 9.35629C6.33635 9.40325 6.1475 9.32854 5.86325 9.29611C5.81114 9.29 5.66139 9.40429 5.56052 9.31393C5.44975 9.21502 5.56357 8.80355 5.30897 8.90158C5.20628 8.94079 5.07627 9.46281 4.89172 9.19235C4.53382 9.25937 4.20282 9.12095 3.84391 9.21664C3.82777 9.22088 3.77673 9.36657 3.73879 9.36459C3.68246 9.36136 3.65153 9.29327 3.61132 9.28878C3.44277 9.26827 3.28853 9.32653 3.12603 9.31747C3.06435 9.31418 3.08592 9.24377 3.01233 9.23983C2.93879 9.23596 2.88976 9.32868 2.7901 9.2839C2.71484 9.24977 2.63958 9.06026 2.53969 9.03817C2.53588 9.2251 2.46726 9.22125 2.34532 9.27059C2.32188 9.28017 2.34701 9.34523 2.33592 9.35311C2.2908 9.38665 2.24904 9.33273 2.20618 9.36923C2.19575 9.37799 2.19527 9.44183 2.18675 9.4526C2.11428 9.54661 1.9949 9.40302 1.9744 9.37802C1.89581 9.28306 1.85909 9.36609 1.79882 9.3287C1.73863 9.29131 1.82862 9.24458 1.75832 9.22189C1.61262 9.17496 1.4254 9.18527 1.27742 9.18234C1.21838 9.18156 1.25866 9.26677 1.25021 9.26864C1.12811 9.29025 1.00465 9.19961 0.936946 9.36935C0.852299 8.93047 0.863322 9.41192 0.688802 9.32406C0.675062 9.31696 0.657565 9.10941 0.710347 9.07895C0.763119 9.0485 0.843152 9.11338 0.916378 9.06588C0.933716 9.05474 1.03305 8.86026 1.04661 8.84848C1.15277 8.75641 1.16781 9.06655 1.17343 9.08358C1.23713 9.26741 1.35851 9.0579 1.39048 9.04342C1.53671 8.97709 1.66096 9.0207 1.78326 8.97335C1.86326 8.94275 1.87109 8.7396 1.9339 8.74582C2.14271 8.76637 2.21561 9.04977 2.41238 8.80404C2.45457 8.75163 2.41264 8.52959 2.56382 8.70419C2.57332 8.7152 2.68556 8.87492 2.75042 8.77389C2.75856 8.76115 2.7583 8.69644 2.76904 8.69101C2.84103 8.65584 2.88904 8.7074 2.96746 8.68271C3.04588 8.65802 3.14017 8.62121 3.2297 8.64316C3.28366 8.65628 3.35288 8.77685 3.37872 8.80636C3.45165 8.89139 3.52985 8.75198 3.57503 8.85495C3.62059 8.95843 3.53152 9.11559 3.65099 9.18246C3.65542 9.01434 3.66558 8.84177 3.6727 8.6727C3.93454 8.67862 4.19217 8.73298 4.45488 8.72555C4.48745 8.72446 4.45413 8.63408 4.48905 8.63058C4.63636 8.61622 4.76503 8.68065 4.9178 8.655C5.03604 8.63479 5.16572 8.53909 5.28937 8.51498C5.3649 8.70736 5.54839 8.64205 5.68167 8.65963C5.72837 8.66571 5.72524 8.71709 5.75845 8.73385C5.88373 8.79585 5.82501 8.62584 5.85936 8.59909C6.00671 8.4849 6.01931 8.8697 6.19303 8.8602C6.20222 8.85982 6.31473 8.65471 6.33022 8.64193C6.42866 8.55864 6.34651 8.71333 6.40813 8.72848C6.52063 8.75618 6.59879 8.80516 6.73078 8.74508C6.76927 8.72729 6.86159 8.59944 6.93633 8.69833C6.94617 8.71128 6.94072 8.77908 6.94864 8.78305C7.09189 8.84923 7.09565 8.6362 7.17751 8.56405C7.25938 8.49192 7.38583 8.63898 7.41156 8.68136C7.47888 8.79101 7.35998 8.72822 7.35633 8.73898C7.3135 8.86703 7.40572 8.84498 7.47619 8.8558C7.48639 9.06468 7.58493 9.05214 7.54924 8.86618C7.54518 8.84586 7.49033 8.86534 7.47619 8.8558C7.53804 8.65086 7.64635 8.62462 7.76596 8.81613C7.82196 8.90589 7.76902 9.01054 7.93911 8.97226C8.0163 8.95497 7.98649 8.81115 8.0546 8.77194C8.21023 8.68247 8.41248 8.81664 8.57292 8.7955C8.63115 8.78782 8.57442 8.7091 8.61422 8.70114C8.71984 8.67977 8.81298 8.73884 8.91906 8.70858C8.92867 8.70574 8.90519 8.62333 8.93817 8.62228C9.18824 8.61271 9.40597 8.6655 9.66706 8.66696C9.79321 8.66763 10.0187 8.62218 10.1494 8.63131C10.3759 8.64667 10.6545 8.76651 10.848 8.73739C10.9742 8.71876 10.9465 8.63633 11.0006 8.58017C11.1049 8.4713 11.2896 8.6663 11.3145 8.6965C11.3153 8.6975 11.2067 8.71693 11.2646 8.75924C11.2983 8.84741 11.3133 8.69688 11.3145 8.6965C11.3308 8.71601 11.5478 8.73472 11.5908 8.71896C11.6142 8.71035 11.6011 8.63225 11.6133 8.62924C11.9034 8.55935 12.194 8.5395 12.4882 8.57602C12.4934 8.57759 12.4856 8.66495 12.4977 8.66757C12.668 8.70641 12.7771 8.59955 12.9176 8.5361C13.058 8.47268 13.1694 8.49392 13.2525 8.64389C13.3585 8.62501 13.5105 8.6913 13.598 8.73153C13.6855 8.77176 13.6977 8.60172 13.7054 8.59836C13.9455 8.49076 14.0843 8.58809 14.3334 8.60324C14.4518 8.61073 14.6867 8.58607 14.8149 8.56747C14.9163 8.55249 14.9773 8.59234 15.0707 8.56686C15.0833 8.56346 15.0706 8.48774 15.0744 8.48483C15.1786 8.39424 15.1286 8.57934 15.1501 8.61239C15.2281 8.73261 15.2763 8.79663 15.4097 8.74008C15.4405 8.72713 15.5302 8.46062 15.5863 8.44504C15.6592 8.42526 15.6317 8.52079 15.7081 8.49765C15.7146 8.49575 15.7132 8.43682 15.7604 8.43942C15.9792 8.45071 16.2178 8.485 16.4452 8.47909C16.4763 8.47851 16.4365 8.38504 16.4813 8.38266C16.6919 8.37158 16.9228 8.37504 17.1279 8.41879C17.1784 8.42985 17.1468 8.4953 17.1577 8.51474C17.225 8.63232 17.3205 8.46147 17.3362 8.45822C17.7119 8.37612 17.9994 8.53073 18.3823 8.45712C18.4031 8.4528 18.5635 8.26965 18.6351 8.42672C18.64 8.43718 18.7108 8.59788 18.7734 8.488C18.7773 8.48113 18.7332 8.39839 18.8102 8.40683C18.8872 8.41524 19.0111 8.35999 19.117 8.45089C19.1505 8.47953 19.2297 8.63984 19.3297 8.51205C19.3362 8.50313 19.4905 8.21418 19.5456 8.41354C19.5545 8.44636 19.5452 8.65733 19.6645 8.54916C19.6873 8.52819 19.6459 8.48113 19.7059 8.45175C19.7979 8.40646 19.9198 8.46297 20.033 8.36899C20.0527 8.35235 20.1366 8.20915 20.204 8.31784C20.2145 8.33486 20.1945 8.40529 20.2301 8.41317C20.3992 8.45098 20.5763 8.40387 20.7481 8.4526C20.8089 8.46973 20.7778 8.58359 20.8412 8.6141C20.9046 8.6446 21.0324 8.67395 21.0987 8.62191C21.1651 8.56986 21.0926 8.38839 21.192 8.37387C21.6243 8.3108 22.0525 8.41726 22.4841 8.43283C22.5481 8.43515 22.4951 8.37022 22.5894 8.36899C22.9372 8.36415 23.5377 8.30327 23.8395 8.44125C24.0813 8.55176 23.777 8.6359 23.9618 8.68087C24.051 8.70233 24.1475 8.49135 24.169 8.48471C24.3793 8.41724 24.5254 8.5107 24.7147 8.48202C24.7538 8.47607 24.7154 8.39056 24.7487 8.38644C24.8623 8.37161 24.9817 8.40978 25.0903 8.4028C25.139 8.39947 25.13 8.33416 25.1748 8.3392C25.2821 8.35051 25.3769 8.37796 25.4815 8.43918C25.491 8.44475 25.4267 8.526 25.5061 8.52902C25.6345 8.53368 25.7939 8.59406 25.9416 8.5317C25.9855 8.51294 25.9872 8.36368 26.0814 8.46676C26.1012 8.48829 26.076 8.66753 26.1857 8.51266C26.2042 8.48693 26.3886 8.27804 26.4791 8.41269C26.5029 8.44812 26.5639 8.59479 26.6166 8.57174C26.6237 8.56807 26.5951 8.48789 26.6388 8.48007C26.7927 8.4539 26.9541 8.46246 27.1122 8.43734C27.1545 8.43048 27.0916 8.34751 27.1545 8.33993C27.3276 8.31896 27.5437 8.34009 27.713 8.36606C27.7754 8.37579 27.7323 8.44451 27.7368 8.45199C27.8098 8.57364 27.853 8.40944 27.8772 8.39987C28.028 8.34254 28.1427 8.41967 28.2817 8.39926C28.32 8.39383 28.2928 8.31554 28.3005 8.30856C28.3796 8.24035 28.3207 8.38095 28.3708 8.39645C28.5111 8.44034 28.6676 8.43404 28.8096 8.42404C28.8617 8.42025 28.8031 8.32947 28.8499 8.32711C29.1268 8.31147 29.4147 8.32016 29.685 8.37021C29.7359 8.37979 29.7039 8.4497 29.7145 8.46566C29.7876 8.57737 29.8947 8.425 29.9194 8.41049C30.0315 8.34422 30.075 8.40604 30.174 8.3945C30.6576 8.33705 31.2547 8.37799 31.7112 8.40329C32.306 8.43584 32.7676 8.50234 33.3348 8.48507C33.3709 8.48406 33.3345 8.39107 33.3656 8.389C33.7668 8.36659 34.1618 8.40292 34.5639 8.37606C34.5969 8.37403 34.5493 8.28587 34.6022 8.27963C34.7109 8.26622 34.8485 8.27101 34.9583 8.29916C35.0118 8.31272 34.94 8.38837 34.9939 8.40048C35.1194 8.42884 35.254 8.43512 35.383 8.42099C35.4378 8.41478 35.355 8.32461 35.4264 8.32357C35.9123 8.31463 36.3894 8.2991 36.8804 8.41586C36.9141 8.42388 36.9436 8.60713 37.0152 8.57199C37.0206 8.52113 37.0203 8.46131 37.0226 8.40695C37.7299 8.37767 38.43 8.44119 39.1393 8.45102C39.1692 8.45141 39.1175 8.35431 39.1754 8.35458C39.5105 8.35602 39.8359 8.32912 40.1787 8.42562C40.2127 8.43506 40.1953 8.60588 40.2955 8.58004C40.3132 8.57533 40.4641 8.55255 40.5032 8.51547C40.5085 8.50987 40.4809 8.43015 40.5296 8.42782C40.8122 8.41571 41.1084 8.43392 41.3906 8.48263C41.4362 8.49065 41.3877 8.57555 41.4201 8.582C41.6502 8.62707 41.9004 8.56252 42.1203 8.63961C42.2675 8.69152 42.213 8.83828 42.2912 8.98275C42.3023 9.00313 42.3934 9.00636 42.3981 9.09042C42.4102 9.30178 42.3661 9.53322 42.3842 9.75851C42.388 9.80703 42.51 9.75477 42.4378 9.87203C42.4327 9.87988 42.3442 9.9188 42.3224 9.95858C42.3073 9.98608 42.3346 10.0716 42.3037 10.1068C42.2727 10.1419 42.2387 10.0703 42.1874 10.1117C42.1361 10.1535 42.1586 10.2508 42.0562 10.2623ZM13.9919 8.91134C14.073 8.993 14.0849 8.69391 13.9973 8.76547C13.993 8.76928 13.9878 8.90734 13.9919 8.91134ZM4.19069 8.95858C4.2966 9.09051 4.36907 8.89653 4.29436 8.79464C4.21966 8.69287 4.15843 8.91859 4.19069 8.95858ZM3.09251 9.0549C3.21628 9.15891 3.23577 8.73478 3.1032 8.82052C3.09549 8.82537 3.08527 9.04886 3.09251 9.0549ZM41.9285 9.02389C41.9296 9.02786 41.9952 9.03173 41.9967 9.0278C42.0316 8.9328 41.9006 8.92513 41.9285 9.02389ZM2.00274 9.15976C2.04139 9.21713 2.15263 9.1509 2.10462 9.07956C2.06597 9.02216 1.95462 9.08839 2.00274 9.15976ZM18.2177 9.23055C18.219 9.23501 18.2659 9.23903 18.265 9.21383C18.2618 9.13269 18.1965 9.15559 18.2177 9.23055ZM0.150564 9.16464C0.424209 9.1806 0.590129 9.53095 0.292127 9.49142C0.23817 9.48427 0.408428 9.3797 0.33975 9.34811C0.214066 9.29056 0.130617 9.51054 0.00235447 9.39266C-0.0208641 9.37109 0.134946 9.16295 0.151047 9.16415C0.150886 9.16431 0.15072 9.16448 0.150564 9.16464ZM14.0386 9.27059C14.0402 9.27455 14.1052 9.2783 14.1068 9.27438C14.142 9.17942 14.011 9.17181 14.0386 9.27059ZM20.9582 9.41549C20.9617 9.42392 21.1126 9.4318 21.1175 9.42404C21.1962 9.26876 20.8912 9.25236 20.9582 9.41549ZM9.6601 9.48947C9.58916 9.58499 9.50429 9.59624 9.44775 9.47628C9.51825 9.48265 9.5892 9.48359 9.6601 9.48947Z" fill="white"/>
<path d="M28.221 2.14853C28.1788 2.13807 28.1599 2.05241 28.1188 2.02484C27.9469 1.90876 27.9029 1.83159 27.7533 1.71622C27.5316 1.5451 26.7751 1.2086 26.9997 0.817968C26.9997 0.817959 26.9997 0.817949 26.9997 0.817938C27.0019 0.81411 27.0042 0.810274 27.0066 0.806435C27.0518 0.733456 27.1593 0.687124 27.2167 0.608141C27.274 0.529123 27.5797 -0.0182915 27.6835 0.000732402C27.8317 0.0323486 28.0516 0.344158 28.1219 0.376322C28.1699 0.398277 28.2545 0.381132 28.3178 0.405876C28.5221 0.485666 28.5997 0.578342 28.8462 0.541485C28.8733 0.651159 28.9004 0.760836 28.9275 0.870512C29.0348 0.888529 29.1151 1.05882 29.1718 1.08455C29.2183 1.10565 29.2763 1.06456 29.3237 1.08836C29.377 1.11473 29.4214 1.22057 29.5203 1.26532C29.6823 1.33897 29.7935 1.20877 29.8963 1.24321C30.0029 1.27896 30.1059 1.44368 30.2574 1.46242C30.2819 1.45516 30.3064 1.4479 30.3309 1.44064C30.3408 1.39804 30.3507 1.35544 30.3607 1.31285C30.4318 1.33125 30.4154 1.42082 30.4711 1.4546C30.5366 1.4944 30.611 1.44334 30.6555 1.46934C30.6919 1.49071 30.709 1.57579 30.7585 1.59953C30.8305 1.63442 30.8623 1.54407 30.9083 1.55019C30.9266 1.55279 31.2271 1.6656 31.243 1.67386C31.3627 1.73837 31.3087 1.85604 31.3971 1.91983C31.6424 2.09629 31.9618 2.15976 32.2225 2.2642C32.3389 2.31081 32.4475 2.38186 32.5446 2.46143C32.2111 2.65031 32.4573 3.08799 32.5746 2.55995C32.6575 2.69227 32.8116 2.62012 32.9131 2.70562C32.9786 2.76104 32.9936 2.85223 33.0991 2.91071C33.2866 3.01407 33.5909 2.9543 33.461 3.30384C33.7111 3.37281 33.8332 3.5969 34.0735 3.36053C34.1396 3.37561 34.1871 3.62601 34.237 3.68499C34.2842 3.74069 34.6978 4.07912 34.7702 4.12633C34.8425 4.17354 34.9708 4.25337 35.0479 4.26487C35.1446 4.27979 35.3677 4.01965 35.3124 4.44194C35.492 4.50846 35.5448 4.55177 35.6743 4.67898C35.6978 4.702 35.6717 4.75447 35.6878 4.76377C35.721 4.78285 35.799 4.77786 35.8609 4.80734C35.9626 4.85587 35.9569 4.99445 36.0397 4.82535C36.1196 4.83496 36.1995 4.84458 36.2794 4.85419C36.2839 4.89858 36.2884 4.94296 36.2928 4.98734C36.3469 4.97283 36.4009 4.95831 36.4549 4.9438C36.2791 5.15628 36.6008 5.15614 36.6 4.9758C36.6965 5.09612 36.793 5.21645 36.8895 5.33677C36.7182 5.59463 37.1451 5.52482 37.2043 5.36511C37.2185 5.37352 37.2326 5.38192 37.2467 5.39032C37.3305 5.5332 37.4785 5.54081 37.6031 5.67599C37.7276 5.81115 37.6984 5.82903 37.6738 5.9788C37.7136 5.9923 37.7535 6.00581 37.7933 6.01932C38.1751 5.78947 37.8058 6.35516 38.2762 6.28084C38.2569 6.55214 38.5741 6.58616 38.779 6.61827C38.8028 6.62202 38.8268 6.58102 38.8601 6.58326C38.9413 6.58926 39.0731 6.73551 39.144 6.59942C39.1781 6.67016 39.2121 6.74091 39.2462 6.81165C39.306 6.81388 39.3658 6.8161 39.4256 6.81833C39.4492 6.77671 39.4729 6.73509 39.4965 6.69347C39.5077 6.88801 39.6842 6.91718 39.7364 6.99219C39.7467 7.00723 39.7169 7.06623 39.7523 7.10733C39.7935 7.15564 39.8997 7.1942 39.9512 7.24757C40.0117 7.19798 40.0721 7.14838 40.1325 7.09878C40.2627 7.12786 40.2053 7.3175 40.2627 7.36777C40.2731 7.37674 40.493 7.48714 40.5065 7.49016C40.6167 7.51584 40.672 7.35799 40.9262 7.5447C40.9714 7.57804 40.9822 7.64986 41.0248 7.67697C41.1 7.72496 41.3971 7.74689 41.4748 7.65404C41.4941 7.83728 41.7752 7.9285 41.8276 8.00833C41.8433 8.03263 41.8009 8.11793 41.8594 8.17485C41.9067 8.22107 42.0876 8.2373 42.1517 8.28883C42.2196 8.34383 42.2065 8.4284 42.2372 8.45255C42.2662 8.47529 42.3275 8.43618 42.3704 8.46129C42.504 8.54063 42.5742 8.70066 42.6796 8.76348C42.6812 8.76444 42.6829 8.76538 42.6845 8.7663L43.3936 9.22213L42.6845 9.58415C42.5331 9.67237 42.4922 9.91239 42.4066 10.0583C42.3685 10.066 42.3167 10.0485 42.283 10.0674C41.8655 10.3005 41.3804 10.5388 40.9443 10.7423C40.7419 10.837 40.1329 10.8882 40.4764 11.1894C40.447 11.2935 39.8725 11.4228 39.7784 11.4738C39.6844 11.5249 39.6495 11.6343 39.5772 11.6772C39.3589 11.8066 39.1761 11.8472 38.942 12.0596C38.8816 12.1147 38.8533 12.2369 38.8118 12.2595C38.7617 12.2865 38.6644 12.2401 38.5977 12.2719C38.439 12.3484 38.1696 12.5369 38.0158 12.6076C37.9877 12.6203 37.9394 12.5581 37.8891 12.5589C37.6931 12.5618 37.5306 12.6647 37.6841 12.8636C37.4232 12.8506 37.3112 13.0636 37.1387 13.1719C36.7734 13.4005 36.0646 13.7409 35.7915 14.0185C35.6194 14.1935 35.6803 14.2873 35.3304 14.3773C35.2527 14.3973 35.1717 14.4107 35.0777 14.4353C34.8573 14.4928 34.5797 14.4144 34.5584 14.7133C34.3147 14.7791 34.169 14.9156 33.9061 14.8215C33.913 14.8763 33.9199 14.9312 33.9268 14.986C33.9015 15.002 33.8761 15.018 33.8508 15.034C33.8185 14.9965 33.7862 14.959 33.7539 14.9215C33.5615 15.017 33.4253 15.3257 33.2673 15.4149C33.0025 15.5645 32.2845 15.8877 32.0017 15.9745C31.8516 16.0206 31.8964 16.115 31.7137 15.9731C31.6914 16.0031 31.6691 16.0331 31.6469 16.0631C31.6516 16.1144 31.6564 16.1657 31.6612 16.217C31.4918 16.3165 31.2535 16.3695 31.0916 16.4635C30.7966 16.6347 30.4169 17.0018 30.0778 17.099C29.9927 17.1233 29.8514 17.093 29.7791 17.1358C29.6737 17.1981 29.7278 17.352 29.5947 17.432C29.365 17.5696 28.84 17.6565 28.6277 17.7949C28.5646 17.836 28.5639 17.9052 28.5221 17.9366C28.3471 18.0687 28.1898 18.1535 28.0549 18.3375C27.7841 18.3158 27.702 18.1342 27.542 17.9952C27.4211 17.8904 27.1067 17.6672 27.0209 17.5638C26.9606 17.4912 26.9531 17.3576 26.8825 17.2801C27.0745 17.0755 27.2171 17.0973 27.4778 17.1135C27.8239 16.908 28.17 16.7024 28.516 16.4969C28.5756 16.5271 28.6352 16.5573 28.6948 16.5874C28.6949 16.5875 28.6949 16.5877 28.695 16.5878C28.8611 16.5666 28.8462 16.4092 28.9022 16.3394C29.4383 15.6706 30.9221 15.1 31.7013 14.6927C31.8692 14.6049 32.3656 14.2327 32.5235 14.2466C32.5644 14.2504 32.6155 14.3204 32.6484 14.3058C32.9 14.1021 33.1516 13.8983 33.4033 13.6946C34.0399 13.483 34.5741 13.0485 35.1381 12.7005C36.6641 11.759 38.1686 10.8159 39.7072 9.95525C40.0046 9.78905 40.3473 9.51764 40.6572 9.3875C40.7865 9.3331 40.9057 9.42413 41.0129 9.24361C41.0331 9.27497 41.0534 9.30632 41.0736 9.33768C41.1895 9.21914 41.2357 9.09479 41.3865 8.99815C41.5136 8.91689 41.8564 8.71345 41.979 8.65945C42.0424 8.63121 42.0548 8.70441 42.1104 8.67202C42.1215 8.66553 42.1333 8.65708 42.1459 8.6471L42.1459 9.70335C42.0322 9.65905 41.8216 9.6248 41.7051 9.55781C41.5856 9.48914 41.4242 9.30384 41.3266 9.26112C40.9753 9.10677 40.5558 9.0028 40.2192 8.77257C40.1263 8.70879 40.0461 8.55851 40.0143 8.54317C39.9522 8.51349 39.8907 8.57934 39.8451 8.56612C39.6135 8.49872 39.3486 8.22626 39.1515 8.10818C38.5091 7.72339 37.8025 7.36134 37.1642 6.97588C36.7609 6.73241 36.0747 6.35578 35.7306 6.08188C35.6564 6.02281 35.726 5.95194 35.6577 5.91271C35.582 5.86922 35.5087 5.90195 35.4707 5.88617C35.2076 5.77731 34.6344 5.52355 34.4364 5.33316C34.3987 5.29681 34.4043 5.21317 34.3778 5.19825C34.3644 5.19058 34.3087 5.21781 34.2642 5.19829C33.8712 5.02601 33.6164 4.84503 33.2628 4.62145C32.5854 4.19358 31.7336 3.81422 31.0302 3.35027C30.877 3.24921 30.8423 3.05746 30.8192 3.04592C30.7686 3.02034 30.6873 3.08916 30.5757 3.05355C30.2051 2.93433 29.8138 2.5861 29.4748 2.44917C29.3073 2.38146 29.0308 2.3692 28.8641 2.30585C28.731 2.25527 28.4679 2.04652 28.3861 2.06387C28.3364 2.07421 28.2672 2.1594 28.221 2.14853ZM33.1689 3.04723C33.0608 3.18492 33.3608 3.19132 33.3215 3.06148C33.3127 3.03224 33.1969 3.01147 33.1689 3.04723ZM41.5771 10.1233C41.6038 10.165 41.6306 10.2067 41.6573 10.2484C41.677 10.2133 41.6967 10.1782 41.7164 10.1431C41.6848 10.127 41.6531 10.1109 41.6215 10.0948C41.6067 10.1043 41.5919 10.1138 41.5771 10.1233Z" fill="white"/>
</svg>
