<svg width="32" height="14" viewBox="0 0 32 14" fill="none" xmlns="http://www.w3.org/2000/svg">
<path d="M30.7047 7.92626C30.531 7.95231 30.3033 7.92446 30.1302 7.88622C30.076 7.87436 30.1035 7.82135 30.066 7.81078C29.9928 7.79017 29.9246 7.81617 29.8522 7.79162C29.8282 7.78322 29.8581 7.69926 29.8329 7.69237C29.6951 7.65527 29.5648 7.67665 29.4252 7.6588C28.7376 7.57074 28.0618 7.53922 27.3658 7.50097C27.1363 7.48843 26.8573 7.41222 26.6203 7.44555C26.5926 7.44951 26.6091 7.52321 26.6038 7.52929C26.5213 7.62228 26.5487 7.47349 26.4948 7.45373C26.2808 7.37568 26.0429 7.36889 25.837 7.39733C25.7494 7.40965 25.8372 7.55603 25.749 7.47387C25.7428 7.46832 25.7651 7.39005 25.7411 7.38171C25.6866 7.36293 25.5832 7.37692 25.541 7.37072C25.4596 7.35837 25.4461 7.35916 25.3691 7.35827C25.2639 7.35637 25.1387 7.31746 25.0258 7.3352C25.0017 7.33922 25.0336 7.41944 24.9952 7.4331C24.9567 7.44673 24.855 7.43993 24.8207 7.42101C24.7864 7.40209 24.801 7.33903 24.7949 7.32458C24.7449 7.20258 24.6272 7.37155 24.6121 7.37572C24.3359 7.44692 24.0991 7.35067 23.8399 7.35094C23.6431 7.35136 23.4326 7.38313 23.2454 7.37878C23.0223 7.37327 22.8332 7.3298 22.6165 7.33727C22.5936 7.33797 22.6204 7.4323 22.5925 7.43334C22.2957 7.44432 22.001 7.43404 21.7055 7.37035C21.6758 7.36388 21.714 7.28106 21.6844 7.26965C21.5031 7.20158 21.2163 7.03807 21.1086 7.39867C20.9858 7.38459 20.8367 7.37004 20.7269 7.29736C20.6561 7.25057 20.7249 7.16035 20.6378 7.19885C20.6182 7.20742 20.6437 7.28644 20.6143 7.29333C20.4904 7.32225 20.355 7.29657 20.2325 7.33739C20.2075 7.34588 20.2143 7.41669 20.2073 7.42944C20.1479 7.53269 20.0491 7.362 20.0275 7.3496C19.8635 7.25711 19.7436 7.29351 19.5908 7.29125C19.5553 7.29069 19.5973 7.38579 19.5631 7.38866C19.3861 7.40229 19.2028 7.39412 19.0294 7.35192C18.9909 7.34231 19.0263 7.2613 19.0079 7.25256C18.9267 7.21501 18.9087 7.36801 18.8308 7.33495C18.8143 7.32818 18.8236 7.25883 18.8206 7.25121C18.7737 7.13165 18.733 7.30106 18.7209 7.3048C18.5684 7.35591 18.4708 7.17905 18.3235 7.20409C18.3058 7.20727 18.3456 7.29502 18.296 7.29858C17.9658 7.3228 17.6166 7.2987 17.2898 7.22851C17.239 7.21771 17.2752 7.1518 17.272 7.14367C17.2199 7.0167 17.1862 7.18682 17.1696 7.19323C17.0389 7.23935 16.9168 7.09668 16.828 7.29931C16.2744 7.22899 15.7233 7.34278 15.1743 7.16125C15.1673 7.15915 15.1798 7.07536 15.1659 7.07153C14.9982 7.02448 15.0304 7.1547 14.9195 7.31396C14.8915 7.35395 14.8065 7.16167 14.799 7.14758C14.7715 7.09564 14.8 6.97099 14.7908 6.96093C14.7148 6.88195 14.7272 7.29417 14.6248 7.2943C14.6216 7.29362 14.635 7.21774 14.6264 7.2102C14.5997 7.18651 14.5732 7.21666 14.5471 7.19055C14.4872 7.13011 14.4659 6.9298 14.3745 7.04638C14.363 7.06151 14.3806 7.29534 14.2892 7.2843C14.2527 7.27969 14.0913 7.2837 14.046 7.26855C14.0008 7.25341 14.0319 7.17806 14.0286 7.1748C13.9069 7.07516 13.953 7.03386 13.8921 6.88635C13.8311 6.73939 13.848 7.0899 13.8231 7.12902C13.7982 7.16803 13.7089 7.08582 13.687 7.05725C13.6651 7.02865 13.6924 6.98077 13.6729 6.96459C13.5437 6.85889 13.6162 7.13858 13.5736 7.19421C13.4732 7.32593 13.395 7.06599 13.303 7.04052C13.2781 7.03364 13.2984 7.09285 13.2763 7.09838C13.1886 7.11953 13.1358 7.03842 13.036 7.11279C13.0197 7.12491 12.939 7.28119 12.8868 7.1665C12.8794 7.14996 12.9004 7.08518 12.863 7.07067C12.8071 7.0489 12.7065 7.03474 12.6465 7.05639C12.6021 7.07241 12.6529 7.17915 12.5971 7.14599C12.5724 7.13118 12.6183 7.06874 12.5717 7.04614C12.5254 7.02354 12.4069 7.02628 12.3618 7.02844C12.3168 7.03064 12.3415 7.11161 12.3378 7.11706C12.3158 7.1483 12.2294 7.18735 12.2218 7.18725C11.8368 7.19713 11.4818 7.06066 11.107 7.10583C11.0776 7.10926 11.0972 7.19464 11.0927 7.19604C10.992 7.23181 11.0714 7.00481 11.0011 6.92883C11.0112 7.10209 10.9697 7.07071 10.8988 7.08972C10.8646 7.09901 10.8832 7.1661 10.8801 7.17297C10.8294 7.27486 10.7941 7.14325 10.785 7.11633C10.7514 7.01729 10.7149 7.13431 10.692 7.06811C10.6692 7.0024 10.7218 6.905 10.6537 6.90624C10.6347 6.96827 10.6852 7.13034 10.6335 7.15661C10.4386 7.25597 10.0749 7.1288 9.91818 7.11559C9.76181 7.1024 9.7113 7.11384 9.62018 7.09143C9.45558 7.0509 9.51591 7.17115 9.4137 7.22619C9.3112 7.28123 9.36103 6.98535 9.3463 6.92175C9.33183 6.85817 9.31604 6.92362 9.29805 6.88867C9.28011 6.85373 9.31894 6.81048 9.27676 6.79736C9.23456 6.78425 9.11919 6.89736 9.10423 6.96386C9.0726 7.10476 9.1246 7.25264 9.01293 7.20068C9.00651 7.19759 9.02735 7.1198 9.00276 7.11193C8.80745 7.05204 8.60454 7.04833 8.40947 6.99536C8.38265 6.98795 8.40664 6.9014 8.39103 6.89611C8.22844 6.84076 8.28655 6.98669 8.19744 7.1488C8.21745 6.93306 8.16817 6.80107 8.04477 6.7998C7.9706 6.79896 7.98336 6.89318 7.93538 6.95959C7.92099 6.97961 7.86851 6.91491 7.85899 6.95922C7.82763 7.10407 7.87707 7.26622 7.74984 7.20165C7.74427 7.19859 7.76203 7.1193 7.74275 7.1145C7.61807 7.08307 7.60316 7.23458 7.46839 7.25292C7.36276 7.26732 7.17489 7.17493 7.05462 7.15991C7.05715 6.91736 6.94354 6.9729 6.89745 7.14013C6.8194 7.13328 6.73509 7.14274 6.65964 7.11962C6.63368 7.11174 6.65074 7.04152 6.64746 7.03393C6.59725 6.9149 6.56332 7.0776 6.54647 7.08398C6.36387 7.14598 6.21508 7.02267 6.04081 7.14318C6.03462 7.14752 6.02461 7.31601 5.97801 7.19299C5.975 7.18451 6.03256 7.10785 5.95058 7.10192C5.86859 7.09598 5.71402 7.00566 5.60019 7.08373C5.57264 7.10253 5.50297 7.2393 5.44705 7.13244C5.43959 7.11793 5.44775 7.06961 5.43699 7.04272C5.40223 6.95704 5.38325 7.12733 5.34239 6.98266C5.30153 6.83799 5.21654 6.72965 5.10174 6.82946C5.09808 6.83237 5.07091 6.96734 5.03481 6.96521C4.97718 6.96168 4.89536 6.93356 4.83519 6.93444C4.80638 6.93491 4.82482 7.01873 4.81982 7.02026C4.62609 7.06722 4.48822 6.99251 4.28069 6.96008C4.24265 6.95397 4.13331 7.06826 4.05967 6.9779C3.9788 6.87899 4.0619 6.46752 3.87602 6.56555C3.80105 6.60476 3.70612 7.12678 3.57139 6.85632C3.31008 6.92334 3.06843 6.78492 2.80639 6.88061C2.79461 6.88485 2.75735 7.03054 2.72965 7.02856C2.68852 7.02533 2.66594 6.95724 2.63658 6.95275C2.51353 6.93224 2.40092 6.9905 2.28228 6.98144C2.23724 6.97815 2.25299 6.90774 2.19927 6.9038C2.14558 6.89993 2.10978 6.99265 2.03702 6.94787C1.98207 6.91374 1.92713 6.72423 1.8542 6.70214C1.85141 6.88907 1.80133 6.88522 1.71229 6.93457C1.69518 6.94414 1.71353 7.0092 1.70543 7.01709C1.67248 7.05062 1.64199 6.9967 1.61071 7.0332C1.60309 7.04197 1.60274 7.1058 1.59652 7.11657C1.54361 7.21058 1.45645 7.06699 1.44148 7.04199C1.38412 6.94704 1.3573 7.03006 1.31329 6.99267C1.26937 6.95528 1.33505 6.90855 1.28373 6.88586C1.17735 6.83893 1.04067 6.84924 0.932629 6.84631C0.889525 6.84553 0.918931 6.93075 0.912762 6.93261C0.823622 6.95423 0.733478 6.86358 0.684056 7.03332C0.622252 6.59444 0.630302 7.07589 0.502886 6.98803C0.49285 6.98093 0.480082 6.77339 0.518616 6.74292C0.557144 6.71248 0.615576 6.77735 0.669037 6.72985C0.681696 6.71871 0.754219 6.52423 0.764115 6.51245C0.841621 6.42038 0.852606 6.73052 0.856709 6.74755C0.903211 6.93139 0.991831 6.72187 1.01517 6.70739C1.12193 6.64106 1.21264 6.68467 1.30194 6.63733C1.36034 6.60672 1.36606 6.40357 1.41192 6.40979C1.56437 6.43034 1.61759 6.71374 1.76125 6.46801C1.79205 6.41561 1.76144 6.19356 1.87182 6.36816C1.87875 6.37917 1.9607 6.53889 2.00805 6.43786C2.01399 6.42512 2.0138 6.36041 2.02165 6.35498C2.07421 6.31981 2.10926 6.37137 2.16651 6.34668C2.22376 6.32199 2.2926 6.28518 2.35797 6.30713C2.39736 6.32025 2.4479 6.44082 2.46676 6.47033C2.52001 6.55537 2.5771 6.41595 2.61009 6.51892C2.64336 6.6224 2.57832 6.77957 2.66555 6.84643C2.66878 6.67831 2.6762 6.50575 2.6814 6.33667C2.87256 6.34259 3.06065 6.39695 3.25245 6.38952C3.27623 6.38843 3.25192 6.29805 3.27741 6.29455C3.38495 6.28019 3.4789 6.34463 3.59043 6.31897C3.67676 6.29876 3.77144 6.20306 3.86171 6.17895C3.91685 6.37133 4.05081 6.30602 4.14812 6.32361C4.18222 6.32968 4.17994 6.38106 4.20418 6.39782C4.29564 6.45982 4.25278 6.28981 4.27785 6.26306C4.38542 6.14888 4.39463 6.53367 4.52146 6.52417C4.52818 6.52379 4.61031 6.31868 4.62162 6.30591C4.6935 6.22261 4.63352 6.3773 4.6785 6.39245C4.76063 6.42015 4.81771 6.46913 4.91407 6.40905C4.94217 6.39126 5.00956 6.26341 5.06413 6.3623C5.07131 6.37525 5.06735 6.44305 5.07312 6.44702C5.17771 6.5132 5.18045 6.30017 5.24022 6.22802C5.29999 6.15589 5.39231 6.30295 5.4111 6.34533C5.46025 6.45498 5.37344 6.39219 5.37077 6.40295C5.3395 6.531 5.40683 6.50895 5.45828 6.51977C5.46573 6.72865 5.53767 6.71611 5.51161 6.53015C5.50865 6.50984 5.46861 6.52931 5.45828 6.51977C5.50344 6.31483 5.58251 6.28859 5.66984 6.4801C5.71072 6.56986 5.67207 6.67451 5.79626 6.63623C5.85262 6.61894 5.83084 6.47512 5.88057 6.43591C5.9942 6.34645 6.14185 6.48061 6.25899 6.45947C6.3015 6.45179 6.26009 6.37307 6.28915 6.36511C6.36625 6.34374 6.43426 6.40282 6.5117 6.37256C6.51872 6.36971 6.50158 6.2873 6.52566 6.28625C6.70823 6.27668 6.86719 6.32947 7.05781 6.33093C7.14991 6.3316 7.31457 6.28615 7.40998 6.29529C7.57533 6.31064 7.77875 6.43048 7.92001 6.40136C8.01215 6.38273 7.99193 6.3003 8.03141 6.24414C8.10759 6.13527 8.24243 6.33028 8.26059 6.36047C8.26114 6.36147 8.18187 6.3809 8.22417 6.42321C8.24876 6.51138 8.2597 6.36085 8.26059 6.36047C8.27251 6.37998 8.43089 6.39869 8.46233 6.38293C8.47942 6.37432 8.46986 6.29622 8.47877 6.29321C8.69054 6.22332 8.90269 6.20347 9.11747 6.23999C9.12126 6.24157 9.11555 6.32892 9.12445 6.33154C9.2488 6.37038 9.32841 6.26352 9.43097 6.20007C9.5335 6.13665 9.61483 6.15789 9.67552 6.30786C9.75289 6.28898 9.86389 6.35528 9.92776 6.3955C9.99163 6.43573 10.0005 6.26569 10.0062 6.26233C10.1815 6.15473 10.2828 6.25206 10.4646 6.26721C10.5511 6.2747 10.7226 6.25004 10.8162 6.23144C10.8902 6.21646 10.9348 6.25631 11.0029 6.23083C11.0122 6.22743 11.0028 6.15172 11.0057 6.1488C11.0817 6.05822 11.0452 6.24331 11.0609 6.27636C11.1178 6.39658 11.153 6.4606 11.2505 6.40405C11.2729 6.3911 11.3384 6.12459 11.3794 6.10901C11.4326 6.08923 11.4125 6.18476 11.4683 6.16162C11.4731 6.15973 11.4721 6.10079 11.5065 6.10339C11.6662 6.11468 11.8404 6.14897 12.0065 6.14306C12.0291 6.14248 12.0001 6.04901 12.0328 6.04663C12.1866 6.03555 12.3551 6.03901 12.5049 6.08276C12.5418 6.09382 12.5187 6.15927 12.5267 6.17871C12.5758 6.29629 12.6455 6.12544 12.657 6.12219C12.9313 6.04009 13.1411 6.1947 13.4207 6.12109C13.4359 6.11677 13.553 5.93362 13.6053 6.0907C13.6089 6.10115 13.6606 6.26185 13.7063 6.15197C13.7091 6.1451 13.6769 6.06237 13.7331 6.0708C13.7893 6.07921 13.8798 6.02396 13.9571 6.11487C13.9816 6.1435 14.0394 6.30381 14.1124 6.17602C14.1171 6.1671 14.2298 5.87815 14.27 6.07751C14.2765 6.11033 14.2697 6.3213 14.3568 6.21313C14.3734 6.19216 14.3432 6.1451 14.3871 6.11572C14.4542 6.07043 14.5433 6.12694 14.6258 6.03296C14.6402 6.01632 14.7015 5.87312 14.7507 5.98181C14.7584 5.99883 14.7438 6.06926 14.7697 6.07715C14.8932 6.11496 15.0225 6.06784 15.1479 6.11657C15.1923 6.1337 15.1696 6.24756 15.2159 6.27807C15.2622 6.30858 15.3555 6.33792 15.404 6.28589C15.4524 6.23383 15.3995 6.05236 15.4721 6.03784C15.7877 5.97477 16.1003 6.08123 16.4154 6.0968C16.4621 6.09912 16.4234 6.03419 16.4923 6.03296C16.7462 6.02813 17.1846 5.96724 17.405 6.10522C17.5815 6.21574 17.3593 6.29987 17.4942 6.34484C17.5593 6.3663 17.6298 6.15532 17.6455 6.14868C17.799 6.08121 17.9057 6.17467 18.0439 6.14599C18.0724 6.14004 18.0444 6.05453 18.0687 6.05041C18.1517 6.03558 18.2389 6.07375 18.3181 6.06677C18.3537 6.06344 18.3471 5.99813 18.3799 6.00317C18.4582 6.01448 18.5274 6.04193 18.6037 6.10315C18.6107 6.10872 18.5638 6.18997 18.6217 6.19299C18.7154 6.19765 18.8318 6.25804 18.9397 6.19568C18.9717 6.17692 18.9729 6.02765 19.0417 6.13073C19.0562 6.15226 19.0378 6.3315 19.1179 6.17663C19.1314 6.1509 19.266 5.94201 19.3321 6.07666C19.3495 6.11209 19.394 6.25876 19.4325 6.23571C19.4377 6.23204 19.4168 6.15186 19.4487 6.14404C19.5611 6.11787 19.6789 6.12643 19.7943 6.10131C19.8252 6.09445 19.7792 6.01148 19.8252 6.0039C19.9516 5.98293 20.1093 6.00406 20.2329 6.03003C20.2785 6.03976 20.247 6.10848 20.2503 6.11596C20.3036 6.23761 20.3352 6.07341 20.3528 6.06384C20.4629 6.00651 20.5467 6.08364 20.6481 6.06323C20.6761 6.0578 20.6563 5.97951 20.6618 5.97253C20.7196 5.90432 20.6766 6.04492 20.7132 6.06042C20.8156 6.10431 20.9299 6.09801 21.0335 6.08801C21.0716 6.08422 21.0288 5.99344 21.063 5.99109C21.2652 5.97544 21.4754 5.98413 21.6727 6.03418C21.7099 6.04376 21.6865 6.11367 21.6942 6.12964C21.7476 6.24134 21.8258 6.08897 21.8438 6.07446C21.9257 6.00819 21.9574 6.07001 22.0297 6.05847C22.3828 6.00102 22.8187 6.04196 23.152 6.06726C23.5862 6.09981 23.9232 6.16631 24.3374 6.14904C24.3637 6.14803 24.3371 6.05504 24.3598 6.05297C24.6528 6.03056 24.9412 6.0669 25.2347 6.04004C25.2588 6.038 25.224 5.94984 25.2627 5.9436C25.342 5.93019 25.4425 5.93498 25.5226 5.96313C25.5617 5.97669 25.5093 6.05234 25.5487 6.06445C25.6403 6.09281 25.7386 6.09909 25.8327 6.08496C25.8728 6.07875 25.8123 5.98859 25.8644 5.98755C26.2191 5.9786 26.5675 5.96307 26.926 6.07983C26.9506 6.08785 26.9721 6.2711 27.0244 6.23596C27.0283 6.1851 27.0281 6.12528 27.0298 6.07092C27.5462 6.04164 28.0573 6.10516 28.5752 6.11499C28.597 6.11538 28.5593 6.01828 28.6015 6.01855C28.8462 6.01999 29.0838 5.99309 29.334 6.0896C29.3589 6.09903 29.3461 6.26985 29.4193 6.24401C29.4322 6.2393 29.5424 6.21652 29.5709 6.17944C29.5748 6.17385 29.5547 6.09412 29.5902 6.09179C29.7965 6.07969 30.0128 6.09789 30.2188 6.1466C30.2521 6.15462 30.2167 6.23952 30.2403 6.24597C30.4083 6.29104 30.591 6.22649 30.7516 6.30358C30.859 6.35549 30.8192 6.50226 30.8763 6.64672C30.8844 6.6671 30.9509 6.67033 30.9544 6.75439C30.9632 6.96575 30.931 7.19719 30.9442 7.42248C30.947 7.471 31.0361 7.41874 30.9833 7.536C30.9796 7.54385 30.915 7.58277 30.8991 7.62255C30.8881 7.65005 30.908 7.73554 30.8854 7.77074C30.8628 7.80592 30.838 7.73426 30.8005 7.77563C30.7631 7.8175 30.7795 7.91475 30.7047 7.92626ZM10.2154 6.57531C10.2745 6.65698 10.2832 6.35788 10.2193 6.42944C10.2162 6.43325 10.2123 6.57131 10.2154 6.57531ZM3.05958 6.62255C3.1369 6.75448 3.18981 6.5605 3.13526 6.45862C3.08073 6.35684 3.03602 6.58256 3.05958 6.62255ZM2.2578 6.71887C2.34817 6.82288 2.3624 6.39875 2.26561 6.48449C2.25998 6.48934 2.25252 6.71283 2.2578 6.71887ZM30.6115 6.68786C30.6124 6.69183 30.6602 6.6957 30.6613 6.69177C30.6868 6.59677 30.5912 6.5891 30.6115 6.68786ZM1.46218 6.82373C1.49039 6.8811 1.57162 6.81487 1.53656 6.74353C1.50835 6.68613 1.42705 6.75236 1.46218 6.82373ZM13.3005 6.89453C13.3015 6.89898 13.3358 6.903 13.3351 6.8778C13.3327 6.79666 13.285 6.81956 13.3005 6.89453ZM0.109923 6.82861C0.309712 6.84457 0.430846 7.19492 0.213278 7.15539C0.173879 7.14824 0.298192 7.04367 0.248045 7.01208C0.156286 6.95454 0.0953577 7.17451 0.00171897 7.05664C-0.0152343 7.03506 0.0985276 6.82692 0.110278 6.82812C0.110163 6.82828 0.110044 6.82845 0.109923 6.82861ZM10.2494 6.93457C10.2506 6.93852 10.2981 6.94227 10.2992 6.93835C10.3249 6.8434 10.2293 6.83578 10.2494 6.93457ZM15.3013 7.07946C15.3039 7.08789 15.4141 7.09577 15.4177 7.08801C15.4751 6.93273 15.2524 6.91634 15.3013 7.07946ZM7.05272 7.15344C7.00093 7.24896 6.93898 7.26021 6.89769 7.14025C6.94916 7.14662 7.00097 7.14756 7.05272 7.15344Z" fill="white"/>
<path d="M20.4679 1.94214C20.4354 1.93723 20.4305 1.85948 20.4009 1.83848C20.2775 1.7499 20.2514 1.68296 20.1457 1.59248C19.989 1.45828 19.4251 1.23113 19.6504 0.840937C19.6504 0.840927 19.6504 0.840918 19.6504 0.840908C19.6526 0.837083 19.6549 0.833241 19.6573 0.829384C19.702 0.756104 19.7932 0.700553 19.8483 0.620283C19.9034 0.539976 20.212 -0.00580122 20.2926 3.43141e-05C20.4071 0.0125274 20.5458 0.278195 20.598 0.300142C20.6338 0.315113 20.7032 0.28942 20.7509 0.305235C20.9044 0.356235 20.9554 0.433799 21.1565 0.371122C21.1652 0.470335 21.1739 0.569548 21.1825 0.66876C21.266 0.673263 21.31 0.822919 21.3522 0.840424C21.3868 0.854773 21.4379 0.809788 21.4729 0.826546C21.5124 0.845027 21.5353 0.938673 21.6089 0.96908C21.7295 1.01921 21.8336 0.884973 21.9116 0.905309C21.9924 0.926436 22.0552 1.06829 22.1738 1.0684C22.1942 1.05881 22.2146 1.04922 22.2351 1.03964C22.248 0.998758 22.2609 0.957881 22.2739 0.917C22.3285 0.926008 22.3048 1.01145 22.3453 1.03659C22.3928 1.0662 22.4582 1.01002 22.4906 1.02918C22.5172 1.04494 22.5208 1.12235 22.5575 1.13881C22.6108 1.16311 22.6468 1.07516 22.6828 1.0756C22.6971 1.07593 22.9236 1.14669 22.9353 1.15257C23.0232 1.19903 22.9662 1.315 23.0292 1.36437C23.2041 1.50085 23.4515 1.52341 23.6472 1.59094C23.7346 1.62106 23.8129 1.67489 23.8809 1.73799C23.5925 1.95247 23.7373 2.33255 23.8933 1.82646C23.9438 1.94041 24.0753 1.8554 24.1461 1.92353C24.1919 1.96771 24.1931 2.05106 24.2704 2.09352C24.4077 2.16844 24.6576 2.07776 24.5127 2.41877C24.7041 2.45442 24.7751 2.64947 24.9948 2.40138C25.0457 2.40787 25.0541 2.63602 25.0869 2.68533C25.1181 2.73187 25.4081 3.00016 25.4603 3.0359C25.5124 3.07164 25.6053 3.1314 25.6656 3.13328C25.7409 3.13611 25.9497 2.86781 25.8557 3.26813C25.9912 3.30958 26.0281 3.34393 26.1165 3.44775C26.1325 3.46654 26.1055 3.51847 26.1173 3.52531C26.1415 3.5393 26.2043 3.52569 26.2502 3.5461C26.3257 3.5797 26.3048 3.70964 26.3908 3.54239C26.4534 3.54219 26.516 3.54199 26.5787 3.54178C26.577 3.58268 26.5753 3.62357 26.5736 3.66447C26.6185 3.64473 26.6633 3.62499 26.7081 3.60525C26.5428 3.82365 26.7994 3.78661 26.8201 3.61846C26.8829 3.71964 26.9457 3.82083 27.0085 3.92201C26.8413 4.18223 27.1902 4.06812 27.2564 3.91233C27.2666 3.91855 27.2769 3.92476 27.2872 3.93098C27.3372 4.05467 27.4544 4.04479 27.5379 4.1566C27.6213 4.26841 27.5958 4.28845 27.5585 4.431C27.5887 4.43903 27.6189 4.44706 27.6491 4.45509C27.9809 4.19684 27.6195 4.76697 28.0036 4.64367C27.9561 4.899 28.2052 4.89433 28.3649 4.90079C28.3835 4.90155 28.4075 4.86054 28.4338 4.85881C28.4979 4.8551 28.5858 4.97641 28.6584 4.84132C28.6772 4.90341 28.6961 4.9655 28.7149 5.02759C28.7624 5.0228 28.8098 5.01802 28.8573 5.01324C28.881 4.9717 28.9048 4.93016 28.9286 4.88862C28.9145 5.06883 29.0519 5.07579 29.0848 5.13977C29.0912 5.15263 29.0605 5.2111 29.0838 5.24538C29.111 5.28572 29.1912 5.30951 29.226 5.35339C29.2801 5.30019 29.3342 5.24698 29.3882 5.19378C29.4887 5.20597 29.4205 5.38947 29.4604 5.42979C29.4676 5.43697 29.63 5.51473 29.6405 5.516C29.7254 5.52732 29.7881 5.3737 29.9689 5.51873C30.001 5.54464 30.0012 5.61041 30.032 5.63082C30.0863 5.66696 30.3208 5.65334 30.3938 5.5578C30.3875 5.72653 30.6011 5.77938 30.6334 5.84785C30.6431 5.86872 30.5992 5.95316 30.6391 5.99956C30.6714 6.03725 30.8139 6.03163 30.859 6.07235C30.9066 6.11588 30.8862 6.19628 30.9078 6.21529C30.9283 6.23318 30.9818 6.18965 31.0131 6.20815C31.1103 6.26685 31.1474 6.40809 31.2242 6.4546C31.2253 6.45531 31.2265 6.45601 31.2277 6.45668L31.9308 6.92914L31.2277 7.27363C31.1173 7.33856 31.113 7.5578 31.062 7.68411C31.0324 7.68687 30.989 7.66463 30.9644 7.67843C30.6587 7.84795 30.2998 8.0146 29.9758 8.15445C29.8255 8.21955 29.3456 8.19751 29.6552 8.51784C29.6441 8.61167 29.2009 8.66632 29.1319 8.70315C29.0629 8.73999 29.048 8.8381 28.9953 8.86982C28.8364 8.96546 28.6954 8.98239 28.5336 9.15371C28.492 9.19814 28.4838 9.30889 28.4533 9.32523C28.4166 9.34472 28.3334 9.29019 28.2839 9.31225C28.1664 9.36542 27.9737 9.51038 27.8593 9.55867C27.8383 9.56732 27.7925 9.50375 27.7525 9.49873C27.5963 9.4789 27.4788 9.55627 27.6248 9.75945C27.4151 9.71734 27.3509 9.90327 27.226 9.98452C26.9615 10.1558 26.4361 10.3921 26.251 10.6197C26.1343 10.7633 26.194 10.8578 25.9254 10.9016C25.8658 10.9113 25.8027 10.9145 25.7306 10.9267C25.5615 10.955 25.3308 10.85 25.3491 11.1265C25.1624 11.1599 25.0622 11.2705 24.8413 11.1526C24.8533 11.2045 24.8652 11.2565 24.8772 11.3084C24.8589 11.3205 24.8406 11.3325 24.8223 11.3445C24.7921 11.3058 24.7619 11.2671 24.7316 11.2284C24.5894 11.2954 24.5172 11.5679 24.4017 11.6329C24.208 11.7421 23.6732 11.9612 23.4579 12.0098C23.3435 12.0356 23.3904 12.1288 23.2278 11.9754C23.2136 12.0008 23.1994 12.0263 23.1851 12.0517C23.195 12.1001 23.2049 12.1485 23.2147 12.197C23.0913 12.2704 22.9074 12.2925 22.7893 12.3615C22.5742 12.4875 22.3145 12.7863 22.0554 12.8381C21.9903 12.851 21.8741 12.8065 21.8214 12.8382C21.7447 12.8842 21.806 13.034 21.7092 13.0934C21.5422 13.1954 21.1335 13.2162 20.9805 13.321C20.935 13.3521 20.9426 13.4166 20.9129 13.441C20.7889 13.5443 20.6734 13.6053 20.5875 13.7615C20.3688 13.7102 20.2818 13.5313 20.1378 13.3833C20.0289 13.2716 19.7517 13.0273 19.671 12.9211C19.6143 12.8464 19.5926 12.7209 19.5271 12.6405C19.6561 12.4716 19.7725 12.5083 19.9824 12.5534C20.2343 12.4013 20.4862 12.2492 20.7381 12.0972C20.7892 12.1322 20.8403 12.1672 20.8915 12.2022C20.8915 12.2023 20.8916 12.2024 20.8916 12.2025C21.0217 12.2019 20.9912 12.0533 21.0277 11.9946C21.3765 11.4321 22.4931 11.07 23.0668 10.7795C23.1904 10.7168 23.5426 10.4265 23.6702 10.4576C23.7033 10.4658 23.7523 10.537 23.7768 10.5272C23.9536 10.366 24.1303 10.2048 24.3071 10.0436C24.7901 9.91924 25.165 9.57513 25.574 9.31519C26.6805 8.61185 27.7696 7.90462 28.8958 7.27824C29.1135 7.15731 29.3549 6.94341 29.5868 6.85756C29.6836 6.82164 29.7895 6.92025 29.8537 6.76413C29.8735 6.7957 29.8934 6.82728 29.9132 6.85886C29.9917 6.76157 30.0139 6.65085 30.1228 6.578C30.2146 6.51677 30.4642 6.3663 30.5556 6.32998C30.6028 6.31091 30.6214 6.38063 30.662 6.35679C30.67 6.352 30.6785 6.34548 30.6873 6.33761L30.6873 7.3927C30.6018 7.36441 30.4379 7.35661 30.3528 7.30748C30.2655 7.25713 30.1586 7.10277 30.0858 7.07412C29.8237 6.97042 29.5012 6.92156 29.2598 6.74539C29.1932 6.69654 29.1469 6.56554 29.1234 6.55487C29.0773 6.53431 29.0205 6.6028 28.9856 6.59571C28.8088 6.5594 28.6296 6.3356 28.4863 6.24805C28.0191 5.96276 27.498 5.70608 27.0342 5.41969C26.7411 5.23882 26.238 4.96617 25.9958 4.75013C25.9436 4.70352 26.0074 4.62943 25.9576 4.60066C25.9023 4.56877 25.84 4.60772 25.8115 4.59736C25.6144 4.52598 25.187 4.35501 25.0514 4.20011C25.0257 4.17051 25.04 4.09184 25.0206 4.08097C25.0109 4.07534 24.9632 4.10714 24.93 4.09403C24.6367 3.9784 24.4548 3.83878 24.199 3.67077C23.709 3.34931 23.0741 3.09313 22.5676 2.74098C22.4573 2.66428 22.4522 2.48937 22.4351 2.48126C22.3978 2.46319 22.3248 2.53673 22.24 2.51631C21.9583 2.4476 21.6872 2.16763 21.4328 2.07878C21.3072 2.03482 21.088 2.0551 20.9625 2.01513C20.8622 1.98322 20.677 1.81865 20.6096 1.84422C20.5687 1.85957 20.5034 1.94699 20.4679 1.94214ZM24.3099 2.21288C24.2074 2.35374 24.4461 2.32529 24.43 2.20866C24.4264 2.1824 24.3365 2.17631 24.3099 2.21288ZM30.4077 7.64955C30.434 7.69152 30.4602 7.73349 30.4865 7.77546C30.4981 7.74499 30.5097 7.71453 30.5213 7.68407C30.4941 7.66541 30.4669 7.64675 30.4398 7.62809C30.4291 7.63524 30.4184 7.6424 30.4077 7.64955Z" fill="white"/>
</svg>
