<svg width="39" height="221" viewBox="0 0 39 221" fill="none" xmlns="http://www.w3.org/2000/svg">
<path d="M17.2875 215.924C17.2251 214.702 17.2918 213.101 17.3834 211.884C17.4118 211.502 17.5388 211.695 17.5642 211.432C17.6135 210.917 17.5512 210.437 17.6101 209.928C17.6302 209.76 17.8313 209.97 17.8478 209.793C17.9367 208.824 17.8855 207.907 17.9282 206.926C18.1392 202.09 18.2147 197.337 18.3063 192.443C18.3364 190.829 18.5189 188.868 18.4391 187.201C18.4296 187.006 18.253 187.122 18.2385 187.085C18.0157 186.504 18.3722 186.698 18.4195 186.318C18.6065 184.814 18.6228 183.14 18.5546 181.692C18.5251 181.076 18.1744 181.694 18.3713 181.073C18.3846 181.03 18.5721 181.187 18.592 181.018C18.637 180.635 18.6035 179.908 18.6184 179.611C18.6479 179.038 18.6461 178.944 18.6482 178.402C18.6527 177.662 18.7459 176.782 18.7035 175.988C18.6938 175.819 18.5016 176.043 18.4689 175.773C18.4363 175.502 18.4526 174.787 18.4979 174.545C18.5432 174.304 18.6943 174.407 18.7289 174.364C19.0212 174.013 18.6164 173.185 18.6064 173.078C18.4358 171.136 18.6664 169.471 18.6657 167.648C18.6648 166.264 18.5886 164.784 18.5991 163.468C18.6122 161.899 18.7164 160.569 18.6985 159.045C18.6968 158.884 18.4708 159.073 18.4683 158.876C18.4421 156.789 18.4667 154.716 18.6192 152.638C18.6347 152.43 18.8332 152.699 18.8605 152.49C19.0236 151.215 19.4153 149.198 18.5514 148.441C18.5851 147.578 18.62 146.529 18.7941 145.757C18.9062 145.259 19.1223 145.742 19.0301 145.131C19.0096 144.993 18.8203 145.172 18.8038 144.965C18.7345 144.094 18.796 143.142 18.6982 142.28C18.6779 142.105 18.5082 142.152 18.4777 142.103C18.2304 141.685 18.6392 140.99 18.669 140.839C18.8905 139.685 18.8033 138.842 18.8087 137.768C18.8101 137.518 18.5823 137.813 18.5754 137.573C18.5427 136.328 18.5623 135.039 18.6634 133.82C18.6864 133.549 18.8805 133.798 18.9014 133.669C18.9914 133.097 18.6249 132.971 18.704 132.423C18.7203 132.307 18.8864 132.372 18.9047 132.351C19.1911 132.022 18.7852 131.735 18.7763 131.65C18.6539 130.577 19.0775 129.892 19.0175 128.855C19.0099 128.731 18.7997 129.011 18.7912 128.662C18.7332 126.34 18.7909 123.885 18.959 121.586C18.9849 121.229 19.1428 121.484 19.1623 121.461C19.4665 121.095 19.0589 120.858 19.0436 120.741C18.9331 119.822 19.2749 118.963 18.7894 118.339C18.9579 114.446 18.6853 110.57 19.1202 106.71C19.1252 106.66 19.3259 106.748 19.3351 106.651C19.4478 105.471 19.1359 105.698 18.7543 104.917C18.6585 104.721 19.1192 104.123 19.1529 104.07C19.2774 103.877 19.576 104.077 19.6001 104.013C19.7893 103.479 18.8017 103.566 18.8014 102.845C18.8031 102.823 18.9848 102.917 19.0029 102.857C19.0597 102.669 18.9874 102.483 19.05 102.299C19.1948 101.878 19.6746 101.728 19.3954 101.085C19.3591 101.004 18.7989 101.128 18.8254 100.485C18.8364 100.229 18.8268 99.0934 18.8631 98.7752C18.8994 98.4575 19.0799 98.6757 19.0877 98.653C19.3264 97.7968 19.4253 98.1215 19.7787 97.6925C20.1308 97.2636 19.2911 97.3825 19.1974 97.2077C19.1039 97.0325 19.3009 96.4047 19.3693 96.2505C19.4378 96.0963 19.5525 96.2886 19.5913 96.1515C19.8445 95.2425 19.1745 95.7525 19.0412 95.453C18.7257 94.7468 19.3484 94.1967 19.4094 93.5503C19.4259 93.3753 19.284 93.5181 19.2708 93.3623C19.2201 92.7454 19.4144 92.3743 19.2363 91.6725C19.2072 91.5577 18.8328 90.9903 19.1076 90.623C19.1472 90.571 19.3024 90.7188 19.3372 90.4559C19.3893 90.0631 19.4232 89.3554 19.3714 88.9332C19.333 88.6215 19.0773 88.9788 19.1567 88.5864C19.1922 88.412 19.3418 88.7352 19.3959 88.4076C19.4501 88.0818 19.4435 87.2485 19.4383 86.9315C19.4331 86.6151 19.2391 86.7883 19.226 86.7627C19.1512 86.6079 19.0577 86.0006 19.0579 85.9469C19.0342 83.2397 19.3612 80.7432 19.2529 78.1073C19.2447 77.9005 19.0402 78.0383 19.0368 78.0067C18.9511 77.2986 19.4949 77.8569 19.677 77.3622C19.2619 77.4337 19.3371 77.1417 19.2915 76.6429C19.2693 76.4025 19.1086 76.5334 19.0921 76.5115C18.848 76.155 19.1633 75.9068 19.2278 75.8429C19.4651 75.6068 19.1847 75.3499 19.3433 75.1892C19.5007 75.0287 19.7341 75.3982 19.7311 74.9198C19.5825 74.7856 19.1942 75.1408 19.1313 74.7776C18.8933 73.4072 19.1979 70.8491 19.2295 69.7472C19.2612 68.6476 19.2338 68.2923 19.2874 67.6516C19.3845 66.4941 19.0965 66.9183 18.9646 66.1996C18.8328 65.4788 19.5416 65.8292 19.6939 65.7256C19.8462 65.6238 19.6895 65.5128 19.7732 65.3863C19.8569 65.2602 19.9605 65.5332 19.9919 65.2366C20.0233 64.9398 19.7524 64.1284 19.593 64.0233C19.2555 63.8009 18.9012 64.1665 19.0257 63.3813C19.0331 63.3361 19.2195 63.4827 19.2383 63.3098C19.3818 61.9362 19.3907 60.5094 19.5176 59.1376C19.5353 58.949 19.7427 59.1176 19.7553 59.0079C19.888 57.8645 19.5384 58.2732 19.15 57.6465C19.6668 57.7872 19.983 57.4407 19.9861 56.5729C19.9881 56.0512 19.7624 56.1411 19.6033 55.8037C19.5553 55.7025 19.7103 55.3333 19.6042 55.2665C19.2572 55.0459 18.8687 55.3936 19.0234 54.4989C19.0307 54.4596 19.2207 54.5846 19.2322 54.449C19.3075 53.5723 18.9445 53.4674 18.9006 52.5197C18.8661 51.7768 19.0874 50.4557 19.1234 49.6099C19.7044 49.6276 19.5714 48.8288 19.1708 48.5047C19.1872 47.9558 19.1645 47.3629 19.2199 46.8323C19.2388 46.6497 19.407 46.7697 19.4252 46.7467C19.7103 46.3936 19.3206 46.155 19.3053 46.0365C19.1567 44.7523 19.4522 43.7061 19.1635 42.4805C19.1531 42.4371 18.7494 42.3666 19.0441 42.0389C19.0645 42.0177 19.2481 42.4225 19.2623 41.846C19.2765 41.2694 19.4929 40.1825 19.3059 39.382C19.2608 39.1883 18.9332 38.6983 19.1892 38.305C19.224 38.2526 19.3397 38.31 19.4041 38.2343C19.6094 37.9899 19.2014 37.8564 19.548 37.5691C19.8946 37.2817 20.1541 36.684 19.915 35.8767C19.9081 35.851 19.5847 35.6599 19.5898 35.406C19.5983 35.0008 19.6656 34.4255 19.6635 34.0023C19.6624 33.7997 19.4616 33.9294 19.4579 33.8942C19.3454 32.5319 19.5244 31.5623 19.6021 30.1029C19.6167 29.8354 19.3429 29.0666 19.5594 28.5486C19.7964 27.9799 20.7821 28.5643 20.5472 27.2572C20.4533 26.7299 19.2028 26.0624 19.8507 25.1149C19.6901 23.2774 20.0217 21.578 19.7925 19.7353C19.7823 19.6524 19.4333 19.3904 19.4381 19.1956C19.4458 18.9063 19.6089 18.7476 19.6197 18.5411C19.6688 17.6758 19.5292 16.8839 19.5509 16.0496C19.5588 15.7328 19.7275 15.8436 19.7369 15.4658C19.7462 15.0883 19.5241 14.8365 19.6313 14.3248C19.7131 13.9385 20.1671 13.5521 20.22 13.0392C19.7722 13.0196 19.7814 12.6674 19.6632 12.0413C19.6403 11.9209 19.4844 12.05 19.4655 11.993C19.3852 11.7614 19.5144 11.5469 19.4269 11.3269C19.4059 11.2734 19.253 11.2709 19.2272 11.2271C19.002 10.8551 19.346 10.2422 19.4059 10.1369C19.6333 9.73341 19.4344 9.54487 19.524 9.23543C19.6136 8.92644 19.7256 9.38844 19.7799 9.02753C19.8923 8.27945 19.8676 7.31823 19.8747 6.55848C19.8765 6.25536 19.6724 6.46216 19.6679 6.41877C19.6161 5.79195 19.8333 5.15799 19.4266 4.81045C20.478 4.37583 19.3247 4.43245 19.5351 3.53642C19.5522 3.46584 20.0493 3.37606 20.1223 3.64704C20.1953 3.91801 20.0398 4.32887 20.1536 4.70484C20.1803 4.79385 20.6462 5.30386 20.6744 5.37345C20.895 5.91848 20.152 5.99578 20.1112 6.02459C19.6708 6.35163 20.1728 6.97483 20.2074 7.13894C20.3663 7.88972 20.2619 8.52764 20.3753 9.1556C20.4486 9.56626 20.9353 9.6065 20.9204 9.92899C20.8711 11.001 20.1922 11.3753 20.7809 12.3855C20.9064 12.6022 21.4384 12.3869 21.0201 13.1631C20.9937 13.2119 20.6111 13.7881 20.8531 14.1211C20.8836 14.1629 21.0387 14.1616 21.0517 14.2167C21.1359 14.5864 21.0124 14.8328 21.0716 15.2355C21.1307 15.638 21.2189 16.1221 21.1663 16.5818C21.1349 16.8589 20.846 17.2143 20.7753 17.3469C20.5716 17.7213 20.9056 18.1228 20.659 18.3548C20.411 18.5887 20.0345 18.1314 19.8744 18.7448C20.2771 18.7676 20.6905 18.8198 21.0956 18.8563C21.0814 20.2006 20.9511 21.5233 20.9689 22.8721C20.9715 23.0393 21.1881 22.8683 21.1964 23.0476C21.2308 23.8039 21.0765 24.4645 21.138 25.2488C21.1864 25.8559 21.4156 26.5217 21.4734 27.1565C21.0125 27.5443 21.169 28.4864 21.1268 29.1707C21.1123 29.4104 20.9892 29.3944 20.949 29.5648C20.8005 30.208 21.2078 29.9066 21.2719 30.083C21.5454 30.8394 20.6236 30.9042 20.6464 31.7961C20.6473 31.8433 21.1386 32.4209 21.1692 32.5004C21.3688 33.0059 20.9982 32.5841 20.9619 32.9004C20.8956 33.478 20.7782 33.8793 20.9221 34.557C20.9648 34.7546 21.271 35.2286 21.0341 35.6123C21.0031 35.6628 20.8407 35.6349 20.8312 35.6755C20.6726 36.4109 21.183 36.4303 21.3558 36.8506C21.5286 37.2709 21.1763 37.9201 21.0748 38.0522C20.8121 38.3979 20.9625 37.7874 20.9368 37.7686C20.63 37.5487 20.6828 38.0223 20.6569 38.384C20.1565 38.4364 20.1866 38.9423 20.632 38.7591C20.6807 38.7382 20.634 38.4567 20.6569 38.384C21.1479 38.7016 21.2107 39.2576 20.7519 39.8718C20.5369 40.1593 20.2862 39.8875 20.3779 40.7608C20.4193 41.1571 20.7639 41.0039 20.8578 41.3537C21.0721 42.1527 20.7507 43.191 20.8014 44.0148C20.8197 44.3138 21.0084 44.0225 21.0274 44.2269C21.0786 44.7692 20.9371 45.2474 21.0096 45.792C21.0164 45.8413 21.2138 45.7208 21.2163 45.8901C21.2393 47.174 21.1128 48.2919 21.1093 49.6323C21.1077 50.28 21.2166 51.4379 21.1947 52.1089C21.1579 53.2717 20.8708 54.7022 20.9406 55.6956C20.9852 56.3435 21.1827 56.2014 21.3172 56.4789C21.578 57.0146 21.1109 57.9629 21.0385 58.0906C21.0361 58.0945 20.9896 57.537 20.8882 57.8345C20.677 58.0074 21.0376 58.0843 21.0385 58.0906C20.9918 58.1744 20.947 59.2881 20.9847 59.5093C21.0053 59.6295 21.1924 59.5623 21.1997 59.6249C21.3671 61.1141 21.4146 62.606 21.3272 64.1164C21.3234 64.143 21.1141 64.1029 21.1078 64.1655C21.0148 65.0399 21.2708 65.5998 21.4228 66.321C21.5747 67.0421 21.5238 67.6139 21.1646 68.0408C21.2098 68.5848 21.051 69.3654 20.9546 69.8146C20.8582 70.2638 21.2656 70.3264 21.2736 70.3659C21.5314 71.5986 21.2982 72.3112 21.2619 73.5901C21.244 74.1981 21.3031 75.4041 21.3476 76.0624C21.3835 76.5827 21.288 76.8961 21.3491 77.3755C21.3572 77.4404 21.5386 77.3749 21.5456 77.3947C21.7626 77.9297 21.3192 77.6726 21.24 77.783C20.952 78.1835 20.7987 78.4309 20.9341 79.1161C20.9652 79.2741 21.6036 79.7344 21.6409 80.0225C21.6883 80.3971 21.4595 80.2557 21.5149 80.6479C21.5194 80.6814 21.6606 80.6745 21.6544 80.9165C21.6273 82.0401 21.5452 83.2649 21.5593 84.4325C21.5607 84.592 21.7847 84.3876 21.7904 84.618C21.8169 85.6992 21.8086 86.8844 21.7038 87.9378C21.6773 88.197 21.5205 88.0345 21.474 88.0908C21.1923 88.4363 21.6016 88.9264 21.6094 89.0072C21.806 90.9359 21.4356 92.412 21.612 94.3777C21.6223 94.4847 22.0611 95.3084 21.6848 95.6758C21.6598 95.701 21.2748 96.0646 21.538 96.386C21.5545 96.406 21.7527 96.1795 21.7325 96.5748C21.7123 96.9701 21.8447 97.6064 21.6269 98.1499C21.5583 98.3219 21.1743 98.7286 21.4804 99.2418C21.5018 99.2752 22.194 100.067 21.7164 100.35C21.6378 100.396 21.1324 100.348 21.3915 100.961C21.4417 101.078 21.5545 100.865 21.6249 101.174C21.7333 101.646 21.598 102.272 21.8231 102.853C21.863 102.954 22.206 103.385 21.9456 103.731C21.9049 103.785 21.7361 103.682 21.7173 103.865C21.6267 104.733 21.7395 105.642 21.6228 106.524C21.5818 106.836 21.309 106.677 21.2359 107.002C21.1628 107.328 21.0926 107.984 21.2172 108.325C21.3419 108.665 21.7766 108.293 21.8114 108.804C21.9625 111.023 21.7075 113.221 21.6702 115.437C21.6646 115.766 21.8202 115.493 21.8231 115.978C21.8347 117.764 21.9805 120.847 21.65 122.396C21.3853 123.638 21.1837 122.075 21.076 123.024C21.0246 123.482 21.53 123.977 21.5459 124.088C21.7075 125.167 21.4836 125.918 21.5523 126.889C21.5666 127.09 21.7714 126.893 21.7813 127.064C21.8168 127.647 21.7254 128.26 21.7421 128.818C21.7501 129.068 21.9065 129.022 21.8945 129.252C21.8674 129.803 21.8016 130.289 21.655 130.826C21.6416 130.875 21.447 130.545 21.4397 130.953C21.4286 131.612 21.2839 132.43 21.4333 133.189C21.4782 133.414 21.8358 133.423 21.5889 133.906C21.5373 134.008 21.1079 133.878 21.4789 134.442C21.5406 134.537 22.041 135.483 21.7184 135.948C21.6335 136.071 21.2822 136.383 21.3374 136.654C21.3462 136.691 21.5383 136.544 21.557 136.768C21.6197 137.558 21.5992 138.387 21.6594 139.199C21.6758 139.416 21.8746 139.093 21.8927 139.416C21.943 140.305 21.8923 141.414 21.8301 142.283C21.8068 142.604 21.6422 142.382 21.6243 142.405C21.3328 142.78 21.7262 143.002 21.7491 143.126C21.8865 143.9 21.7017 144.49 21.7506 145.203C21.7636 145.4 21.9511 145.26 21.9679 145.299C22.1313 145.706 21.7945 145.403 21.7573 145.66C21.6522 146.381 21.6673 147.184 21.6912 147.913C21.7003 148.181 21.9178 147.88 21.9234 148.12C21.9609 149.542 21.9401 151.02 21.8202 152.408C21.7972 152.669 21.6298 152.505 21.5915 152.559C21.3239 152.935 21.6889 153.485 21.7237 153.611C21.8825 154.187 21.7344 154.41 21.762 154.919C21.8996 157.401 21.8015 160.467 21.7409 162.811C21.663 165.865 21.5036 168.234 21.545 171.147C21.5474 171.332 21.7702 171.145 21.7752 171.305C21.8289 173.365 21.7418 175.393 21.8062 177.457C21.811 177.626 22.0222 177.382 22.0372 177.654C22.0693 178.212 22.0578 178.918 21.9904 179.482C21.9579 179.757 21.7767 179.388 21.7477 179.665C21.6797 180.309 21.6647 181 21.6985 181.662C21.7134 181.944 21.9294 181.519 21.9319 181.885C21.9533 184.38 21.9905 186.83 21.7108 189.35C21.6916 189.523 21.2526 189.675 21.3368 190.042C21.4586 190.07 21.602 190.068 21.7322 190.081C21.8023 193.712 21.6501 197.306 21.6266 200.948C21.6257 201.102 21.8583 200.836 21.8576 201.133C21.8542 202.854 21.9186 204.525 21.6874 206.284C21.6648 206.459 21.2556 206.369 21.3175 206.884C21.3288 206.975 21.3834 207.75 21.4722 207.95C21.4856 207.977 21.6766 207.836 21.6822 208.086C21.7112 209.537 21.6676 211.058 21.5509 212.506C21.5317 212.74 21.3283 212.491 21.3128 212.658C21.2049 213.839 21.3595 215.124 21.1748 216.253C21.0505 217.008 20.6989 216.729 20.3528 217.13C20.3039 217.187 20.2962 217.655 20.0949 217.679C19.5885 217.741 19.0341 217.515 18.4944 217.608C18.3781 217.627 18.5033 218.254 18.2224 217.883C18.2036 217.857 18.1104 217.403 18.0151 217.291C17.9492 217.213 17.7444 217.353 17.6601 217.194C17.5758 217.035 17.7475 216.861 17.6484 216.597C17.5481 216.334 17.3151 216.45 17.2875 215.924ZM20.5238 71.837C20.3282 72.253 21.0447 72.3143 20.8733 71.8645C20.8642 71.8427 20.5334 71.8156 20.5238 71.837ZM20.4107 21.5158C20.0946 22.0595 20.5593 22.4316 20.8034 22.048C21.0472 21.6644 20.5065 21.3501 20.4107 21.5158ZM20.1799 15.8775C19.9308 16.5129 20.9468 16.613 20.7414 15.9323C20.7298 15.8928 20.1944 15.8403 20.1799 15.8775ZM20.2542 215.268C20.2447 215.274 20.2354 215.61 20.2449 215.618C20.4724 215.797 20.4908 215.125 20.2542 215.268ZM19.9287 10.2824C19.7913 10.4808 19.95 11.052 20.1209 10.8055C20.2584 10.6071 20.0997 10.0353 19.9287 10.2824ZM19.7591 93.5328C19.7485 93.5394 19.7388 93.7805 19.7992 93.7756C19.9936 93.7593 19.9387 93.4237 19.7591 93.5328ZM19.9171 0.773015C19.8788 2.17795 19.0395 3.02984 19.1342 1.49984C19.1513 1.22274 19.4019 2.09699 19.4775 1.74433C19.6154 1.09906 19.0884 0.670569 19.3708 0.0120842C19.4225 -0.107135 19.9211 0.692868 19.9182 0.775497C19.9178 0.774669 19.9174 0.773819 19.9171 0.773015ZM19.6632 72.0765C19.6537 72.0848 19.6448 72.4187 19.6542 72.4267C19.8816 72.6074 19.8999 71.935 19.6632 72.0765ZM19.3161 107.603C19.2959 107.621 19.277 108.396 19.2956 108.421C19.6676 108.825 19.7069 107.259 19.3161 107.603ZM19.1389 49.5966C18.9101 49.2324 18.8831 48.7967 19.1705 48.5063C19.1552 48.8683 19.153 49.2326 19.1389 49.5966Z" fill="white"/>
<path d="M33.1726 188.713C33.1906 188.625 33.3856 188.598 33.4432 188.514C33.6859 188.166 33.8576 188.084 34.102 187.782C34.4645 187.336 35.1303 185.774 36.0651 186.314C36.0651 186.314 36.0651 186.314 36.0652 186.314C36.0743 186.319 36.0835 186.325 36.0927 186.331C36.2678 186.439 36.3906 186.675 36.5813 186.81C36.7722 186.944 38.0808 187.681 38.0521 187.9C38.0009 188.211 37.3133 188.632 37.2494 188.777C37.2057 188.876 37.2577 189.059 37.2099 189.19C37.0557 189.614 36.8531 189.765 36.9744 190.297C36.7252 190.337 36.476 190.378 36.2267 190.419C36.2009 190.645 35.8195 190.79 35.7685 190.907C35.7266 191.003 35.8299 191.133 35.782 191.23C35.7289 191.34 35.4911 191.418 35.4023 191.622C35.256 191.956 35.5729 192.214 35.5085 192.428C35.4416 192.65 35.0765 192.844 35.0554 193.164C35.0758 193.218 35.0962 193.271 35.1165 193.324C35.2163 193.352 35.3161 193.38 35.4159 193.408C35.3839 193.557 35.1747 193.508 35.1049 193.621C35.0226 193.755 35.1514 193.921 35.0979 194.012C35.0539 194.087 34.86 194.11 34.8125 194.212C34.7425 194.36 34.9558 194.442 34.9484 194.539C34.945 194.578 34.7287 195.201 34.712 195.234C34.5806 195.479 34.301 195.346 34.1668 195.524C33.7954 196.02 33.6957 196.692 33.4929 197.232C33.4024 197.473 33.2543 197.694 33.0848 197.889C32.5999 197.148 31.6256 197.605 32.8618 197.937C32.5685 198.094 32.7577 198.434 32.5752 198.637C32.4569 198.768 32.2486 198.786 32.129 199.002C31.9179 199.386 32.1006 200.044 31.2746 199.713C31.152 200.236 30.6526 200.461 31.2336 201.011C31.2085 201.149 30.6374 201.212 30.5085 201.309C30.3869 201.401 29.6663 202.231 29.5679 202.378C29.4696 202.525 29.3041 202.786 29.2889 202.949C29.2686 203.153 29.9019 203.669 28.9189 203.486C28.7917 203.859 28.6995 203.965 28.4248 204.221C28.3751 204.268 28.2501 204.204 28.231 204.237C28.1918 204.305 28.2148 204.472 28.1558 204.599C28.0587 204.809 27.738 204.775 28.1405 204.978C28.13 205.147 28.1196 205.316 28.1091 205.485C28.0073 205.488 27.9055 205.49 27.8037 205.493C27.8451 205.61 27.8866 205.728 27.928 205.845C27.4117 205.437 27.4592 206.124 27.8754 206.15C27.6118 206.337 27.3482 206.524 27.0846 206.712C26.4641 206.306 26.688 207.228 27.0653 207.379C27.048 207.408 27.0307 207.437 27.0134 207.465C26.6958 207.622 26.7 207.937 26.4062 208.181C26.1124 208.426 26.0669 208.361 25.7175 208.285C25.6922 208.368 25.6668 208.451 25.6415 208.534C26.2282 209.384 24.868 208.508 25.1086 209.523C24.4795 209.44 24.4475 210.112 24.4034 210.544C24.3983 210.594 24.4965 210.651 24.4962 210.722C24.4942 210.894 24.1759 211.153 24.5005 211.325C24.3422 211.387 24.1839 211.449 24.0256 211.51C24.0292 211.638 24.0328 211.765 24.0365 211.892C24.136 211.949 24.2356 212.006 24.3351 212.063C23.8877 212.056 23.8462 212.428 23.6807 212.528C23.6475 212.548 23.5069 212.475 23.4173 212.544C23.3118 212.624 23.2383 212.845 23.1227 212.947C23.246 213.083 23.3694 213.22 23.4928 213.357C23.4448 213.63 22.9985 213.478 22.8909 213.593C22.8717 213.613 22.6491 214.065 22.6441 214.094C22.601 214.325 22.9736 214.467 22.5798 214.981C22.5095 215.072 22.3453 215.084 22.2889 215.17C22.1892 215.323 22.1822 215.954 22.4079 216.134C21.9877 216.147 21.8184 216.732 21.6418 216.832C21.588 216.861 21.3849 216.758 21.262 216.874C21.1623 216.967 21.1514 217.351 21.0418 217.48C20.9248 217.616 20.7276 217.575 20.6764 217.637C20.6282 217.695 20.7274 217.832 20.6758 217.92C20.5122 218.192 20.1531 218.317 20.0235 218.532C20.0215 218.536 20.0196 218.539 20.0177 218.542L18.9078 220.229L18.0606 218.542C17.8792 218.233 17.3311 218.183 17.0068 218.023C16.9947 217.943 17.0427 217.83 17.0039 217.761C16.5271 216.906 16.0482 215.908 15.6424 215.009C15.4535 214.592 15.4245 213.301 14.679 214.081C14.4428 214.034 14.2287 212.828 14.1247 212.636C14.0206 212.443 13.7731 212.386 13.6847 212.238C13.4181 211.792 13.3511 211.409 12.8951 210.942C12.7769 210.822 12.4989 210.781 12.4528 210.696C12.3977 210.593 12.5193 210.378 12.4555 210.241C12.3022 209.914 11.9066 209.369 11.766 209.051C11.7407 208.993 11.8914 208.881 11.8969 208.774C11.9191 208.356 11.7054 208.025 11.2236 208.384C11.2921 207.825 10.8166 207.619 10.5919 207.268C10.1179 206.524 9.43607 205.065 8.83528 204.525C8.4564 204.185 8.23094 204.33 8.07458 203.597C8.03983 203.435 8.02089 203.264 7.97786 203.067C7.87749 202.606 8.09918 202.001 7.41213 202.002C7.29617 201.493 7.00245 201.203 7.2582 200.627C7.13058 200.651 7.00296 200.674 6.87535 200.697C6.84211 200.646 6.80888 200.594 6.77565 200.543C6.86698 200.468 6.95831 200.393 7.04964 200.318C6.85749 199.923 6.16463 199.68 5.98201 199.357C5.67542 198.815 5.03483 197.333 4.87582 196.744C4.79142 196.431 4.56693 196.541 4.92135 196.129C4.85541 196.086 4.78947 196.043 4.72352 196C4.60434 196.018 4.48516 196.037 4.36598 196.055C4.16106 195.709 4.07369 195.209 3.88063 194.878C3.52855 194.275 2.73688 193.522 2.56224 192.814C2.5187 192.636 2.60942 192.33 2.52111 192.182C2.39276 191.967 2.02951 192.106 1.86437 191.835C1.58035 191.366 1.45689 190.259 1.16844 189.828C1.08298 189.7 0.92327 189.709 0.856952 189.625C0.577529 189.272 0.404828 188.95 -1.32322e-05 188.69C0.0896909 188.109 0.521155 187.906 0.865501 187.543C1.12517 187.269 1.68665 186.563 1.93779 186.364C2.11423 186.224 2.42384 186.187 2.61312 186.025C3.05732 186.403 2.98602 186.71 2.91032 187.269C3.33405 187.975 3.75778 188.682 4.18151 189.388C4.10307 189.52 4.02464 189.652 3.9462 189.784C3.94595 189.784 3.94569 189.784 3.94544 189.784C3.96983 190.135 4.33536 190.079 4.48841 190.188C5.95374 191.228 7.05319 194.304 7.87905 195.904C8.05721 196.248 8.84356 197.25 8.78824 197.588C8.77362 197.676 8.60448 197.796 8.63331 197.864C9.06671 198.369 9.5001 198.875 9.9335 199.38C10.3285 200.705 11.2532 201.777 11.9738 202.927C13.9235 206.036 15.8799 209.099 17.6409 212.248C17.981 212.857 18.5572 213.546 18.8122 214.187C18.9188 214.454 18.6911 214.722 19.0922 214.923C19.0168 214.971 18.9414 215.019 18.8661 215.067C19.1227 215.296 19.403 215.375 19.604 215.682C19.7729 215.941 20.1923 216.64 20.299 216.893C20.3548 217.024 20.184 217.062 20.2506 217.176C20.264 217.198 20.2818 217.222 20.303 217.248L17.7754 217.248C17.861 217.012 17.9092 216.568 18.0467 216.33C18.1877 216.086 18.5918 215.77 18.6761 215.568C18.9809 214.843 19.1593 213.964 19.6414 213.282C19.775 213.093 20.1102 212.946 20.1409 212.88C20.2003 212.752 20.0393 212.611 20.0631 212.516C20.1847 212.032 20.7748 211.509 21.0185 211.107C21.8126 209.796 22.5447 208.345 23.3409 207.043C23.8437 206.221 24.6125 204.815 25.1943 204.123C25.3198 203.974 25.4936 204.134 25.5742 203.994C25.6635 203.84 25.5771 203.678 25.608 203.599C25.8207 203.055 26.3224 201.872 26.7328 201.479C26.8112 201.404 27.0052 201.429 27.0357 201.374C27.0514 201.347 26.9804 201.224 27.0189 201.132C27.359 200.32 27.7394 199.805 28.2036 199.085C29.092 197.707 29.8428 195.948 30.8106 194.52C31.0214 194.208 31.459 194.164 31.4823 194.117C31.5339 194.013 31.3631 193.829 31.4289 193.596C31.6498 192.824 32.3962 192.043 32.6626 191.341C32.7943 190.995 32.782 190.406 32.9038 190.061C33.001 189.785 33.4444 189.256 33.3923 189.078C33.3611 188.971 33.1543 188.81 33.1726 188.713ZM31.8241 199.129C31.4904 198.878 31.5196 199.517 31.8136 199.453C31.8798 199.439 31.9108 199.195 31.8241 199.129ZM16.9785 216.263C16.8784 216.327 16.7782 216.39 16.678 216.454C16.7561 216.491 16.8341 216.527 16.9122 216.564C16.9541 216.494 16.9959 216.424 17.0377 216.354C17.018 216.323 16.9983 216.293 16.9785 216.263Z" fill="white"/>
</svg>
