<svg width="71" height="20" viewBox="0 0 71 20" fill="none" xmlns="http://www.w3.org/2000/svg">
<path d="M68.3428 11.1644C67.9561 11.2035 67.4493 11.1617 67.0641 11.1044C66.9434 11.0866 67.0045 11.0071 66.9212 10.9912C66.7582 10.9603 66.6063 10.9993 66.4453 10.9625C66.3919 10.9499 66.4583 10.8239 66.4024 10.8136C66.0957 10.7579 65.8055 10.79 65.4948 10.7633C63.9644 10.6312 62.46 10.5839 60.9109 10.5265C60.4001 10.5077 59.7792 10.3934 59.2516 10.4434C59.19 10.4493 59.2267 10.5599 59.215 10.569C59.0312 10.7085 59.0923 10.4853 58.9723 10.4556C58.4961 10.3386 57.9664 10.3284 57.5081 10.371C57.3131 10.3895 57.5086 10.6091 57.3122 10.4859C57.2986 10.4775 57.3481 10.3601 57.2946 10.3476C57.1733 10.3194 56.9432 10.3404 56.8492 10.3311C56.6681 10.3126 56.6381 10.3138 56.4668 10.3125C56.2326 10.3096 55.954 10.2512 55.7027 10.2778C55.649 10.2839 55.7201 10.4042 55.6345 10.4247C55.5489 10.4451 55.3224 10.4349 55.246 10.4066C55.1696 10.3782 55.2021 10.2836 55.1886 10.2619C55.0774 10.0789 54.8154 10.3324 54.7817 10.3386C54.167 10.4454 53.6399 10.3011 53.0629 10.3015C52.6249 10.3021 52.1565 10.3497 51.7397 10.3432C51.2432 10.335 50.8223 10.2697 50.3399 10.281C50.289 10.282 50.3487 10.4235 50.2865 10.4251C49.6259 10.4415 48.9699 10.4261 48.3121 10.3306C48.2462 10.3209 48.3312 10.1966 48.2653 10.1795C47.8618 10.0774 47.2233 9.83216 46.9837 10.3731C46.7104 10.3519 46.3786 10.3301 46.134 10.2211C45.9764 10.1509 46.1295 10.0156 45.9358 10.0733C45.8922 10.0862 45.949 10.2047 45.8835 10.215C45.6077 10.2584 45.3064 10.2199 45.0335 10.2811C44.978 10.2939 44.9932 10.4001 44.9775 10.4192C44.8453 10.5741 44.6253 10.3181 44.5774 10.2994C44.2122 10.1607 43.9455 10.2153 43.6053 10.2119C43.5264 10.2111 43.6197 10.3537 43.5437 10.358C43.1498 10.3785 42.7416 10.3662 42.3559 10.3029C42.27 10.2885 42.349 10.167 42.3079 10.1539C42.1271 10.0976 42.0871 10.3271 41.9137 10.2775C41.8771 10.2673 41.8977 10.1633 41.891 10.1519C41.7867 9.97252 41.696 10.2266 41.6691 10.2322C41.3296 10.3089 41.1125 10.0436 40.7845 10.0812C40.7452 10.0859 40.8337 10.2176 40.7234 10.2229C39.9885 10.2592 39.2112 10.2231 38.4837 10.1178C38.3706 10.1016 38.4513 10.0027 38.4442 9.99055C38.3282 9.8001 38.2532 10.0553 38.2163 10.0649C37.9253 10.1341 37.6535 9.92007 37.4558 10.224C36.2236 10.1185 34.9971 10.2892 33.7751 10.0169C33.7595 10.0138 33.7874 9.88809 33.7564 9.88234C33.3831 9.81177 33.4548 10.0071 33.2078 10.246C33.1456 10.306 32.9564 10.0176 32.9396 9.99641C32.8786 9.9185 32.9419 9.73153 32.9214 9.71644C32.7524 9.59797 32.7799 10.2163 32.5519 10.2165C32.5448 10.2155 32.5747 10.1017 32.5556 10.0903C32.4961 10.0548 32.4371 10.1 32.379 10.0609C32.2458 9.97021 32.1983 9.66975 31.9949 9.84462C31.9692 9.86731 32.0085 10.2181 31.8049 10.2015C31.7237 10.1946 31.3644 10.2006 31.2637 10.1779C31.1632 10.1552 31.2322 10.0421 31.225 10.0372C30.954 9.88778 31.0568 9.82584 30.921 9.60456C30.7853 9.38413 30.8229 9.90989 30.7676 9.96858C30.7121 10.0271 30.5134 9.90378 30.4646 9.86091C30.4158 9.81802 30.4767 9.7462 30.4333 9.72194C30.1456 9.56337 30.307 9.98291 30.2122 10.0664C29.9887 10.2639 29.8146 9.87403 29.6099 9.83583C29.5546 9.82551 29.5998 9.91431 29.5505 9.92262C29.3552 9.95433 29.2378 9.83267 29.0156 9.94422C28.9793 9.9624 28.7997 10.1968 28.6834 10.0248C28.667 9.99998 28.7137 9.90282 28.6305 9.88105C28.5062 9.84839 28.2822 9.82715 28.1486 9.85963C28.0499 9.88366 28.163 10.0438 28.0388 9.99403C27.9836 9.97182 28.0859 9.87816 27.9822 9.84425C27.8791 9.81035 27.6154 9.81446 27.515 9.8177C27.4149 9.821 27.4697 9.94245 27.4616 9.95063C27.4126 9.9975 27.2204 10.0561 27.2034 10.0559C26.3465 10.0707 25.5563 9.86603 24.722 9.93379C24.6566 9.93893 24.7002 10.067 24.6902 10.0691C24.4661 10.1228 24.6428 9.78226 24.4862 9.66828C24.5088 9.92817 24.4164 9.88112 24.2585 9.90962C24.1824 9.92356 24.2239 10.0242 24.2169 10.0345C24.1041 10.1873 24.0256 9.98992 24.0053 9.94953C23.9306 9.80097 23.8493 9.97651 23.7984 9.87721C23.7476 9.77865 23.8646 9.63254 23.7131 9.63441C23.6707 9.72744 23.7831 9.97056 23.6681 10.01C23.2344 10.159 22.4247 9.96825 22.076 9.94844C21.7279 9.92864 21.6155 9.9458 21.4127 9.91218C21.0463 9.85139 21.1806 10.0318 20.9531 10.1143C20.7249 10.1969 20.8358 9.75307 20.803 9.65766C20.7709 9.5623 20.7357 9.66047 20.6957 9.60804C20.6557 9.55563 20.7421 9.49076 20.6483 9.47108C20.5543 9.45142 20.2975 9.62108 20.2642 9.72084C20.1939 9.93218 20.3096 10.154 20.061 10.0761C20.0467 10.0714 20.0931 9.95474 20.0384 9.94294C19.6037 9.8531 19.1521 9.84753 18.7179 9.76808C18.6582 9.75697 18.7115 9.62715 18.6768 9.61921C18.3149 9.53618 18.4443 9.75507 18.2459 9.99824C18.2905 9.67464 18.1808 9.47665 17.9061 9.47474C17.741 9.47348 17.7694 9.61481 17.6626 9.71443C17.6306 9.74445 17.5138 9.64741 17.4926 9.71388C17.4228 9.93115 17.5328 10.1744 17.2497 10.0775C17.2372 10.0729 17.2768 9.95399 17.2339 9.94679C16.9564 9.89964 16.9232 10.1269 16.6232 10.1544C16.3881 10.176 15.9699 10.0374 15.7022 10.0149C15.7078 9.65108 15.455 9.73439 15.3524 9.98524C15.1787 9.97497 14.991 9.98915 14.8231 9.95448C14.7653 9.94266 14.8033 9.83732 14.796 9.82594C14.6842 9.64739 14.6087 9.89144 14.5712 9.90101C14.1647 9.99402 13.8336 9.80905 13.4457 9.98982C13.4319 9.99633 13.4096 10.2491 13.3059 10.0645C13.2992 10.0518 13.4273 9.93682 13.2448 9.92793C13.0623 9.91901 12.7183 9.78354 12.4649 9.90064C12.4036 9.92884 12.2485 10.134 12.1241 9.9737C12.1075 9.95194 12.1256 9.87945 12.1017 9.83912C12.0243 9.7106 11.9821 9.96604 11.8911 9.74903C11.8002 9.53203 11.611 9.36952 11.3555 9.51924C11.3474 9.52359 11.2869 9.72605 11.2065 9.72285C11.0782 9.71756 10.8961 9.67539 10.7622 9.67671C10.6981 9.67741 10.7391 9.80313 10.728 9.80543C10.2968 9.87588 9.98991 9.7638 9.52799 9.71516C9.44331 9.70599 9.19996 9.87743 9.03603 9.74189C8.85605 9.59352 9.041 8.97632 8.62726 9.12336C8.4604 9.18218 8.24911 9.96521 7.94922 9.55952C7.3676 9.66005 6.82973 9.45242 6.24649 9.59596C6.22027 9.60232 6.13732 9.82085 6.07566 9.81788C5.98412 9.81304 5.93388 9.7109 5.86851 9.70417C5.59462 9.67341 5.344 9.76079 5.07992 9.7472C4.97967 9.74226 5.01473 9.63665 4.89514 9.63075C4.77564 9.62494 4.69596 9.76401 4.53401 9.69685C4.41171 9.64565 4.28942 9.36139 4.12708 9.32826C4.1209 9.60865 4.0094 9.60287 3.81123 9.67689C3.77314 9.69125 3.81398 9.78884 3.79596 9.80067C3.72262 9.85097 3.65476 9.77008 3.58512 9.82484C3.56819 9.83799 3.5674 9.93374 3.55354 9.9499C3.43578 10.0909 3.24179 9.87552 3.20847 9.83802C3.08076 9.69559 3.02108 9.82013 2.92314 9.76405C2.82535 9.70797 2.97156 9.63786 2.85734 9.60383C2.62055 9.53344 2.31634 9.5489 2.07585 9.5445C1.97991 9.54334 2.04535 9.67116 2.03163 9.67396C1.83322 9.70638 1.63258 9.57042 1.52258 9.82502C1.38501 9.16671 1.40294 9.88887 1.11933 9.75709C1.09698 9.74643 1.06858 9.43512 1.15433 9.38941C1.2401 9.34375 1.37016 9.44107 1.48914 9.36982C1.51733 9.3531 1.67876 9.06138 1.70077 9.04371C1.8733 8.90561 1.89773 9.37082 1.90687 9.39637C2.01037 9.67212 2.20763 9.35785 2.25957 9.33613C2.49721 9.23663 2.69912 9.30205 2.89787 9.23103C3.02788 9.18513 3.04058 8.88039 3.14266 8.88972C3.48198 8.92055 3.60044 9.34565 3.9202 8.97706C3.98876 8.89845 3.92063 8.56539 4.1663 8.82728C4.18175 8.84379 4.36413 9.08338 4.46953 8.93184C4.48276 8.91273 4.48235 8.81566 4.49979 8.80751C4.61677 8.75476 4.69481 8.83209 4.82224 8.79506C4.94964 8.75802 5.1029 8.70281 5.24838 8.73573C5.33607 8.75542 5.44856 8.93627 5.49054 8.98054C5.60906 9.10809 5.73613 8.89896 5.80955 9.05342C5.88359 9.20865 5.73885 9.44439 5.933 9.54469C5.94019 9.2925 5.95671 9.03366 5.96827 8.78004C6.39376 8.78892 6.81242 8.87047 7.23933 8.85933C7.29226 8.85769 7.23813 8.72212 7.29487 8.71687C7.53426 8.69533 7.74335 8.79198 7.9916 8.75349C8.18377 8.72318 8.39448 8.57963 8.59541 8.54347C8.71815 8.83204 9.01632 8.73408 9.23292 8.76045C9.3088 8.76956 9.30372 8.84663 9.35769 8.87178C9.56125 8.96477 9.46586 8.70976 9.52167 8.66963C9.7611 8.49835 9.7816 9.07555 10.0639 9.06129C10.0788 9.06073 10.2617 8.75306 10.2868 8.7339C10.4468 8.60896 10.3133 8.84099 10.4134 8.86372C10.5963 8.90526 10.7233 8.97874 10.9378 8.88862C11.0003 8.86193 11.1503 8.67016 11.2718 8.81849C11.2878 8.83792 11.2789 8.93961 11.2918 8.94557C11.5246 9.04484 11.5307 8.7253 11.6637 8.61708C11.7967 8.50888 12.0022 8.72947 12.0441 8.79304C12.1535 8.95751 11.9602 8.86333 11.9543 8.87947C11.8847 9.07154 12.0346 9.03847 12.1491 9.0547C12.1657 9.36802 12.3258 9.34921 12.2678 9.07026C12.2612 9.03979 12.1721 9.06901 12.1491 9.0547C12.2496 8.74729 12.4256 8.70792 12.62 8.99519C12.711 9.12983 12.6249 9.28681 12.9013 9.22938C13.0268 9.20346 12.9783 8.98772 13.089 8.92891C13.3419 8.79471 13.6706 8.99595 13.9313 8.96425C14.0259 8.95273 13.9338 8.83464 13.9984 8.82271C14.1701 8.79066 14.3214 8.87926 14.4938 8.83388C14.5094 8.82961 14.4713 8.706 14.5249 8.70442C14.9312 8.69006 15.285 8.76924 15.7093 8.77144C15.9143 8.77244 16.2808 8.70426 16.4932 8.71797C16.8612 8.741 17.314 8.92076 17.6284 8.87709C17.8335 8.84914 17.7885 8.72549 17.8764 8.64125C18.0459 8.47795 18.3461 8.77045 18.3865 8.81575C18.3877 8.81725 18.2112 8.84639 18.3054 8.90986C18.3602 9.04211 18.3845 8.81632 18.3865 8.81575C18.413 8.84501 18.7655 8.87308 18.8355 8.84944C18.8736 8.83652 18.8523 8.71938 18.8721 8.71486C19.3435 8.61002 19.8156 8.58025 20.2937 8.63502C20.3021 8.63739 20.2895 8.76842 20.3093 8.77235C20.586 8.83061 20.7632 8.67032 20.9915 8.57515C21.2197 8.48002 21.4007 8.51188 21.5358 8.73683C21.708 8.70851 21.9551 8.80796 22.0973 8.8683C22.2394 8.92864 22.2593 8.67357 22.2718 8.66853C22.6619 8.50714 22.8875 8.65313 23.2923 8.67586C23.4847 8.6871 23.8665 8.6501 24.0748 8.62221C24.2395 8.59974 24.3387 8.65951 24.4904 8.62129C24.511 8.61619 24.4902 8.50262 24.4965 8.49824C24.6658 8.36237 24.5844 8.64 24.6194 8.68959C24.7462 8.86991 24.8245 8.96594 25.0413 8.88112C25.0914 8.86169 25.2371 8.46193 25.3282 8.43855C25.4468 8.40889 25.402 8.55218 25.5262 8.51747C25.5368 8.51463 25.5346 8.42623 25.6112 8.43013C25.9668 8.44706 26.3545 8.4985 26.7241 8.48964C26.7745 8.48877 26.7098 8.34855 26.7828 8.34499C27.125 8.32837 27.5001 8.33355 27.8335 8.39919C27.9156 8.41578 27.8641 8.51396 27.8819 8.54311C27.9913 8.71948 28.1464 8.46321 28.172 8.45833C28.7825 8.33518 29.2497 8.5671 29.8718 8.45668C29.9057 8.4502 30.1664 8.17547 30.2827 8.41109C30.2907 8.42676 30.4058 8.66782 30.5075 8.50301C30.5138 8.4927 30.4421 8.36859 30.5673 8.38124C30.6924 8.39386 30.8938 8.31099 31.0658 8.44734C31.1202 8.4903 31.249 8.73076 31.4114 8.53908C31.422 8.5257 31.6727 8.09227 31.7623 8.39131C31.7768 8.44054 31.7616 8.75699 31.9555 8.59474C31.9925 8.56329 31.9252 8.4927 32.0228 8.44862C32.1724 8.38069 32.3705 8.46545 32.5543 8.32448C32.5863 8.29952 32.7228 8.08473 32.8322 8.24776C32.8494 8.27329 32.8168 8.37894 32.8746 8.39076C33.1495 8.44748 33.4373 8.37681 33.7164 8.44991C33.8152 8.47559 33.7647 8.64638 33.8677 8.69215C33.9708 8.73791 34.1784 8.78192 34.2862 8.70387C34.3941 8.62579 34.2763 8.35359 34.4378 8.3318C35.1403 8.2372 35.8361 8.39688 36.5375 8.42024C36.6415 8.42373 36.5553 8.32633 36.7086 8.32448C37.2738 8.31723 38.2496 8.22591 38.7401 8.43288C39.133 8.59865 38.6385 8.72485 38.9388 8.79231C39.0837 8.82449 39.2405 8.50803 39.2755 8.49806C39.6172 8.39686 39.8547 8.53705 40.1622 8.49403C40.2257 8.48511 40.1634 8.35684 40.2175 8.35066C40.4021 8.32842 40.5962 8.38567 40.7726 8.3752C40.8518 8.37021 40.8372 8.27224 40.91 8.2798C41.0843 8.29677 41.2384 8.33795 41.4083 8.42976C41.4238 8.43813 41.3194 8.56 41.4483 8.56453C41.657 8.57152 41.916 8.6621 42.1561 8.56856C42.2273 8.54042 42.2301 8.31652 42.3832 8.47115C42.4153 8.50344 42.3744 8.77229 42.5527 8.53999C42.5827 8.50139 42.8824 8.18806 43.0294 8.39003C43.0682 8.44319 43.1672 8.66319 43.2529 8.62862C43.2645 8.6231 43.218 8.50284 43.2889 8.49111C43.5391 8.45186 43.8013 8.46469 44.0583 8.42702C44.127 8.41672 44.0247 8.29227 44.127 8.2809C44.4083 8.24945 44.7595 8.28113 45.0346 8.32009C45.136 8.33468 45.0659 8.43777 45.0733 8.44899C45.1919 8.63147 45.2621 8.38517 45.3015 8.37081C45.5464 8.28481 45.733 8.40051 45.9587 8.36989C46.021 8.36175 45.9769 8.24431 45.9893 8.23384C46.1179 8.13153 46.0221 8.34243 46.1035 8.36568C46.3316 8.43151 46.5859 8.42207 46.8166 8.40706C46.9013 8.40138 46.8061 8.2652 46.8821 8.26168C47.3321 8.23821 47.8 8.25124 48.2392 8.32631C48.3219 8.34069 48.2699 8.44555 48.2871 8.4695C48.4059 8.63706 48.58 8.40851 48.6201 8.38674C48.8023 8.28733 48.873 8.38006 49.0339 8.36275C49.8197 8.27658 50.79 8.33799 51.5318 8.37593C52.4984 8.42476 53.2485 8.52452 54.1702 8.49861C54.2288 8.4971 54.1698 8.35761 54.2203 8.35451C54.8723 8.32088 55.5142 8.37539 56.1675 8.3351C56.2211 8.33204 56.1438 8.1998 56.2299 8.19045C56.4064 8.17033 56.63 8.17752 56.8084 8.21974C56.8955 8.24009 56.7787 8.35356 56.8664 8.37172C57.0704 8.41427 57.289 8.42368 57.4986 8.40248C57.5878 8.39317 57.4532 8.25793 57.5691 8.25637C58.3587 8.24295 59.1341 8.21966 59.932 8.39479C59.9867 8.40682 60.0347 8.6817 60.151 8.62898C60.1598 8.5527 60.1593 8.46296 60.1631 8.38143C61.3125 8.3375 62.4502 8.43279 63.6028 8.44753C63.6514 8.44812 63.5674 8.30248 63.6615 8.30288C64.206 8.30503 64.7348 8.26468 65.2919 8.40944C65.3471 8.4236 65.3188 8.67982 65.4816 8.64107C65.5104 8.634 65.7557 8.59983 65.8191 8.54421C65.8277 8.53582 65.7829 8.41622 65.862 8.41274C66.3213 8.39458 66.8027 8.42188 67.2612 8.49495C67.3352 8.50697 67.2564 8.63433 67.3091 8.644C67.683 8.71161 68.0897 8.61479 68.447 8.73043C68.6862 8.80828 68.5976 9.02843 68.7247 9.24513C68.7427 9.27571 68.8908 9.28055 68.8984 9.40663C68.9181 9.72367 68.8464 10.0708 68.8758 10.4088C68.882 10.4816 69.0803 10.4032 68.9629 10.5791C68.9547 10.5908 68.8109 10.6492 68.7755 10.7089C68.7508 10.7501 68.7953 10.8784 68.745 10.9312C68.6947 10.9839 68.6394 10.8764 68.556 10.9385C68.4726 11.0013 68.5093 11.1472 68.3428 11.1644ZM22.7374 9.13801C22.8691 9.26051 22.8885 8.81186 22.7461 8.9192C22.7392 8.92492 22.7306 9.132 22.7374 9.13801ZM6.81003 9.20887C6.98213 9.40676 7.09989 9.11579 6.97849 8.96296C6.8571 8.8103 6.7576 9.14889 6.81003 9.20887ZM5.02543 9.35334C5.22658 9.50936 5.25823 8.87317 5.04281 9.00178C5.03029 9.00905 5.01368 9.34428 5.02543 9.35334ZM68.1354 9.30684C68.1372 9.3128 68.2436 9.3186 68.2462 9.3127C68.3029 9.17021 68.09 9.1587 68.1354 9.30684ZM3.25452 9.51063C3.31732 9.59669 3.4981 9.49734 3.42009 9.39033C3.35729 9.30424 3.17632 9.40358 3.25452 9.51063ZM29.6044 9.61683C29.6065 9.62352 29.6828 9.62954 29.6813 9.59175C29.6761 9.47003 29.5699 9.50438 29.6044 9.61683ZM0.244667 9.51795C0.68936 9.5419 0.958978 10.0674 0.474716 10.0081C0.387018 9.9974 0.663729 9.84054 0.552101 9.79316C0.347863 9.70684 0.212241 10.0368 0.00382148 9.85999C-0.0339168 9.82763 0.21931 9.51542 0.245452 9.51722C0.245205 9.51747 0.244936 9.51771 0.244667 9.51795ZM22.8132 9.67689C22.8158 9.68282 22.9215 9.68845 22.924 9.68257C22.9812 9.54014 22.7684 9.52872 22.8132 9.67689ZM34.0577 9.89424C34.0636 9.90688 34.3088 9.9187 34.3168 9.90705C34.4446 9.67414 33.949 9.64955 34.0577 9.89424ZM15.698 10.0052C15.5827 10.1485 15.4448 10.1654 15.3529 9.98542C15.4675 9.99497 15.5828 9.99638 15.698 10.0052Z" fill="#0F5779"/>
<path d="M54.3344 2.85026C54.2887 2.84462 54.2855 2.73043 54.2447 2.70096C54.0743 2.57663 54.0407 2.47938 53.8955 2.35139C53.6803 2.16153 52.8933 1.8548 53.2312 1.2695C53.2312 1.26949 53.2312 1.26947 53.2312 1.26946C53.2345 1.26372 53.238 1.25795 53.2415 1.25216C53.3084 1.14212 53.4402 1.0559 53.5221 0.935072C53.6041 0.814182 54.0674 -0.00416186 54.1812 0.000486347C54.3427 0.0132732 54.5259 0.397499 54.5988 0.427246C54.6487 0.447531 54.7483 0.406321 54.8149 0.427267C55.0298 0.494821 55.0982 0.606481 55.3858 0.504408C55.3932 0.650001 55.4007 0.795597 55.4081 0.941193C55.526 0.943739 55.581 1.16184 55.6398 1.18555C55.6881 1.20498 55.7626 1.13627 55.8114 1.15922C55.8663 1.18449 55.8942 1.3212 55.9969 1.36235C56.1651 1.43023 56.319 1.22758 56.4284 1.2537C56.5417 1.28084 56.6236 1.48655 56.7915 1.48091C56.8209 1.4658 56.8503 1.45069 56.8796 1.43558C56.8999 1.37479 56.9202 1.31399 56.9406 1.25319C57.0174 1.26378 56.9798 1.39069 57.0357 1.4257C57.1016 1.46696 57.1969 1.38109 57.2419 1.4077C57.2786 1.42959 57.28 1.54334 57.3311 1.56578C57.4054 1.59893 57.4607 1.46774 57.5116 1.46661C57.5318 1.46641 57.8489 1.55947 57.8652 1.56756C57.9873 1.63164 57.901 1.80511 57.9877 1.87469C58.2286 2.06701 58.5777 2.08812 58.8513 2.17794C58.9736 2.218 59.0817 2.2934 59.1749 2.38294C58.7563 2.71269 58.9426 3.26502 59.1881 2.51254C59.2539 2.67777 59.4442 2.54624 59.5412 2.64304C59.6038 2.70583 59.6015 2.82845 59.7088 2.88715C59.8995 2.99071 60.2576 2.84503 60.0358 3.354C60.305 3.39712 60.396 3.68072 60.719 3.30484C60.7907 3.31191 60.7914 3.64729 60.8355 3.71824C60.8773 3.78522 61.2747 4.1659 61.3467 4.21595C61.4188 4.266 61.5474 4.34942 61.6325 4.34924C61.7391 4.34972 62.0476 3.94464 61.895 4.53842C62.0848 4.59279 62.1354 4.64154 62.2554 4.79002C62.2771 4.81689 62.2364 4.89465 62.2527 4.90413C62.2863 4.92354 62.3759 4.90044 62.4398 4.92824C62.545 4.974 62.509 5.16627 62.6389 4.9159C62.7276 4.91254 62.8162 4.90918 62.9049 4.90583C62.9005 4.9661 62.8962 5.02637 62.8918 5.08664C62.9562 5.05539 63.0206 5.02415 63.085 4.9929C62.8403 5.32243 63.2054 5.25537 63.2429 5.00687C63.3268 5.15272 63.4107 5.29857 63.4946 5.44442C63.2453 5.83558 63.7448 5.65057 63.846 5.41805C63.8602 5.4267 63.8744 5.43535 63.8887 5.444C63.9534 5.62359 64.1198 5.60332 64.2324 5.76381C64.345 5.92428 64.308 5.95502 64.2483 6.16664C64.2906 6.17699 64.3329 6.18733 64.3753 6.19767C64.8575 5.80137 64.3181 6.65814 64.8677 6.45789C64.7881 6.83599 65.1409 6.81694 65.3666 6.81865C65.3928 6.81887 65.4288 6.75732 65.4661 6.7535C65.557 6.7449 65.6755 6.91915 65.7849 6.71677C65.8085 6.80723 65.8321 6.8977 65.8557 6.98816C65.9231 6.9788 65.9905 6.96944 66.058 6.96007C66.0936 6.89778 66.1293 6.83548 66.1649 6.77318C66.1362 7.0391 66.3304 7.04263 66.3737 7.13519C66.3822 7.15379 66.3358 7.24134 66.3672 7.29065C66.4037 7.34871 66.5161 7.37979 66.5632 7.44268C66.6423 7.36173 66.7215 7.28078 66.8006 7.19983C66.9422 7.21286 66.8367 7.48627 66.8911 7.54366C66.901 7.55387 67.1271 7.66039 67.1418 7.66174C67.2614 7.67424 67.3578 7.44509 67.6065 7.6497C67.6508 7.68627 67.6477 7.78305 67.6903 7.81159C67.7654 7.86212 68.098 7.83061 68.2059 7.68643C68.1889 7.93506 68.4885 8.00241 68.531 8.1016C68.5436 8.13185 68.4774 8.25826 68.5316 8.3246C68.5755 8.3785 68.7774 8.36326 68.8392 8.42099C68.9045 8.48272 68.8716 8.60206 68.9013 8.62898C68.9294 8.6543 69.0073 8.58762 69.0507 8.61332C69.1854 8.69496 69.231 8.90103 69.3374 8.96572C69.339 8.96672 69.3406 8.96768 69.3423 8.96861L70.3959 9.68502L69.3423 10.194C69.1893 10.2842 69.1939 10.6067 69.1278 10.7901C69.0861 10.7927 69.0236 10.7578 68.9894 10.7769C68.5651 11.0115 68.0652 11.2392 67.6135 11.4292C67.404 11.5177 66.7237 11.4618 67.1776 11.9484C67.1664 12.0859 66.5418 12.1447 66.4459 12.1955C66.3501 12.2463 66.3337 12.39 66.2608 12.4341C66.0405 12.5671 65.8418 12.5851 65.6212 12.8294C65.5644 12.8927 65.5583 13.0553 65.516 13.0779C65.4649 13.1048 65.3445 13.0205 65.2756 13.0505C65.1118 13.123 64.8462 13.3269 64.6866 13.3924C64.6574 13.4041 64.5894 13.3083 64.5325 13.299C64.3105 13.2622 64.148 13.3703 64.3646 13.6765C64.0657 13.6042 63.9839 13.8747 63.8111 13.9882C63.4452 14.2274 62.7131 14.5494 62.4622 14.8754C62.3041 15.081 62.3931 15.223 62.0152 15.2744C61.9313 15.2858 61.8421 15.2873 61.7407 15.3017C61.5028 15.3352 61.1711 15.1694 61.2105 15.5772C60.9478 15.6172 60.8115 15.7751 60.4931 15.5907C60.5126 15.6678 60.5321 15.7448 60.5516 15.8219C60.5263 15.8387 60.5009 15.8555 60.4756 15.8723C60.4309 15.8139 60.3863 15.7554 60.3416 15.697C60.1436 15.7886 60.0547 16.1861 59.8944 16.2762C59.6256 16.4275 58.8795 16.7238 58.577 16.7847C58.4164 16.8171 58.4873 16.9566 58.2498 16.7229C58.2308 16.7596 58.2119 16.7963 58.193 16.833C58.2094 16.9048 58.2257 16.9766 58.2421 17.0483C58.071 17.1503 57.8118 17.1739 57.648 17.2697C57.3497 17.4446 56.9968 17.8717 56.6325 17.9353C56.5411 17.9511 56.3744 17.8799 56.3013 17.9239C56.195 17.9879 56.2892 18.2114 56.1551 18.294C55.9237 18.4361 55.3462 18.4467 55.1348 18.5934C55.0719 18.6369 55.0859 18.7322 55.0451 18.7668C54.8746 18.9126 54.7141 18.9969 54.6001 19.2225C54.2881 19.1363 54.1563 18.8688 53.9451 18.6439C53.7856 18.4742 53.3813 18.1011 53.2619 17.9408C53.1781 17.8281 53.1411 17.6423 53.0446 17.5208C53.2189 17.2786 53.3854 17.3383 53.6847 17.4148C54.0338 17.2034 54.3829 16.9919 54.732 16.7804C54.806 16.8344 54.8801 16.8884 54.9541 16.9424C54.9542 16.9426 54.9543 16.9428 54.9544 16.9429C55.1385 16.9483 55.0881 16.7282 55.1368 16.6435C55.6029 15.8328 57.1656 15.3545 57.9634 14.9549C58.1353 14.8687 58.6195 14.4587 58.8016 14.5107C58.8489 14.5243 58.9217 14.6315 58.956 14.6182C59.1982 14.3896 59.4405 14.161 59.6828 13.9324C60.3604 13.773 60.8742 13.2849 61.4403 12.9223C62.972 11.9413 64.4789 10.9536 66.0421 10.0868C66.3443 9.91947 66.6755 9.61647 66.9996 9.50146C67.1347 9.45331 67.2894 9.60362 67.3727 9.37698C67.4023 9.42443 67.4319 9.47187 67.4616 9.51932C67.5679 9.37997 67.5939 9.2181 67.7445 9.11621C67.8714 9.03058 68.2173 8.82132 68.3449 8.77233C68.4108 8.74658 68.4405 8.8501 68.4967 8.817C68.5079 8.81034 68.5196 8.80116 68.5317 8.79001L68.5317 10.3726C68.4121 10.3352 68.1804 10.3317 68.0624 10.2636C67.9414 10.1937 67.7976 9.97177 67.6959 9.93317C67.33 9.79337 66.876 9.73721 66.5429 9.48973C66.4511 9.42109 66.392 9.23056 66.3592 9.216C66.295 9.188 66.2112 9.29158 66.1623 9.28284C65.9137 9.23805 65.6711 8.91742 65.4725 8.79558C64.8253 8.39853 64.1002 8.04623 63.4578 7.64741C63.0519 7.39553 62.3532 7.01886 62.0209 6.71273C61.9492 6.64669 62.0433 6.53452 61.9741 6.49461C61.8975 6.45038 61.8073 6.51075 61.7675 6.49689C61.492 6.40148 60.8955 6.17074 60.7112 5.94939C60.6762 5.9071 60.7003 5.79061 60.6734 5.77555C60.6599 5.76775 60.5908 5.81688 60.5445 5.79921C60.1351 5.64337 59.8845 5.44678 59.5307 5.21199C58.8528 4.76285 57.9667 4.41683 57.2671 3.92332C57.1147 3.81583 57.1161 3.55865 57.0923 3.54754C57.0404 3.52278 56.9335 3.63457 56.8144 3.60867C56.4191 3.52132 56.0491 3.12251 55.6934 3.00418C55.5178 2.94562 55.2065 2.9862 55.0308 2.9335C54.8905 2.89143 54.6363 2.65828 54.5397 2.69921C54.4811 2.72381 54.3845 2.85566 54.3344 2.85026ZM59.7588 3.0609C59.6069 3.27322 59.9461 3.21968 59.9291 3.04882C59.9253 3.01034 59.7983 3.00577 59.7588 3.0609ZM68.2001 10.7072C68.2393 10.7703 68.2786 10.8333 68.3178 10.8964C68.3327 10.8521 68.3476 10.8078 68.3625 10.7636C68.3231 10.7348 68.2838 10.706 68.2444 10.6772C68.2296 10.6872 68.2149 10.6972 68.2001 10.7072Z" fill="#0F5779"/>
</svg>
