<svg width="71" height="20" viewBox="0 0 71 20" fill="none" xmlns="http://www.w3.org/2000/svg">
<path d="M68.3428 11.1642C67.9561 11.2033 67.4493 11.1615 67.0641 11.1041C66.9434 11.0863 67.0045 11.0068 66.9212 10.991C66.7582 10.9601 66.6063 10.9991 66.4453 10.9622C66.3919 10.9496 66.4583 10.8237 66.4024 10.8134C66.0956 10.7577 65.8055 10.7898 65.4948 10.763C63.9644 10.6309 62.46 10.5836 60.9109 10.5263C60.4001 10.5074 59.7792 10.3931 59.2516 10.4431C59.19 10.4491 59.2267 10.5596 59.215 10.5687C59.0312 10.7082 59.0923 10.485 58.9723 10.4554C58.4961 10.3383 57.9664 10.3281 57.5081 10.3708C57.3131 10.3893 57.5086 10.6089 57.3122 10.4856C57.2986 10.4773 57.3481 10.3599 57.2946 10.3474C57.1733 10.3192 56.9432 10.3402 56.8492 10.3309C56.6681 10.3124 56.6381 10.3135 56.4668 10.3122C56.2326 10.3094 55.954 10.251 55.7027 10.2776C55.649 10.2836 55.7201 10.404 55.6345 10.4244C55.5489 10.4449 55.3224 10.4347 55.246 10.4063C55.1696 10.3779 55.2021 10.2834 55.1886 10.2617C55.0774 10.0787 54.8154 10.3321 54.7817 10.3384C54.167 10.4452 53.6399 10.3008 53.0629 10.3012C52.6249 10.3018 52.1565 10.3495 51.7397 10.343C51.2432 10.3347 50.8223 10.2695 50.3399 10.2807C50.289 10.2818 50.3487 10.4233 50.2865 10.4248C49.6259 10.4413 48.9699 10.4259 48.3121 10.3303C48.2462 10.3206 48.3312 10.1964 48.2653 10.1793C47.8618 10.0772 47.2233 9.83191 46.9837 10.3728C46.7104 10.3517 46.3786 10.3299 46.134 10.2208C45.9764 10.1507 46.1295 10.0153 45.9358 10.0731C45.8922 10.0859 45.949 10.2045 45.8835 10.2148C45.6077 10.2582 45.3064 10.2197 45.0335 10.2809C44.978 10.2936 44.9932 10.3998 44.9775 10.419C44.8453 10.5738 44.6253 10.3178 44.5774 10.2992C44.2122 10.1605 43.9455 10.2151 43.6053 10.2117C43.5264 10.2108 43.6197 10.3535 43.5437 10.3578C43.1498 10.3782 42.7416 10.366 42.3559 10.3027C42.27 10.2883 42.349 10.1667 42.3079 10.1536C42.1271 10.0973 42.0871 10.3268 41.9137 10.2772C41.8771 10.2671 41.8977 10.163 41.891 10.1516C41.7867 9.97228 41.696 10.2264 41.6691 10.232C41.3296 10.3087 41.1125 10.0434 40.7845 10.0809C40.7452 10.0857 40.8337 10.2173 40.7234 10.2227C39.9885 10.259 39.2112 10.2228 38.4837 10.1176C38.3706 10.1014 38.4513 10.0025 38.4442 9.99031C38.3282 9.79985 38.2532 10.055 38.2163 10.0646C37.9253 10.1338 37.6535 9.91982 37.4558 10.2238C36.2236 10.1183 34.9971 10.289 33.7751 10.0167C33.7595 10.0135 33.7874 9.88784 33.7564 9.88209C33.3831 9.81152 33.4548 10.0068 33.2078 10.2457C33.1456 10.3057 32.9564 10.0173 32.9396 9.99617C32.8786 9.91826 32.9419 9.73129 32.9214 9.7162C32.7524 9.59772 32.7799 10.2161 32.5519 10.2163C32.5448 10.2152 32.5747 10.1014 32.5556 10.0901C32.4961 10.0546 32.4371 10.0998 32.379 10.0606C32.2458 9.96996 32.1983 9.66951 31.9949 9.84437C31.9692 9.86707 32.0085 10.2178 31.8049 10.2012C31.7237 10.1943 31.3644 10.2004 31.2637 10.1776C31.1632 10.1549 31.2322 10.0419 31.225 10.037C30.954 9.88754 31.0568 9.82559 30.921 9.60432C30.7853 9.38388 30.8229 9.90965 30.7676 9.96833C30.7121 10.0269 30.5134 9.90354 30.4646 9.86067C30.4158 9.81778 30.4767 9.74596 30.4333 9.72169C30.1456 9.56313 30.307 9.98266 30.2122 10.0661C29.9887 10.2637 29.8146 9.87379 29.6099 9.83558C29.5546 9.82526 29.5998 9.91407 29.5505 9.92237C29.3552 9.95409 29.2378 9.83243 29.0156 9.94398C28.9793 9.96216 28.7997 10.1966 28.6834 10.0245C28.667 9.99974 28.7137 9.90257 28.6305 9.88081C28.5062 9.84814 28.2822 9.82691 28.1486 9.85939C28.0499 9.88342 28.163 10.0435 28.0388 9.99378C27.9836 9.97158 28.0859 9.87791 27.9822 9.844C27.8791 9.81011 27.6154 9.81422 27.515 9.81745C27.4149 9.82076 27.4697 9.94221 27.4616 9.95039C27.4126 9.99726 27.2204 10.0558 27.2034 10.0557C26.3465 10.0705 25.5563 9.86579 24.722 9.93354C24.6566 9.93868 24.7002 10.0668 24.6902 10.0689C24.4661 10.1225 24.6428 9.78201 24.4862 9.66804C24.5088 9.92793 24.4164 9.88087 24.2585 9.90937C24.1824 9.92332 24.2239 10.0239 24.2169 10.0343C24.1041 10.1871 24.0256 9.98968 24.0053 9.94929C23.9306 9.80073 23.8493 9.97626 23.7984 9.87696C23.7476 9.77841 23.8646 9.63229 23.7131 9.63417C23.6707 9.7272 23.7831 9.97031 23.6681 10.0097C23.2344 10.1588 22.4247 9.96801 22.076 9.94819C21.7279 9.92839 21.6155 9.94556 21.4127 9.91194C21.0463 9.85115 21.1806 10.0315 20.9531 10.1141C20.7249 10.1966 20.8358 9.75283 20.803 9.65742C20.7708 9.56206 20.7357 9.66022 20.6957 9.6078C20.6557 9.55539 20.7421 9.49052 20.6483 9.47084C20.5543 9.45118 20.2975 9.62083 20.2642 9.72059C20.1939 9.93194 20.3096 10.1538 20.061 10.0758C20.0467 10.0712 20.0931 9.95449 20.0384 9.9427C19.6037 9.85286 19.1521 9.84729 18.7179 9.76783C18.6582 9.75672 18.7115 9.6269 18.6768 9.61897C18.3149 9.53593 18.4443 9.75483 18.2459 9.998C18.2905 9.67439 18.1808 9.47641 17.9061 9.4745C17.741 9.47324 17.7694 9.61457 17.6626 9.71418C17.6306 9.74421 17.5138 9.64717 17.4926 9.71363C17.4228 9.93091 17.5328 10.1741 17.2497 10.0773C17.2372 10.0727 17.2768 9.95375 17.2339 9.94654C16.9564 9.8994 16.9232 10.1267 16.6232 10.1542C16.3881 10.1758 15.9699 10.0372 15.7022 10.0147C15.7078 9.65083 15.455 9.73414 15.3524 9.98499C15.1787 9.97472 14.991 9.98891 14.8231 9.95423C14.7653 9.94241 14.8033 9.83707 14.796 9.82569C14.6842 9.64715 14.6087 9.8912 14.5712 9.90077C14.1647 9.99377 13.8336 9.8088 13.4457 9.98957C13.4319 9.99608 13.4096 10.2488 13.3059 10.0643C13.2992 10.0516 13.4273 9.93657 13.2448 9.92768C13.0623 9.91877 12.7183 9.78329 12.4649 9.9004C12.4036 9.92859 12.2485 10.1338 12.1241 9.97346C12.1075 9.95169 12.1256 9.87921 12.1017 9.83888C12.0243 9.71036 11.9821 9.9658 11.8911 9.74879C11.8002 9.53179 11.611 9.36927 11.3555 9.51899C11.3474 9.52335 11.2869 9.72581 11.2065 9.7226C11.0782 9.71732 10.8961 9.67514 10.7622 9.67646C10.6981 9.67717 10.7391 9.80289 10.728 9.80519C10.2968 9.87563 9.98991 9.76356 9.52798 9.71491C9.44331 9.70575 9.19996 9.87719 9.03603 9.74165C8.85605 9.59328 9.041 8.97607 8.62726 9.12312C8.4604 9.18193 8.24911 9.96496 7.94922 9.55927C7.3676 9.6598 6.82973 9.45217 6.24649 9.59571C6.22027 9.60207 6.13731 9.82061 6.07566 9.81764C5.98412 9.8128 5.93388 9.71066 5.86851 9.70393C5.59462 9.67316 5.344 9.76055 5.07992 9.74696C4.97967 9.74202 5.01472 9.63641 4.89514 9.6305C4.77564 9.6247 4.69596 9.76377 4.53401 9.6966C4.41171 9.64541 4.28942 9.36115 4.12708 9.32801C4.1209 9.6084 4.0094 9.60263 3.81123 9.67664C3.77314 9.69101 3.81398 9.7886 3.79596 9.80042C3.72262 9.85072 3.65476 9.76984 3.58512 9.82459C3.56819 9.83774 3.5674 9.9335 3.55353 9.94965C3.43578 10.0907 3.24179 9.87528 3.20846 9.83778C3.08076 9.69535 3.02108 9.81989 2.92314 9.7638C2.82535 9.70772 2.97156 9.63762 2.85734 9.60359C2.62055 9.5332 2.31633 9.54866 2.07585 9.54426C1.97991 9.5431 2.04535 9.67091 2.03163 9.67372C1.83322 9.70613 1.63258 9.57017 1.52257 9.82478C1.38501 9.16646 1.40294 9.88863 1.11933 9.75684C1.09698 9.74619 1.06857 9.43487 1.15433 9.38917C1.2401 9.34351 1.37015 9.44082 1.48914 9.36958C1.51733 9.35286 1.67875 9.06114 1.70077 9.04347C1.8733 8.90536 1.89773 9.37058 1.90687 9.39613C2.01037 9.67187 2.20763 9.3576 2.25957 9.33589C2.49721 9.23638 2.69912 9.30181 2.89787 9.23078C3.02787 9.18488 3.04058 8.88015 3.14266 8.88948C3.48198 8.92031 3.60044 9.34541 3.9202 8.97682C3.98876 8.8982 3.92062 8.56514 4.1663 8.82704C4.18175 8.84355 4.36413 9.08314 4.46953 8.93159C4.48276 8.91248 4.48235 8.81542 4.49979 8.80726C4.61677 8.75452 4.6948 8.83185 4.82223 8.79481C4.94964 8.75778 5.1029 8.70256 5.24837 8.73549C5.33607 8.75517 5.44856 8.93602 5.49054 8.9803C5.60906 9.10785 5.73613 8.89872 5.80955 9.05317C5.88359 9.2084 5.73885 9.44415 5.933 9.54444C5.94019 9.29226 5.95671 9.03341 5.96827 8.7798C6.39376 8.78868 6.81241 8.87022 7.23933 8.85908C7.29226 8.85745 7.23813 8.72187 7.29487 8.71663C7.53425 8.69509 7.74335 8.79174 7.9916 8.75325C8.18377 8.72294 8.39448 8.57939 8.59541 8.54323C8.71815 8.8318 9.01632 8.73383 9.23292 8.76021C9.3088 8.76932 9.30372 8.84639 9.35769 8.87153C9.56125 8.96453 9.46586 8.70952 9.52167 8.66939C9.7611 8.49811 9.7816 9.07531 10.0639 9.06105C10.0788 9.06049 10.2617 8.75281 10.2868 8.73366C10.4468 8.60872 10.3133 8.84074 10.4134 8.86348C10.5963 8.90502 10.7233 8.9785 10.9378 8.88838C11.0003 8.86169 11.1503 8.66992 11.2718 8.81825C11.2878 8.83767 11.2789 8.93937 11.2918 8.94532C11.5246 9.0446 11.5307 8.72506 11.6637 8.61683C11.7967 8.50864 12.0022 8.72922 12.0441 8.7928C12.1535 8.95726 11.9602 8.86309 11.9543 8.87922C11.8847 9.07129 12.0346 9.03823 12.1491 9.05446C12.1657 9.36777 12.3258 9.34897 12.2678 9.07002C12.2612 9.03955 12.1721 9.06877 12.1491 9.05446C12.2496 8.74705 12.4256 8.70768 12.62 8.99495C12.711 9.12958 12.6249 9.28656 12.9013 9.22914C13.0268 9.20321 12.9783 8.98748 13.089 8.92866C13.3419 8.79447 13.6706 8.99571 13.9313 8.964C14.0259 8.95249 13.9338 8.8344 13.9984 8.82246C14.1701 8.79041 14.3214 8.87902 14.4938 8.83363C14.5094 8.82937 14.4712 8.70575 14.5248 8.70418C14.9312 8.68982 15.285 8.769 15.7093 8.77119C15.9143 8.7722 16.2808 8.70402 16.4932 8.71773C16.8612 8.74075 17.314 8.92051 17.6284 8.87684C17.8335 8.84889 17.7885 8.72525 17.8764 8.641C18.0459 8.47771 18.3461 8.77021 18.3865 8.8155C18.3877 8.817 18.2112 8.84615 18.3054 8.90962C18.3602 9.04187 18.3845 8.81608 18.3865 8.8155C18.413 8.84476 18.7655 8.87283 18.8355 8.8492C18.8736 8.83628 18.8523 8.71913 18.8721 8.71461C19.3435 8.60978 19.8156 8.58001 20.2937 8.63478C20.3021 8.63715 20.2895 8.76818 20.3093 8.77211C20.586 8.83037 20.7632 8.67007 20.9915 8.5749C21.2197 8.47978 21.4007 8.51164 21.5358 8.73659C21.708 8.70826 21.9551 8.80771 22.0973 8.86806C22.2394 8.9284 22.2593 8.67333 22.2718 8.66829C22.6619 8.50689 22.8875 8.65289 23.2923 8.67561C23.4847 8.68685 23.8665 8.64985 24.0748 8.62196C24.2395 8.59949 24.3387 8.65927 24.4904 8.62105C24.511 8.61594 24.4902 8.50237 24.4965 8.498C24.6658 8.36212 24.5844 8.63976 24.6194 8.68935C24.7462 8.86966 24.8245 8.9657 25.0413 8.88087C25.0914 8.86145 25.2371 8.46169 25.3282 8.43831C25.4468 8.40865 25.402 8.55194 25.5262 8.51723C25.5368 8.51439 25.5346 8.42599 25.6112 8.42989C25.9668 8.44682 26.3545 8.49825 26.7241 8.48939C26.7745 8.48852 26.7098 8.34831 26.7828 8.34474C27.125 8.32812 27.5001 8.33331 27.8335 8.39894C27.9156 8.41554 27.8641 8.51371 27.8819 8.54286C27.9913 8.71924 28.1464 8.46297 28.172 8.45808C28.7825 8.33493 29.2497 8.56686 29.8718 8.45644C29.9057 8.44995 30.1664 8.17523 30.2827 8.41084C30.2907 8.42652 30.4058 8.66758 30.5075 8.50276C30.5138 8.49245 30.4421 8.36835 30.5673 8.381C30.6924 8.39362 30.8938 8.31074 31.0658 8.4471C31.1202 8.49005 31.249 8.73052 31.4114 8.53883C31.422 8.52545 31.6727 8.09203 31.7623 8.39107C31.7768 8.44029 31.7616 8.75675 31.9555 8.5945C31.9925 8.56304 31.9252 8.49246 32.0228 8.44838C32.1724 8.38045 32.3705 8.46521 32.5543 8.32423C32.5863 8.29928 32.7228 8.08449 32.8322 8.24751C32.8494 8.27305 32.8168 8.3787 32.8746 8.39052C33.1495 8.44723 33.4373 8.37656 33.7164 8.44966C33.8152 8.47535 33.7647 8.64614 33.8677 8.69191C33.9708 8.73766 34.1784 8.78168 34.2862 8.70363C34.3941 8.62555 34.2763 8.35334 34.4378 8.33156C35.1403 8.23696 35.8361 8.39664 36.5375 8.42C36.6415 8.42349 36.5553 8.32608 36.7086 8.32424C37.2738 8.31699 38.2496 8.22566 38.7401 8.43263C39.133 8.59841 38.6385 8.72461 38.9388 8.79207C39.0837 8.82425 39.2405 8.50778 39.2755 8.49782C39.6172 8.39661 39.8547 8.5368 40.1622 8.49379C40.2257 8.48487 40.1634 8.3566 40.2175 8.35042C40.4021 8.32818 40.5962 8.38543 40.7726 8.37496C40.8518 8.36996 40.8372 8.272 40.91 8.27956C41.0843 8.29652 41.2384 8.3377 41.4083 8.42952C41.4238 8.43789 41.3194 8.55975 41.4483 8.56429C41.657 8.57128 41.916 8.66185 42.1561 8.56831C42.2273 8.54018 42.2301 8.31628 42.3832 8.4709C42.4153 8.5032 42.3744 8.77205 42.5527 8.53975C42.5827 8.50115 42.8824 8.18782 43.0294 8.38979C43.0682 8.44294 43.1672 8.66295 43.2529 8.62837C43.2645 8.62286 43.218 8.50259 43.2889 8.49086C43.5391 8.45161 43.8013 8.46444 44.0583 8.42677C44.127 8.41648 44.0247 8.29203 44.127 8.28066C44.4083 8.2492 44.7595 8.28089 45.0346 8.31984C45.136 8.33444 45.0659 8.43753 45.0733 8.44875C45.1919 8.63122 45.2621 8.38492 45.3015 8.37056C45.5464 8.28457 45.733 8.40026 45.9587 8.36965C46.021 8.36151 45.9769 8.24407 45.9893 8.2336C46.1179 8.13128 46.0221 8.34219 46.1035 8.36543C46.3316 8.43126 46.5859 8.42182 46.8166 8.40682C46.9013 8.40113 46.806 8.26496 46.8821 8.26143C47.3321 8.23797 47.8 8.251 48.2392 8.32607C48.3219 8.34045 48.2699 8.44531 48.2871 8.46926C48.4059 8.63681 48.58 8.40826 48.6201 8.38649C48.8023 8.28709 48.873 8.37981 49.0339 8.36251C49.8197 8.27633 50.79 8.33775 51.5318 8.37569C52.4984 8.42452 53.2485 8.52427 54.1702 8.49837C54.2288 8.49685 54.1698 8.35736 54.2203 8.35427C54.8723 8.32064 55.5142 8.37515 56.1675 8.33486C56.2211 8.3318 56.1438 8.19956 56.2299 8.1902C56.4064 8.17009 56.63 8.17728 56.8084 8.2195C56.8955 8.23985 56.7787 8.35332 56.8664 8.37148C57.0704 8.41402 57.289 8.42344 57.4986 8.40224C57.5878 8.39293 57.4532 8.25768 57.5691 8.25612C58.3587 8.2427 59.1341 8.21941 59.932 8.39455C59.9867 8.40658 60.0347 8.68145 60.151 8.62874C60.1598 8.55246 60.1593 8.46272 60.1631 8.38118C61.3125 8.33726 62.4502 8.43255 63.6028 8.44728C63.6514 8.44787 63.5674 8.30223 63.6615 8.30263C64.206 8.30478 64.7348 8.26444 65.2919 8.4092C65.3471 8.42336 65.3188 8.67958 65.4816 8.64083C65.5104 8.63375 65.7557 8.59958 65.8191 8.54396C65.8277 8.53557 65.7829 8.41598 65.862 8.41249C66.3213 8.39433 66.8027 8.42164 67.2612 8.49471C67.3352 8.50673 67.2564 8.63409 67.3091 8.64376C67.683 8.71136 68.0897 8.61455 68.447 8.73018C68.6862 8.80804 68.5976 9.02819 68.7247 9.24489C68.7427 9.27546 68.8908 9.28031 68.8984 9.40639C68.9181 9.72343 68.8464 10.0706 68.8758 10.4085C68.882 10.4813 69.0803 10.4029 68.9629 10.5788C68.9547 10.5906 68.8109 10.649 68.7755 10.7086C68.7508 10.7499 68.7953 10.8781 68.745 10.9309C68.6947 10.9837 68.6394 10.8762 68.556 10.9382C68.4726 11.0011 68.5093 11.1469 68.3428 11.1642ZM22.7374 9.13777C22.8691 9.26026 22.8885 8.81162 22.7461 8.91896C22.7392 8.92468 22.7306 9.13176 22.7374 9.13777ZM6.81003 9.20863C6.98213 9.40651 7.09989 9.11555 6.97848 8.96272C6.8571 8.81006 6.7576 9.14864 6.81003 9.20863ZM5.02543 9.3531C5.22657 9.50912 5.25823 8.87293 5.0428 9.00154C5.03029 9.0088 5.01368 9.34404 5.02543 9.3531ZM68.1354 9.3066C68.1372 9.31255 68.2436 9.31836 68.2462 9.31245C68.3029 9.16997 68.09 9.15845 68.1354 9.3066ZM3.25452 9.51039C3.31732 9.59644 3.4981 9.4971 3.42009 9.39009C3.35729 9.304 3.17632 9.40333 3.25452 9.51039ZM29.6044 9.61659C29.6065 9.62327 29.6828 9.62929 29.6813 9.5915C29.6761 9.46979 29.5699 9.50414 29.6044 9.61659ZM0.244666 9.51771C0.689359 9.54166 0.958978 10.0672 0.474715 10.0079C0.387017 9.99715 0.663728 9.8403 0.5521 9.79292C0.347863 9.7066 0.21224 10.0366 0.0038207 9.85975C-0.0339176 9.82739 0.219309 9.51518 0.245451 9.51698C0.245204 9.51722 0.244935 9.51747 0.244666 9.51771ZM22.8132 9.67665C22.8158 9.68258 22.9215 9.6882 22.924 9.68232C22.9812 9.53989 22.7684 9.52848 22.8132 9.67665ZM34.0577 9.89399C34.0636 9.90663 34.3088 9.91846 34.3167 9.90681C34.4446 9.6739 33.949 9.6493 34.0577 9.89399ZM15.698 10.005C15.5827 10.1482 15.4448 10.1651 15.3529 9.98518C15.4675 9.99473 15.5828 9.99614 15.698 10.005Z" fill="white"/>
<path d="M54.3344 2.84977C54.2887 2.84413 54.2855 2.72994 54.2447 2.70047C54.0743 2.57614 54.0407 2.47889 53.8956 2.3509C53.6803 2.16104 52.8933 1.85431 53.2312 1.26901C53.2312 1.269 53.2312 1.26898 53.2312 1.26897C53.2346 1.26323 53.238 1.25747 53.2415 1.25167C53.3084 1.14163 53.4402 1.05542 53.5221 0.934584C53.6041 0.813694 54.0674 -0.00465014 54.1812 -1.934e-06C54.3427 0.0127849 54.526 0.397011 54.5989 0.426758C54.6487 0.447042 54.7483 0.405832 54.815 0.426779C55.0298 0.494333 55.0982 0.605993 55.3858 0.50392C55.3932 0.649513 55.4007 0.795109 55.4081 0.940704C55.526 0.943251 55.581 1.16136 55.6398 1.18506C55.6881 1.20449 55.7626 1.13578 55.8114 1.15873C55.8663 1.184 55.8942 1.32071 55.9969 1.36186C56.1651 1.42974 56.319 1.22709 56.4284 1.25321C56.5417 1.28035 56.6236 1.48606 56.7915 1.48042C56.8209 1.46531 56.8503 1.4502 56.8796 1.43509C56.9 1.3743 56.9203 1.3135 56.9406 1.2527C57.0174 1.26329 56.9798 1.3902 57.0358 1.42521C57.1016 1.46647 57.1969 1.3806 57.2419 1.40721C57.2787 1.4291 57.28 1.54286 57.3311 1.5653C57.4054 1.59845 57.4607 1.46725 57.5116 1.46613C57.5318 1.46592 57.8489 1.55898 57.8652 1.56707C57.9873 1.63115 57.901 1.80462 57.9877 1.8742C58.2286 2.06653 58.5777 2.08763 58.8514 2.17745C58.9736 2.21751 59.0817 2.29291 59.1749 2.38246C58.7563 2.71221 58.9426 3.26453 59.1881 2.51205C59.254 2.67729 59.4442 2.54575 59.5412 2.64255C59.6038 2.70534 59.6015 2.82796 59.7088 2.88666C59.8995 2.99022 60.2576 2.84455 60.0358 3.35352C60.305 3.39663 60.396 3.68023 60.719 3.30435C60.7907 3.31142 60.7914 3.6468 60.8355 3.71775C60.8773 3.78473 61.2747 4.16541 61.3468 4.21547C61.4188 4.26552 61.5474 4.34894 61.6326 4.34875C61.7391 4.34923 62.0476 3.94415 61.895 4.53793C62.0848 4.5923 62.1354 4.64106 62.2554 4.78954C62.2771 4.8164 62.2364 4.89416 62.2527 4.90364C62.2863 4.92305 62.3759 4.89995 62.4398 4.92775C62.545 4.97351 62.509 5.16578 62.6389 4.91541C62.7276 4.91205 62.8163 4.90869 62.9049 4.90534C62.9006 4.96561 62.8962 5.02588 62.8918 5.08615C62.9562 5.0549 63.0206 5.02366 63.085 4.99241C62.8403 5.32194 63.2054 5.25488 63.2429 5.00638C63.3268 5.15223 63.4107 5.29808 63.4947 5.44393C63.2454 5.83509 63.7448 5.65009 63.846 5.41756C63.8602 5.42621 63.8745 5.43486 63.8887 5.44351C63.9534 5.6231 64.1198 5.60283 64.2324 5.76332C64.345 5.9238 64.308 5.95453 64.2483 6.16615C64.2906 6.1765 64.3329 6.18684 64.3753 6.19719C64.8575 5.80088 64.3181 6.65765 64.8677 6.4574C64.7881 6.8355 65.1409 6.81646 65.3666 6.81816C65.3928 6.81838 65.4288 6.75684 65.4662 6.75301C65.557 6.74442 65.6755 6.91866 65.7849 6.71629C65.8085 6.80675 65.8321 6.89721 65.8558 6.98767C65.9232 6.97831 65.9906 6.96895 66.058 6.95959C66.0936 6.89729 66.1293 6.83499 66.1649 6.77269C66.1362 7.03861 66.3304 7.04214 66.3737 7.1347C66.3822 7.1533 66.3358 7.24086 66.3672 7.29017C66.4037 7.34822 66.5161 7.3793 66.5632 7.44219C66.6423 7.36124 66.7215 7.28029 66.8006 7.19934C66.9422 7.21238 66.8367 7.48578 66.8912 7.54317C66.901 7.55338 67.1271 7.6599 67.1418 7.66125C67.2615 7.67375 67.3578 7.4446 67.6066 7.64921C67.6508 7.68578 67.6477 7.78257 67.6903 7.8111C67.7655 7.86163 68.098 7.83012 68.2059 7.68594C68.1889 7.93457 68.4885 8.00192 68.531 8.10111C68.5436 8.13136 68.4774 8.25778 68.5316 8.32411C68.5755 8.37801 68.7774 8.36277 68.8392 8.4205C68.9045 8.48223 68.8717 8.60157 68.9014 8.62849C68.9295 8.65381 69.0074 8.58714 69.0508 8.61284C69.1854 8.69448 69.2311 8.90054 69.3374 8.96524C69.339 8.96623 69.3407 8.96719 69.3423 8.96812L70.3959 9.68454L69.3423 10.1935C69.1893 10.2837 69.1939 10.6062 69.1278 10.7896C69.0861 10.7922 69.0236 10.7573 68.9894 10.7764C68.5651 11.011 68.0652 11.2387 67.6136 11.4287C67.404 11.5172 66.7237 11.4613 67.1776 11.9479C67.1664 12.0854 66.5419 12.1442 66.4459 12.195C66.3501 12.2459 66.3338 12.3895 66.2608 12.4336C66.0406 12.5666 65.8418 12.5847 65.6212 12.8289C65.5644 12.8922 65.5583 13.0548 65.516 13.0774C65.4649 13.1043 65.3445 13.02 65.2756 13.05C65.1118 13.1225 64.8462 13.3265 64.6867 13.3919C64.6574 13.4036 64.5894 13.3078 64.5325 13.2985C64.3106 13.2617 64.1481 13.3698 64.3646 13.676C64.0657 13.6037 63.984 13.8742 63.8111 13.9877C63.4452 14.2269 62.7131 14.5489 62.4622 14.875C62.3041 15.0806 62.3932 15.2225 62.0152 15.2739C61.9313 15.2853 61.8421 15.2869 61.7407 15.3013C61.5028 15.3347 61.1711 15.1689 61.2105 15.5767C60.9479 15.6167 60.8115 15.7746 60.4931 15.5902C60.5126 15.6673 60.5321 15.7444 60.5516 15.8214C60.5263 15.8382 60.5009 15.855 60.4756 15.8718C60.431 15.8134 60.3863 15.7549 60.3416 15.6965C60.1436 15.7882 60.0548 16.1856 59.8944 16.2757C59.6256 16.427 58.8795 16.7233 58.577 16.7842C58.4164 16.8166 58.4873 16.9561 58.2498 16.7224C58.2309 16.7591 58.212 16.7958 58.1931 16.8325C58.2094 16.9043 58.2257 16.9761 58.2421 17.0478C58.071 17.1498 57.8118 17.1734 57.648 17.2692C57.3497 17.4441 56.9968 17.8713 56.6325 17.9348C56.5411 17.9506 56.3744 17.8794 56.3014 17.9235C56.195 17.9874 56.2892 18.2109 56.1551 18.2935C55.9237 18.4356 55.3463 18.4462 55.1348 18.593C55.0719 18.6364 55.0859 18.7317 55.0451 18.7663C54.8746 18.9122 54.7141 18.9964 54.6001 19.222C54.2881 19.1358 54.1563 18.8683 53.9452 18.6434C53.7856 18.4737 53.3813 18.1006 53.262 17.9403C53.1781 17.8277 53.1411 17.6418 53.0446 17.5203C53.2189 17.2781 53.3854 17.3378 53.6847 17.4143C54.0338 17.2029 54.3829 16.9914 54.732 16.7799C54.806 16.8339 54.8801 16.8879 54.9541 16.9419C54.9542 16.9421 54.9543 16.9423 54.9544 16.9424C55.1385 16.9478 55.0881 16.7277 55.1368 16.643C55.6029 15.8323 57.1656 15.354 57.9634 14.9544C58.1353 14.8682 58.6196 14.4582 58.8017 14.5102C58.8489 14.5238 58.9217 14.631 58.956 14.6177C59.1982 14.3891 59.4405 14.1605 59.6828 13.9319C60.3604 13.7726 60.8742 13.2844 61.4403 12.9219C62.972 11.9408 64.4789 10.9532 66.0421 10.0863C66.3444 9.91898 66.6755 9.61598 66.9996 9.50097C67.1348 9.45282 67.2894 9.60313 67.3727 9.3765C67.4023 9.42394 67.432 9.47138 67.4616 9.51883C67.568 9.37948 67.5939 9.21762 67.7445 9.11572C67.8715 9.03009 68.2173 8.82083 68.3449 8.77185C68.4109 8.74609 68.4405 8.84961 68.4968 8.81651C68.5079 8.80985 68.5196 8.80067 68.5317 8.78952L68.5317 10.3721C68.4121 10.3347 68.1804 10.3312 68.0624 10.2631C67.9414 10.1932 67.7976 9.97128 67.6959 9.93268C67.33 9.79288 66.876 9.73672 66.543 9.48924C66.4511 9.4206 66.392 9.23007 66.3593 9.21552C66.295 9.18751 66.2113 9.29109 66.1623 9.28235C65.9137 9.23756 65.6711 8.91693 65.4725 8.79509C64.8253 8.39805 64.1002 8.04574 63.4578 7.64692C63.0519 7.39504 62.3532 7.01837 62.0209 6.71224C61.9493 6.6462 62.0433 6.53403 61.9742 6.49412C61.8975 6.4499 61.8073 6.51027 61.7675 6.49641C61.4921 6.40099 60.8955 6.17025 60.7112 5.94891C60.6762 5.90661 60.7003 5.79012 60.6734 5.77506C60.6599 5.76726 60.5908 5.81639 60.5445 5.79873C60.1351 5.64288 59.8845 5.44629 59.5307 5.21151C58.8528 4.76236 57.9667 4.41635 57.2671 3.92283C57.1147 3.81534 57.1161 3.55816 57.0923 3.54705C57.0404 3.52229 56.9335 3.63408 56.8144 3.60818C56.4191 3.52083 56.0491 3.12203 55.6934 3.00369C55.5178 2.94514 55.2066 2.98571 55.0309 2.93301C54.8905 2.89095 54.6363 2.65779 54.5397 2.69872C54.4812 2.72332 54.3845 2.85517 54.3344 2.84977ZM59.7589 3.06041C59.607 3.27274 59.9461 3.21919 59.9291 3.04833C59.9253 3.00985 59.7983 3.00528 59.7589 3.06041ZM68.2001 10.7067C68.2394 10.7698 68.2786 10.8328 68.3178 10.8959C68.3327 10.8516 68.3476 10.8074 68.3625 10.7631C68.3232 10.7343 68.2838 10.7055 68.2444 10.6767C68.2297 10.6867 68.2149 10.6967 68.2001 10.7067Z" fill="white"/>
</svg>
