<svg width="24" height="24" viewBox="0 0 24 24" fill="none" xmlns="http://www.w3.org/2000/svg">
<path fill-rule="evenodd" clip-rule="evenodd" d="M16.5 2.25H7.5C4.60051 2.25 2.25 4.60051 2.25 7.5V16.5C2.25 19.3995 4.60051 21.75 7.5 21.75H16.5C19.3995 21.75 21.75 19.3995 21.75 16.5V7.5C21.75 4.60051 19.3995 2.25 16.5 2.25ZM7.5 0C3.35786 0 0 3.35786 0 7.5V16.5C0 20.6421 3.35786 24 7.5 24H16.5C20.6421 24 24 20.6421 24 16.5V7.5C24 3.35786 20.6421 0 16.5 0H7.5Z" fill="white"/>
<path fill-rule="evenodd" clip-rule="evenodd" d="M12.375 15.75C14.6532 15.75 16.5 13.9032 16.5 11.625C16.5 9.34683 14.6532 7.5 12.375 7.5C10.0968 7.5 8.25 9.34683 8.25 11.625C8.25 13.9032 10.0968 15.75 12.375 15.75ZM12.375 18C15.8958 18 18.75 15.1458 18.75 11.625C18.75 8.10418 15.8958 5.25 12.375 5.25C8.85418 5.25 6 8.10418 6 11.625C6 15.1458 8.85418 18 12.375 18Z" fill="white"/>
<path d="M19.875 5.8125C19.875 6.53737 19.2874 7.125 18.5625 7.125C17.8376 7.125 17.25 6.53737 17.25 5.8125C17.25 5.08763 17.8376 4.5 18.5625 4.5C19.2874 4.5 19.875 5.08763 19.875 5.8125Z" fill="white"/>
</svg>
