<svg width="41" height="41" viewBox="0 0 41 41" fill="none" xmlns="http://www.w3.org/2000/svg">
<g filter="url(#filter0_g_493_1604)">
<circle cx="18" cy="18" r="18" transform="matrix(4.37114e-08 -1 -1 -4.37114e-08 38.25 38.25)" stroke="white" stroke-width="2.5"/>
</g>
<path d="M19.4645 11.8435C19.4681 11.8047 19.3287 11.8946 19.302 11.8799C19.1887 11.8197 19.0771 11.867 18.9535 11.8336C18.7702 11.7842 18.5755 11.2882 17.7791 12.0846C17.779 12.0846 17.779 12.0847 17.779 12.0847C17.7712 12.0925 17.7633 12.1004 17.7554 12.1085C17.6049 12.2614 17.4686 12.4564 17.3014 12.6324C17.134 12.8084 16.0225 13.9134 16.0019 14.0174C15.9803 14.16 16.4096 14.021 16.4293 14.0658C16.4427 14.0966 16.3691 14.2245 16.3794 14.2706C16.4127 14.4192 16.5339 14.3931 16.3422 14.7487C16.5192 14.6372 16.6962 14.5258 16.8732 14.4143C16.849 14.524 17.104 14.3986 17.1195 14.435C17.1322 14.4649 17.0307 14.5915 17.0476 14.619C17.0659 14.6505 17.2273 14.5657 17.2541 14.6295C17.2985 14.7336 17.0142 15.0444 17.021 15.1267C17.0281 15.212 17.2617 15.1222 17.216 15.2859C17.1907 15.326 17.1653 15.3661 17.14 15.4063C17.0607 15.475 16.9814 15.5437 16.9021 15.6124C16.8973 15.6766 17.0618 15.5377 17.0918 15.5622C17.1272 15.591 16.9998 15.7512 17.0221 15.7721C17.0405 15.7892 17.1798 15.6979 17.1955 15.7281C17.219 15.7715 17.0452 15.9306 17.0321 15.9798C17.0272 15.9991 17.0681 16.2238 17.0743 16.2326C17.1247 16.2962 17.3576 16.0733 17.423 16.0988C17.6034 16.1705 17.5487 16.4841 17.5957 16.6703C17.6166 16.7535 17.6842 16.7946 17.7725 16.81C18.274 16.145 18.9089 15.8721 17.9286 16.717C18.1162 16.645 17.9108 16.9323 18.0072 16.9454C18.0698 16.9536 18.2208 16.8516 18.2681 16.9055C18.3511 17.0019 18.0896 17.4598 18.7656 16.8354C18.7563 17.0554 19.0834 16.9108 18.5474 17.5227C18.5395 17.585 18.951 17.3127 19.0279 17.2967C19.1004 17.2818 19.4759 17.3485 19.5207 17.3761C19.5655 17.4036 19.6382 17.4576 19.6183 17.5384C19.5942 17.639 19.0257 18.2609 19.7898 17.6331C19.8127 17.7686 19.8609 17.777 20.0154 17.7698C20.0434 17.7685 20.1482 17.6667 20.1561 17.6744C20.1721 17.6904 20.1231 17.7941 20.1424 17.8321C20.1743 17.8944 20.4186 17.7039 20.0813 18.0308C20.0567 18.1175 20.0321 18.2042 20.0075 18.291C20.0825 18.2378 20.1574 18.1846 20.2324 18.1314C20.1792 18.2179 20.126 18.3043 20.0727 18.3908C20.5337 17.8907 20.3671 18.2912 20.0534 18.529C20.213 18.4898 20.3727 18.4506 20.5323 18.4114C21.07 17.8569 20.7276 18.4806 20.4188 18.7657C20.4261 18.7722 20.4334 18.7787 20.4407 18.7851C20.6462 18.7003 20.5829 18.8744 20.7539 18.8505C20.9248 18.8266 20.9711 18.7665 21.2447 18.5377C21.2476 18.5694 21.2505 18.6011 21.2534 18.6328C20.6556 19.4122 21.8318 18.2039 21.4591 18.8876C21.9415 18.5045 21.8367 18.8543 21.7866 19.0667C21.7808 19.0914 21.697 19.1755 21.6836 19.214C21.6521 19.3071 21.8386 19.2776 21.5649 19.5459C21.6705 19.4947 21.7761 19.4434 21.8817 19.3922C21.8546 19.4637 21.8275 19.5352 21.8005 19.6066C21.7158 19.6911 21.6311 19.7756 21.5464 19.8601C21.8794 19.6165 21.8389 19.7976 21.9425 19.7633C21.9633 19.7562 22.0815 19.641 22.1348 19.6307C22.1976 19.6179 22.2098 19.6992 22.2761 19.6926C22.1585 19.8334 22.0408 19.9743 21.9232 20.1152C21.9065 20.2387 22.2664 19.9163 22.3243 19.9211C22.3345 19.9222 22.413 20.0497 22.4113 20.0626C22.399 20.1657 22.0955 20.4435 22.2892 20.5127C22.3238 20.5248 22.4433 20.4432 22.4685 20.4603C22.5132 20.4904 22.3977 20.8311 22.1958 21.0507C22.5049 20.8322 22.5183 21.0613 22.6303 21.0208C22.6645 21.0082 22.8349 20.8426 22.9038 20.8399C22.9599 20.8376 22.8945 21.0413 22.9511 21.0529C23.0118 21.0645 23.1658 20.9363 23.192 20.9425C23.2166 20.9486 23.1168 21.0766 23.1383 21.0968C23.2074 21.158 23.4498 21.0335 23.5046 21.0816C23.5055 21.0824 23.5063 21.0831 23.507 21.0839L23.507 19.4163C23.4317 19.4879 23.0348 19.2211 22.825 19.1345C22.8314 19.1719 22.8886 19.2595 22.8731 19.2763C22.6832 19.4874 22.5192 19.7758 22.3903 20.0491C22.3302 20.1756 22.556 20.8657 21.8538 20.0397C21.6876 19.9383 21.7597 20.4823 21.7195 20.5318C21.6792 20.5812 21.5067 20.4798 21.4694 20.513C21.357 20.6134 21.3808 20.7871 21.132 20.7973C21.0674 20.7996 20.8692 20.6731 20.8513 20.6948C20.8301 20.7213 20.9614 20.904 20.9404 20.9448C20.8893 21.0411 20.7003 21.1267 20.6568 21.2246C20.6492 21.2428 20.7825 21.3852 20.8071 21.4467C20.9036 21.6869 20.8084 21.7529 20.3826 21.2986C20.5403 21.6406 20.2272 21.4979 20.1278 21.5693C19.9188 21.7213 19.6926 22.1529 19.3504 22.1253C19.1346 22.1078 18.9397 21.9079 18.9641 22.2242C18.9694 22.2944 18.9881 22.3776 18.9939 22.462C19.0078 22.6602 19.2879 23.1094 18.7782 22.7402C18.7899 22.9565 18.6275 22.9572 18.9274 23.4089C18.8283 23.3277 18.7292 23.2466 18.6302 23.1654C18.6154 23.1757 18.6006 23.186 18.5858 23.1963C18.6679 23.2862 18.7499 23.3761 18.832 23.4659C18.7652 23.579 18.2979 23.3397 18.2244 23.4184C18.1008 23.5499 17.9095 24.0157 17.9045 24.2527C17.9019 24.3785 17.7143 24.1978 18.056 24.613C18.0153 24.6011 17.9746 24.5891 17.9339 24.5772C17.8421 24.5033 17.7502 24.4294 17.6584 24.3555C17.5727 24.4346 17.6037 24.661 17.5239 24.7382C17.3782 24.8786 16.9354 24.8653 16.9415 25.1587C16.9433 25.2325 17.0692 25.4484 17.032 25.4817C16.978 25.5304 16.6819 25.2593 16.6115 25.3191C16.4906 25.4228 16.611 25.9612 16.4797 26.0422C16.4409 26.0664 16.3207 25.9756 16.2877 25.9861C16.148 26.0289 16.0817 26.1124 15.8312 26.0369C16.009 26.4026 16.3678 26.7452 16.6927 27.1283C16.9377 27.4175 17.4892 28.1042 17.7135 28.3478C17.8712 28.5189 18.1078 28.7052 18.2793 28.8955C18.5363 28.9275 18.4245 28.7211 18.2614 28.3752C18.4403 28.2166 18.6193 28.0579 18.7982 27.8993C18.7148 27.7852 18.6314 27.671 18.548 27.5569C18.5478 27.5567 18.5475 27.5565 18.5473 27.5563C18.4982 27.3775 18.78 27.6044 18.8727 27.6271C19.7601 27.8452 19.9862 26.7539 20.2923 26.3232C20.3584 26.2305 20.7498 26.1053 20.6439 25.8905C20.6162 25.8346 20.4678 25.6784 20.4762 25.6567C20.7008 25.6132 20.9255 25.5697 21.1501 25.5262C21.1892 25.0139 21.6696 24.9243 21.9838 24.683C22.8342 24.0302 23.6983 23.4061 24.4011 22.6304C24.5367 22.4803 24.8321 22.413 24.8984 22.1996C24.9262 22.1107 24.706 21.8418 24.965 21.9474C24.8999 21.8807 24.8348 21.814 24.7697 21.7473C24.9162 21.76 25.1089 21.8671 25.1991 21.8073C25.2749 21.7567 25.4519 21.5994 25.4825 21.5184C25.4989 21.4768 25.365 21.3645 25.3926 21.3381C25.3982 21.333 25.4068 21.3294 25.4177 21.327L26.3771 20.739L25.4177 19.1733C25.3993 19.0904 25.4486 18.8738 25.3922 18.8174C25.3344 18.7596 25.0952 18.804 25.0713 18.7391C24.9843 18.5062 25.0202 18.1217 24.7934 18.0075C24.7304 17.9764 24.5102 18.0754 24.4999 18.0562C24.4803 18.0182 24.6268 17.8545 24.6274 17.8152C24.6299 17.6162 24.2924 17.6472 24.1887 17.5582C23.8509 17.2681 23.586 16.8678 23.2449 16.5837C23.0295 16.4041 22.7286 16.0486 22.4296 15.9829C22.3651 15.9688 22.2057 16.1492 22.1726 16.1161C22.1361 16.0795 22.231 15.9449 22.2232 15.9185C22.1697 15.7351 22.0243 15.3577 21.7952 15.3632C21.7514 15.3645 21.6028 15.4821 21.5906 15.4689C21.5841 15.4624 21.6604 15.357 21.6494 15.3275C21.5527 15.0664 21.3693 14.9889 21.1628 14.8448C20.7681 14.5681 20.5482 14.0101 20.104 13.7489C20.0073 13.6919 19.6913 13.9025 19.6832 13.8891C19.6648 13.86 19.8267 13.6678 19.8224 13.576C19.8065 13.2725 19.4025 13.2465 19.3394 13.0058C19.3081 12.8871 19.4298 12.5592 19.4057 12.4356C19.3865 12.3368 19.1591 12.2857 19.2316 12.1609C19.2754 12.0854 19.4595 11.8865 19.4645 11.8435ZM18.4698 16.8116C18.7655 16.4948 18.6214 16.8597 18.4156 16.9827C18.3693 17.0104 18.393 16.8938 18.4698 16.8116ZM23.141 20.0809C23.0546 19.9924 22.9681 19.9039 22.8816 19.8155C22.9325 19.8374 22.9834 19.8593 23.0343 19.8812C23.0788 19.9419 23.1232 20.0026 23.1676 20.0634C23.1588 20.0692 23.1499 20.0751 23.141 20.0809Z" fill="white"/>
<defs>
<filter id="filter0_g_493_1604" x="0" y="0" width="40.5" height="40.5" filterUnits="userSpaceOnUse" color-interpolation-filters="sRGB">
<feFlood flood-opacity="0" result="BackgroundImageFix"/>
<feBlend mode="normal" in="SourceGraphic" in2="BackgroundImageFix" result="shape"/>
<feTurbulence type="fractalNoise" baseFrequency="0.1666666716337204 0.1666666716337204" numOctaves="3" seed="4011" />
<feDisplacementMap in="shape" scale="2" xChannelSelector="R" yChannelSelector="G" result="displacedImage" width="100%" height="100%" />
<feMerge result="effect1_texture_493_1604">
<feMergeNode in="displacedImage"/>
</feMerge>
</filter>
</defs>
</svg>
