<svg width="49" height="49" viewBox="0 0 49 49" fill="none" xmlns="http://www.w3.org/2000/svg">
<g filter="url(#filter0_g_354_1018)">
<circle cx="24.25" cy="24.25" r="22" stroke="white" stroke-width="2.5"/>
</g>
<path d="M34.1326 25.6022C34.1752 25.6025 34.0908 25.7474 34.1101 25.7788C34.1896 25.9113 34.1494 26.03 34.2003 26.171C34.2756 26.3802 34.8483 26.6516 34.0519 27.4481C34.0519 27.4481 34.0518 27.4482 34.0518 27.4482C34.044 27.456 34.0361 27.4638 34.028 27.4718C33.8748 27.622 33.6732 27.7518 33.4963 27.918C33.3193 28.0844 32.215 29.1966 32.1018 29.2079C31.9457 29.2161 32.0525 28.7546 32.0005 28.7277C31.9649 28.7095 31.8309 28.777 31.7786 28.7604C31.6098 28.707 31.6253 28.5751 31.2515 28.7487C31.3556 28.5644 31.4598 28.3801 31.564 28.1958C31.4448 28.2104 31.5558 27.941 31.5136 27.9198C31.4789 27.9023 31.3496 28.0011 31.3172 27.9793C31.2801 27.9554 31.3565 27.7855 31.2826 27.7487C31.1619 27.6877 30.8483 27.9691 30.756 27.9524C30.6604 27.935 30.7343 27.6854 30.5575 27.7181C30.5157 27.7417 30.4739 27.7654 30.4322 27.7891C30.3646 27.8696 30.2971 27.9501 30.2296 28.0306C30.1588 28.0287 30.2949 27.8614 30.2643 27.8253C30.2283 27.7828 30.0645 27.9066 30.0387 27.8795C30.0178 27.8572 30.1037 27.7125 30.0685 27.6917C30.0176 27.6607 29.8601 27.8362 29.8069 27.8453C29.786 27.8486 29.5318 27.7781 29.5213 27.7703C29.445 27.7072 29.6669 27.4732 29.6312 27.3978C29.5315 27.1893 29.1892 27.2153 28.9771 27.1424C28.8823 27.1099 28.8292 27.0302 28.8021 26.9303C29.4853 26.447 29.7181 25.7719 28.8881 26.7673C28.9474 26.5669 28.6509 26.7632 28.6257 26.6546C28.6096 26.5841 28.7061 26.4276 28.641 26.3691C28.5246 26.2661 28.045 26.5059 28.6636 25.8241C28.4202 25.81 28.5445 25.4626 27.9242 25.9902C27.8559 25.9921 28.1127 25.5651 28.1219 25.4814C28.1304 25.4025 28.0146 24.9779 27.979 24.9251C27.9434 24.8722 27.8754 24.7855 27.7878 24.7986C27.6787 24.8141 27.0508 25.3767 27.6635 24.5975C27.5103 24.5569 27.4957 24.5025 27.4865 24.3316C27.4849 24.3007 27.5863 24.1955 27.5769 24.1859C27.5573 24.1663 27.4476 24.2093 27.4032 24.1836C27.3304 24.1412 27.5149 23.8909 27.1893 24.2294C27.0956 24.2471 27.002 24.2648 26.9083 24.2825C26.9591 24.2051 27.0099 24.1277 27.0606 24.0503C26.9705 24.0998 26.8803 24.1494 26.7902 24.1989C27.2946 23.7422 26.8681 23.8829 26.6388 24.205C26.6646 24.032 26.6904 23.859 26.7162 23.686C27.2726 23.1501 26.6176 23.4613 26.3351 23.7728C26.3271 23.7639 26.3191 23.755 26.3111 23.7462C26.3826 23.5273 26.1961 23.5783 26.2037 23.391C26.2112 23.2037 26.2728 23.159 26.4967 22.8804C26.4612 22.8737 26.4256 22.8669 26.3901 22.8601C25.5905 23.4378 26.8024 22.2651 26.0841 22.6034C26.4562 22.1098 26.0792 22.1875 25.8487 22.2195C25.822 22.2232 25.7377 22.307 25.6965 22.3175C25.5966 22.3422 25.6086 22.1383 25.3409 22.4126C25.3861 22.301 25.4313 22.1893 25.4765 22.0777C25.4001 22.0999 25.3237 22.122 25.2472 22.1441C25.1628 22.2288 25.0783 22.3136 24.9939 22.3983C25.2275 22.0553 25.0308 22.0802 25.0574 21.9689C25.0629 21.9465 25.1778 21.828 25.1834 21.77C25.1906 21.7016 25.099 21.679 25.0989 21.6061C24.9555 21.7211 24.812 21.8362 24.6686 21.9513C24.5332 21.9561 24.8514 21.592 24.8396 21.5271C24.8373 21.5156 24.6869 21.4142 24.6728 21.4147C24.5595 21.4169 24.2846 21.7233 24.1862 21.5005C24.1689 21.4606 24.2463 21.3369 24.2245 21.307C24.1861 21.254 23.8204 21.3445 23.5988 21.5444C23.8072 21.2253 23.5512 21.1849 23.5838 21.065C23.594 21.0284 23.7591 20.8574 23.7543 20.7811C23.7507 20.7191 23.5316 20.7691 23.5124 20.705C23.4928 20.6362 23.6181 20.4793 23.6083 20.4495C23.5989 20.4215 23.4677 20.5182 23.4428 20.4921C23.3672 20.4085 23.4786 20.153 23.419 20.0867C23.4181 20.0857 23.4172 20.0847 23.4162 20.0838H25.0838C24.9959 20.1755 25.2482 20.5868 25.3211 20.8103C25.2804 20.8073 25.1894 20.7535 25.1689 20.7726C24.9133 21.0071 24.5747 21.2213 24.2566 21.3949C24.1094 21.4758 23.3677 21.3016 24.2075 21.9899C24.3017 22.1634 23.7053 22.1437 23.6458 22.1939C23.5864 22.2441 23.6799 22.4246 23.6389 22.4697C23.5148 22.6057 23.3245 22.5985 23.2855 22.8761C23.2758 22.9482 23.3943 23.1543 23.3682 23.1767C23.3364 23.2032 23.148 23.0776 23.1003 23.1054C22.9877 23.1729 22.8715 23.3924 22.7579 23.4516C22.7369 23.4621 22.5935 23.3298 22.5278 23.3093C22.2716 23.2288 22.1877 23.3419 22.6453 23.7645C22.2828 23.6273 22.4065 23.9594 22.3161 24.0777C22.124 24.3269 21.6193 24.6261 21.612 25.0032C21.6074 25.2411 21.8079 25.4354 21.4592 25.4435C21.3818 25.4454 21.2914 25.4338 21.1983 25.4368C20.9796 25.4434 20.5116 25.1821 20.8652 25.7073C20.6261 25.7184 20.6073 25.8989 20.1388 25.6159C20.2179 25.717 20.2971 25.818 20.3763 25.9191C20.3632 25.9367 20.3501 25.9542 20.337 25.9718C20.2463 25.8906 20.1555 25.8095 20.0648 25.7283C19.9318 25.815 20.1457 26.3077 20.0501 26.3981C19.8902 26.55 19.3514 26.8143 19.0876 26.8462C18.9475 26.8631 19.1274 27.0514 18.704 26.7179C18.7128 26.7618 18.7216 26.8057 18.7303 26.8495C18.8022 26.9434 18.8741 27.0372 18.946 27.1311C18.8486 27.2351 18.6004 27.2258 18.5058 27.3231C18.3337 27.5005 18.2992 27.9911 17.9739 28.0168C17.8921 28.0231 17.6662 27.9072 17.625 27.9522C17.565 28.0176 17.8333 28.3164 17.759 28.4014C17.6304 28.5472 17.0454 28.4733 16.941 28.6281C16.9097 28.6739 16.9973 28.7974 16.9819 28.8353C16.9188 28.9952 16.8187 29.0782 16.8748 29.3482C16.4882 29.1912 16.1473 28.8305 15.7578 28.5122C15.4637 28.272 14.7619 27.7356 14.5162 27.5134C14.3436 27.3573 14.163 27.115 13.9705 26.9457C13.9636 26.6636 14.1804 26.7649 14.5466 26.9077C14.7428 26.6913 14.9389 26.4748 15.1351 26.2584C15.2526 26.3384 15.3702 26.4184 15.4877 26.4984C15.4879 26.4986 15.4881 26.4988 15.4883 26.499C15.6815 26.5338 15.4608 26.2459 15.4458 26.1454C15.302 25.1836 16.5397 24.8111 17.0524 24.4231C17.1626 24.3393 17.3452 23.8906 17.5722 23.9844C17.6312 24.009 17.7883 24.1564 17.8133 24.1447C17.8866 23.8903 17.9599 23.6359 18.0332 23.3815C18.6067 23.2811 18.7597 22.7374 19.0627 22.3614C19.8826 21.3441 20.6719 20.3146 21.6119 19.4475C21.7938 19.2802 21.9013 18.9445 22.1459 18.8471C22.2477 18.8063 22.522 19.0211 22.4335 18.7451C22.5003 18.81 22.5672 18.8749 22.6341 18.9398C22.6363 18.7785 22.5387 18.5763 22.6151 18.4693C22.6798 18.3795 22.8743 18.1654 22.9677 18.1224C23.0157 18.0996 23.1256 18.2359 23.158 18.2022C23.1643 18.1954 23.1693 18.1855 23.1732 18.1732L23.8427 17.1763L25.3268 18.1732C25.4209 18.2027 25.6562 18.1721 25.7251 18.241C25.7957 18.3116 25.773 18.5725 25.8478 18.6062C26.1163 18.7288 26.5395 18.7316 26.6915 18.9963C26.7331 19.0698 26.6475 19.3035 26.67 19.317C26.7145 19.343 26.88 19.1984 26.9236 19.2021C27.1445 19.2215 27.1475 19.5931 27.2579 19.7181C27.6178 20.1257 28.092 20.4645 28.4456 20.8751C28.6691 21.1344 29.0975 21.5082 29.2037 21.8477C29.2266 21.921 29.0439 22.0781 29.0842 22.1184C29.129 22.1631 29.268 22.0726 29.2982 22.0842C29.5079 22.164 29.9434 22.3675 29.9627 22.6215C29.9662 22.67 29.852 22.822 29.8681 22.8371C29.876 22.845 29.9846 22.772 30.0187 22.7874C30.3195 22.9239 30.4259 23.1363 30.609 23.3817C30.9604 23.851 31.6048 24.1574 31.9444 24.6799C32.0184 24.7937 31.8195 25.1214 31.8354 25.132C31.8697 25.1556 32.0653 24.9971 32.1677 25.012C32.5067 25.0634 32.5805 25.5152 32.8549 25.612C32.9904 25.66 33.3412 25.5612 33.4812 25.6017C33.593 25.634 33.6751 25.8924 33.8057 25.8257C33.8848 25.7855 34.0853 25.6029 34.1326 25.6022ZM28.723 26.1554C29.042 25.8621 28.6526 25.9816 28.5389 26.1966C28.5132 26.245 28.6402 26.2316 28.723 26.1554ZM24.3047 20.5643C24.3934 20.6505 24.4821 20.7368 24.5708 20.823C24.5522 20.7689 24.5335 20.7148 24.5148 20.6607C24.4523 20.618 24.3897 20.5754 24.3272 20.5328C24.3197 20.5433 24.3122 20.5538 24.3047 20.5643Z" fill="white"/>
<defs>
<filter id="filter0_g_354_1018" x="0" y="0" width="48.5" height="48.5" filterUnits="userSpaceOnUse" color-interpolation-filters="sRGB">
<feFlood flood-opacity="0" result="BackgroundImageFix"/>
<feBlend mode="normal" in="SourceGraphic" in2="BackgroundImageFix" result="shape"/>
<feTurbulence type="fractalNoise" baseFrequency="0.1666666716337204 0.1666666716337204" numOctaves="3" seed="4011" />
<feDisplacementMap in="shape" scale="2" xChannelSelector="R" yChannelSelector="G" result="displacedImage" width="100%" height="100%" />
<feMerge result="effect1_texture_354_1018">
<feMergeNode in="displacedImage"/>
</feMerge>
</filter>
</defs>
</svg>
